<svg version="1.1" id="Layer_1" xmlns="http://www.w3.org/2000/svg" xmlns:xlink="http://www.w3.org/1999/xlink" x="0px" y="0px"
	 width="100%" viewBox="0 0 1114 434" enable-background="new 0 0 1114 434" xml:space="preserve">
<path fill="#FEFEFE" opacity="1.000000" stroke="none" 
	d="
M708.000000,435.000000 
	C472.000000,435.000000 236.500000,435.000000 1.000000,435.000000 
	C1.000000,290.333344 1.000000,145.666672 1.000000,1.000000 
	C372.333344,1.000000 743.666687,1.000000 1115.000000,1.000000 
	C1115.000000,145.666672 1115.000000,290.333344 1115.000000,435.000000 
	C979.500000,435.000000 844.000000,435.000000 708.000000,435.000000 
M396.587982,111.558403 
	C395.931488,111.142578 395.274994,110.726753 394.317169,109.765114 
	C393.417664,108.649948 392.518127,107.534782 391.821503,105.782036 
	C391.434479,105.385101 391.047485,104.988167 390.660461,104.591232 
	C390.430023,104.918045 390.199585,105.244865 389.345886,105.289543 
	C388.508820,104.935135 387.671722,104.580727 386.942017,103.666206 
	C386.287781,103.380859 385.633545,103.095512 384.231140,102.595421 
	C382.153351,102.405106 380.075531,102.214790 377.420013,101.584534 
	C375.670776,102.137192 373.921539,102.689857 371.651031,103.475883 
	C371.092102,103.589821 370.533173,103.703758 369.724304,103.292175 
	C369.170471,103.382385 368.616608,103.472588 367.370178,103.381950 
	C366.313385,104.344711 365.256592,105.307472 363.690338,106.680298 
	C363.313232,106.898125 362.936127,107.115952 362.120697,106.595673 
	C361.584961,107.207146 361.049194,107.818619 360.418488,108.490776 
	C360.418488,108.490776 360.373566,108.594139 359.699738,108.171684 
	C350.410370,114.836761 340.411804,120.723602 332.018555,128.372101 
	C322.422577,137.116577 313.809113,147.063416 305.563934,157.138580 
	C291.204803,174.684631 277.456390,192.730438 263.449402,210.564743 
	C260.123566,214.799347 256.787689,219.026047 252.961929,223.884338 
	C251.320145,221.495636 250.047379,220.009140 249.178528,218.315430 
	C245.720566,211.574570 242.374023,204.776276 239.013916,197.985550 
	C235.534790,190.954285 232.379852,183.743591 228.552795,176.908310 
	C223.763885,168.355148 218.481430,160.075577 213.324326,151.732117 
	C208.419662,143.797043 203.595230,135.801178 198.373642,128.076675 
	C194.103195,121.759209 185.310745,118.075142 180.003738,120.714691 
	C172.529984,124.431900 165.869141,129.499725 162.452148,137.520172 
	C159.737793,143.891373 157.012589,150.331161 155.159973,156.982224 
	C150.172485,174.887741 145.404984,192.863281 141.019592,210.925003 
	C137.548157,225.222519 135.214767,239.802002 131.573318,254.051117 
	C127.142128,271.390442 121.558960,288.434418 117.076042,305.761871 
	C114.343193,316.324890 113.670280,327.056030 118.882057,337.415833 
	C121.933701,343.481781 126.610863,346.864838 133.214645,347.434265 
	C139.145615,347.945648 143.677216,344.895599 146.463913,340.085144 
	C149.006226,335.696564 150.837097,330.805115 152.378815,325.944122 
	C157.626770,309.397461 162.928925,292.855652 167.585938,276.138062 
	C171.054199,263.687775 173.711807,251.001953 176.447464,238.359802 
	C179.672836,223.454514 182.680283,208.500305 185.612167,193.533997 
	C187.302094,184.907364 188.656052,176.214951 190.296524,166.773499 
	C191.577026,168.489319 192.427750,169.324219 192.919785,170.333908 
	C201.777496,188.509888 210.505219,206.749710 219.446762,224.884140 
	C225.160049,236.471329 230.671280,248.206024 237.208435,259.324677 
	C242.893875,268.994690 255.276123,271.132538 263.549500,264.141266 
	C268.560364,259.906921 272.608398,254.449493 276.717255,249.247925 
	C287.216034,235.957123 297.778015,222.700790 307.788086,209.044632 
	C314.852570,199.407013 320.937347,189.057053 327.691925,179.184097 
	C331.149963,174.129654 335.118103,169.424149 338.855652,164.560913 
	C339.884583,166.165253 340.001831,167.117966 339.866028,168.033127 
	C338.769806,175.419205 337.284698,182.764893 336.560181,190.185577 
	C334.304565,213.288559 327.770325,235.459778 321.605103,257.644196 
	C316.081665,277.519409 310.653503,297.147461 311.232758,318.126312 
	C311.518585,328.476929 315.861847,336.011688 322.718018,342.767517 
	C323.484863,343.523132 325.238586,343.277191 326.865448,343.678741 
	C327.064331,343.835602 327.283936,343.954041 328.183594,344.748260 
	C329.457550,344.811371 330.731476,344.874481 332.705170,344.999939 
	C333.905762,343.989288 335.106354,342.978638 336.540131,341.663513 
	C336.704315,341.467285 336.863495,341.267059 337.526093,340.948822 
	C337.662079,340.305878 337.798065,339.662933 338.090546,338.286987 
	C338.110779,337.538696 338.131012,336.790375 338.786102,335.699463 
	C339.522034,331.133850 340.257965,326.568268 341.115723,321.399750 
	C341.119720,320.990967 341.123718,320.582153 341.704071,319.841187 
	C341.857880,318.213593 342.011719,316.586029 342.284668,314.161407 
	C342.136719,313.395386 341.988770,312.629364 341.898895,311.865021 
	C341.898895,311.865021 341.900360,311.923096 342.562073,311.982697 
	C343.022736,310.328064 343.483398,308.673431 344.097168,306.223572 
	C343.937500,305.726593 343.777832,305.229614 343.692413,304.787476 
	C343.692413,304.787476 343.695068,304.695190 344.418732,304.814697 
	C345.623627,300.880951 346.828522,296.947235 348.006958,293.020416 
	C348.006958,293.020416 348.026093,293.035431 348.580078,292.831970 
	C348.741089,291.881104 348.902100,290.930237 349.216003,289.233795 
	C349.074402,288.765961 348.932800,288.298096 348.837677,287.830933 
	C348.837677,287.830933 348.850006,287.875824 349.580109,287.938385 
	C350.558502,284.605408 351.536896,281.272400 352.816681,277.267609 
	C352.895325,276.538666 352.973938,275.809723 353.594452,274.843933 
	C353.749908,273.894104 353.905334,272.944244 354.219360,271.508575 
	C354.243042,271.170502 354.266754,270.832397 354.804413,270.083282 
	C355.210266,268.386353 355.616119,266.689453 356.157928,264.208588 
	C355.991608,263.724304 355.825287,263.240051 355.706573,262.847076 
	C355.706573,262.847076 355.728485,262.746460 356.464539,262.825165 
	C357.653809,258.225250 358.843079,253.625366 360.679382,248.723831 
	C361.831055,243.138168 362.982697,237.552490 364.288147,231.196426 
	C364.171448,230.444809 364.054749,229.693176 363.989441,228.945145 
	C363.989441,228.945145 363.995026,228.996399 364.662781,229.015854 
	C365.110992,227.343109 365.559174,225.670364 366.148102,223.438171 
	C366.163300,223.054703 366.178497,222.671219 366.716949,221.925827 
	C366.875183,220.611481 367.033417,219.297150 367.343567,217.282410 
	C367.573700,215.876907 367.803802,214.471390 368.629028,212.776398 
	C368.773163,211.179321 368.917297,209.582245 369.193756,207.158371 
	C369.031830,206.365799 368.869934,205.573212 368.729553,204.827560 
	C368.729553,204.827560 368.771637,204.797607 369.464935,204.871674 
	C369.714905,203.229507 369.964874,201.587341 370.326904,199.137115 
	C370.207855,198.081558 370.088776,197.025986 370.022736,195.971039 
	C370.022736,195.971039 370.033539,196.022903 370.755096,195.961792 
	C371.173126,192.640121 371.591156,189.318436 372.113251,185.229462 
	C372.099548,184.198334 372.085815,183.167221 372.711578,181.720337 
	C372.593018,176.969925 372.474457,172.219528 372.523773,166.999405 
	C372.489410,166.506531 372.455048,166.013657 372.956360,164.960587 
	C373.064667,160.949753 373.173004,156.938904 373.321564,152.173782 
	C373.328918,150.932770 373.336304,149.691772 373.918091,147.913177 
	C374.179840,146.328094 374.760895,144.720123 374.649139,143.161850 
	C374.113342,135.692368 373.390045,128.236328 372.874786,120.933456 
	C372.874786,120.933456 372.772949,120.747490 373.505035,121.001686 
	C374.185455,120.206497 374.865875,119.411308 375.631775,118.570862 
	C375.631775,118.570862 375.668243,118.481262 376.266663,118.824898 
	C376.945801,118.105072 377.624939,117.385254 378.786530,116.315712 
	C379.159027,116.180885 379.531525,116.046059 380.577240,116.200623 
	C381.052002,116.100609 381.526794,116.000587 382.757782,115.920837 
	C383.740143,115.156334 384.722504,114.391830 386.123779,113.433327 
	C386.123779,113.433327 386.584412,113.403366 387.290985,113.898872 
	C388.148895,113.958832 389.006775,114.018791 390.088654,114.563690 
	C390.751007,114.448128 391.413391,114.332558 393.002747,114.531624 
	C393.959015,114.407768 394.915314,114.283913 396.435242,113.890465 
	C396.427948,113.290459 396.420654,112.690445 396.587982,111.558403 
M503.364197,275.231415 
	C506.221680,269.714752 509.403107,264.275665 507.573639,256.865936 
	C507.625244,255.580124 507.676819,254.294296 508.407166,252.634949 
	C508.795349,251.289459 509.523804,249.940628 509.510529,248.599121 
	C509.463043,243.787445 509.184998,238.977280 508.957001,234.168304 
	C508.421875,222.879761 502.437775,216.092026 491.293091,215.494858 
	C485.681824,215.194183 479.882965,216.163467 474.335022,217.341064 
	C459.083710,220.578308 446.388245,228.248856 436.686829,240.569077 
	C435.857605,241.622147 435.751740,243.244843 434.949371,245.203445 
	C434.808380,245.389557 434.667419,245.575684 433.986877,245.204025 
	C432.724823,246.497498 431.462799,247.790955 429.550262,249.282364 
	C423.450226,257.941650 417.120544,266.450073 411.307159,275.297729 
	C403.727997,286.832855 397.303314,299.046173 394.725677,312.747589 
	C391.945801,327.524017 398.555023,340.744446 414.149994,344.061462 
	C428.369934,347.086090 440.897034,341.600128 453.844604,335.066223 
	C454.693085,334.203949 455.541565,333.341675 456.876160,332.092590 
	C457.061249,331.999695 457.246307,331.906799 458.007599,332.378143 
	C458.447601,331.725494 458.887604,331.072845 459.708923,330.082153 
	C460.016327,329.941101 460.323730,329.800018 461.344269,329.943817 
	C464.521606,327.683777 468.226868,325.900085 470.776794,323.073914 
	C478.258667,314.781677 485.324188,306.110352 492.423218,297.480927 
	C493.214569,296.519012 493.173553,294.872375 493.738983,292.974304 
	C494.330261,292.149384 494.921539,291.324463 496.129089,290.748993 
	C496.561737,290.401886 496.994385,290.054779 497.427032,289.707672 
	C497.119995,289.459442 496.812927,289.211212 496.791962,288.272614 
	C498.285919,285.226257 499.779877,282.179932 501.903931,279.162445 
	C502.303650,278.059753 502.703339,276.957031 503.364197,275.231415 
M898.764832,233.809631 
	C900.082153,232.355927 901.460938,230.952805 902.706238,229.439865 
	C908.319092,222.620941 913.899292,215.775131 919.480103,208.929886 
	C921.553284,206.386963 923.913635,204.009476 925.584106,201.221680 
	C928.747375,195.942596 927.717407,189.341217 923.204773,184.806488 
	C919.257568,182.297638 915.148987,183.368637 911.402588,184.893692 
	C893.824951,192.049286 875.320862,194.877655 856.655518,196.947556 
	C850.073853,197.677429 843.383484,197.540619 836.845886,198.501312 
	C834.064758,198.910004 832.120972,199.051788 830.309753,196.757111 
	C822.742493,187.170029 806.646484,192.016464 802.940063,201.193893 
	C798.866943,211.279129 794.213074,221.250214 791.403259,231.698898 
	C786.349792,250.490814 785.200684,269.847198 786.172852,289.283264 
	C786.507385,295.972107 787.531860,302.581635 792.011658,307.947601 
	C797.414734,314.419556 807.533875,316.910553 814.739685,313.537872 
	C821.848816,310.210388 827.145630,302.266418 825.718323,291.546417 
	C824.870361,285.177948 823.914001,278.503693 824.909973,272.271179 
	C827.680420,254.935043 831.382141,237.744797 834.938477,220.542892 
	C835.222717,219.168228 837.036011,217.427597 838.442749,217.077087 
	C848.047913,214.683731 857.728271,212.588913 867.400635,210.472107 
	C869.048340,210.111496 870.774292,210.108047 873.676819,209.818726 
	C868.178467,216.402039 863.282349,221.746185 858.971313,227.526581 
	C847.739258,242.586929 841.220825,259.299347 842.133484,278.433502 
	C842.947815,295.505035 854.359802,310.012390 870.350159,311.489990 
	C883.149353,312.672699 896.314392,312.450928 909.070007,310.865234 
	C923.149536,309.114929 936.996765,305.306427 950.853638,302.009583 
	C964.070007,298.865112 977.315613,295.688599 990.249207,291.583527 
	C995.712952,289.849365 1001.029724,286.380157 1005.302795,282.482208 
	C1010.880737,277.393951 1009.903442,269.734772 1003.315613,266.136993 
	C998.689087,263.610321 993.113892,261.605286 987.942810,261.559204 
	C978.863037,261.478271 969.759766,262.999969 960.681824,263.991943 
	C949.108704,265.256531 937.546204,266.623352 925.988098,268.019684 
	C918.224609,268.957520 910.480164,270.052460 902.720276,271.021240 
	C897.334412,271.693604 891.946472,272.388062 886.540039,272.841003 
	C883.862122,273.065369 882.392090,271.847260 883.468872,268.863007 
	C885.292908,263.807678 886.812378,258.623962 888.937561,253.700439 
	C891.789062,247.094208 895.094849,240.684097 898.764832,233.809631 
M554.580566,229.267303 
	C564.565857,228.681274 564.562500,228.682449 567.973755,238.448685 
	C568.302856,239.390762 568.732300,240.297501 569.070435,241.236725 
	C570.952637,246.464203 570.384583,250.782043 566.480225,255.421600 
	C556.641479,267.112793 547.107483,279.107361 538.223389,291.532379 
	C534.546875,296.674286 532.457825,303.094055 530.362671,309.179108 
	C528.652405,314.146240 529.398682,319.130737 533.951599,322.719025 
	C537.287231,325.347870 542.535156,325.003845 547.456238,321.840302 
	C550.246155,320.046783 553.011536,318.194855 555.646423,316.183807 
	C572.142700,303.592926 584.213562,288.023132 588.519836,267.219574 
	C589.079529,264.515778 589.287476,261.145569 590.995239,259.369385 
	C602.108521,247.810959 614.875977,238.670181 630.774597,234.793732 
	C635.437927,233.656708 636.514282,234.853958 635.518982,239.685410 
	C632.970337,252.057510 629.998657,264.356598 627.911316,276.804810 
	C626.465759,285.425110 625.062195,294.332855 625.723755,302.952209 
	C626.480591,312.813049 633.324829,318.346985 642.026855,318.924896 
	C650.041077,319.457153 657.058533,314.270721 659.849365,305.052856 
	C661.674255,299.025146 662.576233,292.724701 664.162598,286.616791 
	C669.203979,267.206970 670.557678,247.695801 667.484558,227.756134 
	C665.105896,212.322479 655.275269,202.990494 639.676697,203.839386 
	C633.811768,204.158585 627.800842,205.685089 622.288025,207.790924 
	C610.155579,212.425476 600.209900,220.624374 590.604065,229.142273 
	C587.496643,231.897690 585.620850,232.277191 583.568970,227.967529 
	C581.880005,224.420120 579.558167,221.021866 576.905029,218.116150 
	C570.677246,211.295609 562.380310,210.644669 555.742615,216.978500 
	C551.819153,220.722321 549.135620,225.765457 545.894470,230.224289 
	C546.239197,230.576462 546.583923,230.928635 546.928589,231.280823 
	C549.196350,230.635544 551.464050,229.990265 554.580566,229.267303 
M725.180237,204.673981 
	C723.399414,207.811600 720.904541,210.753387 719.979675,214.125748 
	C717.743164,222.280670 716.294556,230.649033 714.427429,238.908554 
	C711.155945,253.379990 708.575317,267.951508 709.326965,282.852997 
	C709.575684,287.783203 710.466614,292.770050 711.786316,297.530762 
	C712.972351,301.809631 716.274536,304.634583 720.883728,304.921661 
	C725.234131,305.192657 727.861328,302.358948 729.768005,298.793304 
	C730.315491,297.769470 730.833618,296.718231 731.240967,295.632935 
	C737.138062,279.921692 743.224487,264.276978 748.821411,248.459198 
	C752.594116,237.796936 755.917969,226.964432 753.643250,215.308624 
	C750.894470,201.223862 737.361938,195.774094 725.180237,204.673981 
M757.046448,115.894348 
	C755.993042,113.303925 755.371826,110.406471 753.795410,108.187599 
	C750.604187,103.695930 744.741455,102.027161 740.001282,103.951714 
	C735.893860,105.619385 733.170044,108.963165 734.109741,113.310585 
	C735.347229,119.035118 733.879639,123.969437 732.149475,129.226151 
	C729.950562,135.906998 733.570923,140.286179 740.604126,140.474472 
	C743.244507,140.545151 745.904358,140.828537 748.504028,141.298569 
	C755.589478,142.579712 761.484802,136.782562 760.074768,129.715134 
	C759.205017,125.355682 758.173706,121.028465 757.046448,115.894348 
z"/>
<path fill="#060606" opacity="1.000000" stroke="none" 
	d="
M369.974243,103.817696 
	C370.533173,103.703758 371.092102,103.589821 372.304138,103.516098 
	C374.630890,103.396622 376.304535,103.236916 378.281006,103.234947 
	C380.744263,103.671150 382.904755,103.949615 385.354370,104.368286 
	C386.040558,104.414436 386.437592,104.320374 386.834656,104.226303 
	C387.671722,104.580727 388.508820,104.935135 389.705200,105.709808 
	C390.582520,106.226593 391.100555,106.323105 391.618591,106.419617 
	C392.518127,107.534782 393.417664,108.649948 394.334412,110.326172 
	C394.514557,111.267883 394.677460,111.648537 394.906158,112.426483 
	C395.271851,113.269203 395.571716,113.714630 395.871582,114.160049 
	C394.915314,114.283913 393.959015,114.407768 392.563110,114.212425 
	C392.123474,113.893227 391.884827,113.669312 391.698242,113.381943 
	C389.869263,113.197510 388.226837,113.300438 386.584412,113.403366 
	C386.584412,113.403366 386.123779,113.433327 385.589417,113.372543 
	C384.369598,113.497231 383.684143,113.682701 382.652222,113.842339 
	C381.505188,114.514755 380.704620,115.213005 379.904022,115.911240 
	C379.531525,116.046059 379.159027,116.180885 378.267273,116.324432 
	C377.054749,117.049179 376.361511,117.765221 375.668243,118.481262 
	C375.668243,118.481262 375.631775,118.570862 375.256012,118.502884 
	C374.177826,119.205765 373.475403,119.976631 372.772949,120.747498 
	C372.772949,120.747490 372.874786,120.933456 372.523804,120.776131 
	C371.762421,120.999573 371.352020,121.380333 370.635315,121.880829 
	C370.741302,123.913292 371.153534,125.826035 371.490082,128.014618 
	C371.543213,128.838821 371.672028,129.387192 371.658173,130.230927 
	C371.740387,131.994934 371.965240,133.463547 372.094971,135.312561 
	C372.191986,137.890366 372.384125,140.087784 372.312103,142.574829 
	C371.957642,146.256516 371.867340,149.648544 371.668121,153.477844 
	C371.577545,157.091263 371.595856,160.267410 371.344543,163.729248 
	C370.664703,174.031021 370.254486,184.047104 369.725342,194.400299 
	C369.748779,195.165909 369.891144,195.594406 370.033539,196.022903 
	C370.033539,196.022903 370.022736,195.971039 369.677673,195.964233 
	C369.146606,197.318970 368.960571,198.680511 368.649048,200.430389 
	C368.606262,202.145004 368.688965,203.471298 368.771637,204.797607 
	C368.771637,204.797607 368.729553,204.827560 368.394592,204.884399 
	C367.885101,205.981049 367.710571,207.020844 367.363098,208.373535 
	C367.201996,209.156860 367.213837,209.627319 367.001007,210.382797 
	C366.435181,213.121933 366.094025,215.576050 365.575165,218.386200 
	C365.363739,219.530121 365.329987,220.318024 365.049866,221.317703 
	C364.498871,223.367416 364.194214,225.205322 363.763123,227.372803 
	C363.756165,228.133713 363.875580,228.565063 363.995026,228.996399 
	C363.995026,228.996399 363.989441,228.945145 363.630585,228.974335 
	C363.053528,230.025040 362.835358,231.046570 362.430542,232.406830 
	C362.205780,233.510742 362.167633,234.275940 361.905945,235.257324 
	C361.389496,237.004593 361.096588,238.535675 360.676056,240.326599 
	C360.569458,241.154099 360.590454,241.721771 360.338684,242.536591 
	C359.299438,245.871445 358.532959,248.959106 357.551758,252.377686 
	C357.267914,253.486130 357.198730,254.263702 356.899811,255.251801 
	C356.363678,257.002594 356.057251,258.542847 355.613220,260.409088 
	C355.559875,261.405548 355.644196,262.075989 355.728485,262.746460 
	C355.728485,262.746460 355.706573,262.847076 355.344299,262.884460 
	C354.162048,265.959869 353.342102,268.997864 352.345459,272.342468 
	C352.158264,273.115479 352.147797,273.581848 351.905243,274.271179 
	C351.394836,275.690552 351.116486,276.886932 350.640259,278.421814 
	C350.385742,279.535553 350.329071,280.310852 350.024689,281.278198 
	C349.454468,283.001831 349.131958,284.533356 348.671478,286.365387 
	C348.639008,287.069183 348.744507,287.472504 348.849976,287.875824 
	C348.850006,287.875824 348.837677,287.830933 348.465820,287.878723 
	C347.297333,290.633301 346.500671,293.340088 345.508881,296.349976 
	C345.287781,297.126617 345.261810,297.600189 345.014954,298.262878 
	C344.479065,299.651459 344.164093,300.850922 343.690613,302.365540 
	C343.586426,303.352203 343.640747,304.023712 343.695068,304.695190 
	C343.695068,304.695190 343.692413,304.787476 343.341187,304.816040 
	C342.584259,306.591919 342.178619,308.339172 341.646698,310.398254 
	C341.647064,311.114410 341.773712,311.518768 341.900360,311.923096 
	C341.900360,311.923096 341.898895,311.865021 341.531555,311.899994 
	C340.978973,312.978943 340.793701,314.022919 340.430206,315.433960 
	C340.225983,316.882202 340.200012,317.963348 339.950745,319.282593 
	C339.441071,321.361938 339.154663,323.203247 338.745789,325.250000 
	C338.505554,325.779327 338.536652,326.088165 338.451935,326.607391 
	C337.982544,327.901154 337.777863,328.969513 337.375671,330.423859 
	C337.174988,332.534851 337.171783,334.259857 337.005310,336.300995 
	C336.194427,338.405182 335.546783,340.193237 334.707336,342.061584 
	C334.260559,342.286011 334.090546,342.498169 333.616974,342.839905 
	C331.327087,343.279053 329.425690,343.656555 327.524261,344.034088 
	C327.283936,343.954041 327.064331,343.835602 326.664673,343.312378 
	C317.702209,335.490967 312.667969,326.098358 313.659790,314.519073 
	C314.706757,302.295868 315.582642,289.868164 318.555023,278.037750 
	C325.592834,250.026321 334.556030,222.491699 338.777069,193.803085 
	C340.724792,180.565063 342.623413,167.319809 344.707672,152.951508 
	C343.003204,154.426605 341.985809,155.018829 341.360199,155.891830 
	C332.255524,168.596741 322.275146,180.790131 314.344727,194.194748 
	C300.690796,217.273651 282.987274,237.159134 266.460114,257.969940 
	C257.563568,269.172363 244.533951,267.717468 237.469864,255.225052 
	C232.897400,247.138916 228.859207,238.741074 224.793701,230.379776 
	C215.057602,210.356094 205.481155,190.254807 195.752472,170.227493 
	C194.077103,166.778610 191.969589,163.539627 190.061707,160.203674 
	C188.360977,162.853333 187.707840,165.223129 187.305893,167.634811 
	C185.038422,181.239853 183.460037,194.994751 180.471268,208.437210 
	C174.452240,235.508743 168.026489,262.502686 161.076050,289.349304 
	C157.170822,304.433533 152.077133,319.224609 147.140289,334.021454 
	C144.443100,342.105560 137.907501,345.926361 130.593475,344.237366 
	C123.977478,342.709503 120.898849,337.526245 119.147186,331.585052 
	C116.268059,321.819794 117.856209,312.149261 120.336555,302.537415 
	C127.472778,274.883087 134.582230,247.221741 141.660263,219.552429 
	C146.678009,199.937210 150.986694,180.111115 156.830811,160.747025 
	C160.792831,147.619110 163.965637,133.606308 176.715897,124.956093 
	C180.760727,122.211929 184.628876,120.748566 188.590988,123.475876 
	C192.627838,126.254623 196.826187,129.475998 199.463165,133.484253 
	C207.397720,145.544861 215.020676,157.854263 221.997879,170.490295 
	C231.713501,188.085724 240.774124,206.044205 250.015854,223.898666 
	C251.753403,227.255493 253.217102,227.775635 255.717361,224.579910 
	C268.628967,208.076843 281.999939,191.919479 294.515350,175.123413 
	C313.014923,150.296341 333.041107,127.143379 359.403198,110.239601 
	C359.881622,109.932816 360.056854,109.153145 360.373566,108.594131 
	C360.373566,108.594139 360.418488,108.490776 360.717926,108.590149 
	C361.531250,108.237610 362.045135,107.785698 362.559052,107.333786 
	C362.936127,107.115952 363.313232,106.898125 364.336365,106.583572 
	C365.961273,106.081047 366.940216,105.675262 368.213379,105.356766 
	C368.996490,104.901932 369.485352,104.359810 369.974243,103.817696 
z"/>
<path fill="#0A0A0A" opacity="1.000000" stroke="none" 
	d="
M554.156128,229.306152 
	C551.464050,229.990265 549.196350,230.635544 546.928589,231.280823 
	C546.583923,230.928635 546.239197,230.576462 545.894470,230.224289 
	C549.135620,225.765457 551.819153,220.722321 555.742615,216.978500 
	C562.380310,210.644669 570.677246,211.295609 576.905029,218.116150 
	C579.558167,221.021866 581.880005,224.420120 583.568970,227.967529 
	C585.620850,232.277191 587.496643,231.897690 590.604065,229.142273 
	C600.209900,220.624374 610.155579,212.425476 622.288025,207.790924 
	C627.800842,205.685089 633.811768,204.158585 639.676697,203.839386 
	C655.275269,202.990494 665.105896,212.322479 667.484558,227.756134 
	C670.557678,247.695801 669.203979,267.206970 664.162598,286.616791 
	C662.576233,292.724701 661.674255,299.025146 659.849365,305.052856 
	C657.058533,314.270721 650.041077,319.457153 642.026855,318.924896 
	C633.324829,318.346985 626.480591,312.813049 625.723755,302.952209 
	C625.062195,294.332855 626.465759,285.425110 627.911316,276.804810 
	C629.998657,264.356598 632.970337,252.057510 635.518982,239.685410 
	C636.514282,234.853958 635.437927,233.656708 630.774597,234.793732 
	C614.875977,238.670181 602.108521,247.810959 590.995239,259.369385 
	C589.287476,261.145569 589.079529,264.515778 588.519836,267.219574 
	C584.213562,288.023132 572.142700,303.592926 555.646423,316.183807 
	C553.011536,318.194855 550.246155,320.046783 547.456238,321.840302 
	C542.535156,325.003845 537.287231,325.347870 533.951599,322.719025 
	C529.398682,319.130737 528.652405,314.146240 530.362671,309.179108 
	C532.457825,303.094055 534.546875,296.674286 538.223389,291.532379 
	C547.107483,279.107361 556.641479,267.112793 566.480225,255.421600 
	C570.384583,250.782043 570.952637,246.464203 569.070435,241.236725 
	C568.732300,240.297501 568.302856,239.390762 567.973755,238.448685 
	C564.562500,228.682449 564.565857,228.681274 554.156128,229.306152 
z"/>
<path fill="#0B0B0B" opacity="1.000000" stroke="none" 
	d="
M507.728394,253.008484 
	C507.676819,254.294296 507.625244,255.580124 507.227295,257.404602 
	C505.173340,264.272919 503.465668,270.602600 501.511597,277.140656 
	C501.268097,277.943909 501.270966,278.538727 501.273834,279.133575 
	C499.779877,282.179932 498.285919,285.226257 496.357483,288.614380 
	C495.786285,289.470612 495.649567,289.985046 495.512817,290.499512 
	C494.921539,291.324463 494.330261,292.149384 493.306580,293.351135 
	C491.613678,295.258453 490.390472,296.821564 489.086487,298.314117 
	C481.697510,306.771606 474.326355,315.245300 466.861694,323.635681 
	C464.947052,325.787750 462.716522,327.658813 460.631104,329.658936 
	C460.323730,329.800018 460.016327,329.941101 459.246887,330.178589 
	C458.333710,330.787994 457.882568,331.300964 457.431396,331.813904 
	C457.246307,331.906799 457.061249,331.999695 456.318665,332.200623 
	C454.830994,332.828033 453.900848,333.347382 452.597656,333.906738 
	C447.577942,335.741425 443.011749,337.794312 438.266632,339.273254 
	C430.114746,341.813965 421.701447,343.755737 413.232941,341.476501 
	C400.053131,337.929199 393.113831,324.529694 397.892181,310.401428 
	C401.379211,300.091278 405.829224,289.936005 411.201080,280.479187 
	C417.331421,269.687164 424.960388,259.746429 432.211914,249.337067 
	C433.165985,248.079529 433.846222,246.920654 434.526489,245.761795 
	C434.667419,245.575684 434.808380,245.389557 435.436096,244.927475 
	C437.070801,243.467422 438.340820,242.378387 439.348022,241.084747 
	C451.057495,226.045883 467.592743,220.020920 485.476501,217.456894 
	C497.047974,215.797867 508.438873,222.217667 507.068787,237.229324 
	C506.594543,242.425690 507.469666,247.745224 507.728394,253.008484 
M429.563324,297.050751 
	C428.050415,300.558624 426.106232,303.953125 425.145691,307.606232 
	C424.181519,311.273376 424.197693,315.198273 423.784210,319.010223 
	C428.143066,319.435364 432.501282,319.867218 436.862061,320.271606 
	C437.175476,320.300690 437.513458,320.148285 437.829956,320.048340 
	C455.059387,314.609009 469.656189,305.150940 481.070099,291.107269 
	C492.861816,276.598846 497.593231,259.903137 495.519379,241.319748 
	C495.112671,237.675049 494.067627,233.442871 489.352386,234.994064 
	C473.816345,240.105042 459.254974,247.516724 449.802063,261.294434 
	C442.222992,272.341064 436.462158,284.635193 429.563324,297.050751 
z"/>
<path fill="#9C9C9C" opacity="1.000000" stroke="none" 
	d="
M360.036652,108.382904 
	C360.056854,109.153145 359.881622,109.932816 359.403198,110.239601 
	C333.041107,127.143379 313.014923,150.296341 294.515350,175.123413 
	C281.999939,191.919479 268.628967,208.076843 255.717361,224.579910 
	C253.217102,227.775635 251.753403,227.255493 250.015854,223.898666 
	C240.774124,206.044205 231.713501,188.085724 221.997879,170.490295 
	C215.020676,157.854263 207.397720,145.544861 199.463165,133.484253 
	C196.826187,129.475998 192.627838,126.254623 188.590988,123.475876 
	C184.628876,120.748566 180.760727,122.211929 176.715897,124.956093 
	C163.965637,133.606308 160.792831,147.619110 156.830811,160.747025 
	C150.986694,180.111115 146.678009,199.937210 141.660263,219.552429 
	C134.582230,247.221741 127.472778,274.883087 120.336555,302.537415 
	C117.856209,312.149261 116.268059,321.819794 119.147186,331.585052 
	C120.898849,337.526245 123.977478,342.709503 130.593475,344.237366 
	C137.907501,345.926361 144.443100,342.105560 147.140289,334.021454 
	C152.077133,319.224609 157.170822,304.433533 161.076050,289.349304 
	C168.026489,262.502686 174.452240,235.508743 180.471268,208.437210 
	C183.460037,194.994751 185.038422,181.239853 187.305893,167.634811 
	C187.707840,165.223129 188.360977,162.853333 190.061707,160.203674 
	C191.969589,163.539627 194.077103,166.778610 195.752472,170.227493 
	C205.481155,190.254807 215.057602,210.356094 224.793701,230.379776 
	C228.859207,238.741074 232.897400,247.138916 237.469864,255.225052 
	C244.533951,267.717468 257.563568,269.172363 266.460114,257.969940 
	C282.987274,237.159134 300.690796,217.273651 314.344727,194.194748 
	C322.275146,180.790131 332.255524,168.596741 341.360199,155.891830 
	C341.985809,155.018829 343.003204,154.426605 344.707672,152.951508 
	C342.623413,167.319809 340.724792,180.565063 338.777069,193.803085 
	C334.556030,222.491699 325.592834,250.026321 318.555023,278.037750 
	C315.582642,289.868164 314.706757,302.295868 313.659790,314.519073 
	C312.667969,326.098358 317.702209,335.490967 326.499268,343.220886 
	C325.238586,343.277191 323.484863,343.523132 322.718018,342.767517 
	C315.861847,336.011688 311.518585,328.476929 311.232758,318.126312 
	C310.653503,297.147461 316.081665,277.519409 321.605103,257.644196 
	C327.770325,235.459778 334.304565,213.288559 336.560181,190.185577 
	C337.284698,182.764893 338.769806,175.419205 339.866028,168.033127 
	C340.001831,167.117966 339.884583,166.165253 338.855652,164.560913 
	C335.118103,169.424149 331.149963,174.129654 327.691925,179.184097 
	C320.937347,189.057053 314.852570,199.407013 307.788086,209.044632 
	C297.778015,222.700790 287.216034,235.957123 276.717255,249.247925 
	C272.608398,254.449493 268.560364,259.906921 263.549500,264.141266 
	C255.276123,271.132538 242.893875,268.994690 237.208435,259.324677 
	C230.671280,248.206024 225.160049,236.471329 219.446762,224.884140 
	C210.505219,206.749710 201.777496,188.509888 192.919785,170.333908 
	C192.427750,169.324219 191.577026,168.489319 190.296524,166.773499 
	C188.656052,176.214951 187.302094,184.907364 185.612167,193.533997 
	C182.680283,208.500305 179.672836,223.454514 176.447464,238.359802 
	C173.711807,251.001953 171.054199,263.687775 167.585938,276.138062 
	C162.928925,292.855652 157.626770,309.397461 152.378815,325.944122 
	C150.837097,330.805115 149.006226,335.696564 146.463913,340.085144 
	C143.677216,344.895599 139.145615,347.945648 133.214645,347.434265 
	C126.610863,346.864838 121.933701,343.481781 118.882057,337.415833 
	C113.670280,327.056030 114.343193,316.324890 117.076042,305.761871 
	C121.558960,288.434418 127.142128,271.390442 131.573318,254.051117 
	C135.214767,239.802002 137.548157,225.222519 141.019592,210.925003 
	C145.404984,192.863281 150.172485,174.887741 155.159973,156.982224 
	C157.012589,150.331161 159.737793,143.891373 162.452148,137.520172 
	C165.869141,129.499725 172.529984,124.431900 180.003738,120.714691 
	C185.310745,118.075142 194.103195,121.759209 198.373642,128.076675 
	C203.595230,135.801178 208.419662,143.797043 213.324326,151.732117 
	C218.481430,160.075577 223.763885,168.355148 228.552795,176.908310 
	C232.379852,183.743591 235.534790,190.954285 239.013916,197.985550 
	C242.374023,204.776276 245.720566,211.574570 249.178528,218.315430 
	C250.047379,220.009140 251.320145,221.495636 252.961929,223.884338 
	C256.787689,219.026047 260.123566,214.799347 263.449402,210.564743 
	C277.456390,192.730438 291.204803,174.684631 305.563934,157.138580 
	C313.809113,147.063416 322.422577,137.116577 332.018555,128.372101 
	C340.411804,120.723602 350.410370,114.836761 360.036652,108.382904 
z"/>
<path fill="#0A0A0A" opacity="1.000000" stroke="none" 
	d="
M725.432739,204.433243 
	C737.361938,195.774094 750.894470,201.223862 753.643250,215.308624 
	C755.917969,226.964432 752.594116,237.796936 748.821411,248.459198 
	C743.224487,264.276978 737.138062,279.921692 731.240967,295.632935 
	C730.833618,296.718231 730.315491,297.769470 729.768005,298.793304 
	C727.861328,302.358948 725.234131,305.192657 720.883728,304.921661 
	C716.274536,304.634583 712.972351,301.809631 711.786316,297.530762 
	C710.466614,292.770050 709.575684,287.783203 709.326965,282.852997 
	C708.575317,267.951508 711.155945,253.379990 714.427429,238.908554 
	C716.294556,230.649033 717.743164,222.280670 719.979675,214.125748 
	C720.904541,210.753387 723.399414,207.811600 725.432739,204.433243 
z"/>
<path fill="#A2A2A2" opacity="1.000000" stroke="none" 
	d="
M898.205566,234.189789 
	C895.094849,240.684097 891.789062,247.094208 888.937561,253.700439 
	C886.812378,258.623962 885.292908,263.807678 883.468872,268.863007 
	C882.392090,271.847260 883.862122,273.065369 886.540039,272.841003 
	C891.946472,272.388062 897.334412,271.693604 902.720276,271.021240 
	C910.480164,270.052460 918.224609,268.957520 925.988098,268.019684 
	C937.546204,266.623352 949.108704,265.256531 960.681824,263.991943 
	C969.759766,262.999969 978.863037,261.478271 987.942810,261.559204 
	C993.113892,261.605286 998.689087,263.610321 1003.315613,266.136993 
	C1009.903442,269.734772 1010.880737,277.393951 1005.302795,282.482208 
	C1001.029724,286.380157 995.712952,289.849365 990.249207,291.583527 
	C977.315613,295.688599 964.070007,298.865112 950.853638,302.009583 
	C936.996765,305.306427 923.149536,309.114929 909.070007,310.865234 
	C896.314392,312.450928 883.149353,312.672699 870.350159,311.489990 
	C854.359802,310.012390 842.947815,295.505035 842.133484,278.433502 
	C841.220825,259.299347 847.739258,242.586929 858.971313,227.526581 
	C863.282349,221.746185 868.178467,216.402039 873.676819,209.818726 
	C870.774292,210.108047 869.048340,210.111496 867.400635,210.472107 
	C857.728271,212.588913 848.047913,214.683731 838.442749,217.077087 
	C837.036011,217.427597 835.222717,219.168228 834.938477,220.542892 
	C831.382141,237.744797 827.680420,254.935043 824.909973,272.271179 
	C823.914001,278.503693 824.870361,285.177948 825.718323,291.546417 
	C827.145630,302.266418 821.848816,310.210388 814.739685,313.537872 
	C807.533875,316.910553 797.414734,314.419556 792.011658,307.947601 
	C787.531860,302.581635 786.507385,295.972107 786.172852,289.283264 
	C785.200684,269.847198 786.349792,250.490814 791.403259,231.698898 
	C794.213074,221.250214 798.866943,211.279129 802.940063,201.193893 
	C806.646484,192.016464 822.742493,187.170029 830.309753,196.757111 
	C832.120972,199.051788 834.064758,198.910004 836.845886,198.501312 
	C843.383484,197.540619 850.073853,197.677429 856.655518,196.947556 
	C875.320862,194.877655 893.824951,192.049286 911.402588,184.893692 
	C915.148987,183.368637 919.257568,182.297638 923.213989,185.285156 
	C923.223267,185.763824 922.912781,186.090759 922.473511,186.043304 
	C918.452209,186.407059 914.771240,186.427322 911.307434,187.304916 
	C902.000610,189.662827 892.923889,193.205948 883.505371,194.784653 
	C867.125244,197.530258 850.565735,199.230743 834.052856,201.119293 
	C832.496399,201.297302 830.370483,200.071533 829.130432,198.860931 
	C821.027832,190.950912 810.219849,192.300781 805.238708,202.538834 
	C801.542908,210.135132 797.875427,217.985718 795.926819,226.136948 
	C792.770874,239.339218 790.174194,252.804337 788.971252,266.303741 
	C787.994995,277.258636 786.461060,288.563690 790.359741,299.475128 
	C792.731567,306.113159 797.212036,310.535095 804.094299,311.933350 
	C810.305542,313.195312 815.676025,311.001831 819.679260,306.128815 
	C823.666748,301.274963 823.547913,295.582001 823.145569,289.557648 
	C822.618042,281.661804 822.239319,273.554718 823.427917,265.788177 
	C825.761780,250.538666 829.137756,235.443710 832.333374,220.337845 
	C832.695312,218.626785 834.392090,216.343567 835.936035,215.880753 
	C843.843872,213.510330 851.885315,211.569183 859.920288,209.646439 
	C863.632446,208.758148 867.425964,208.186478 871.202026,207.595856 
	C874.361511,207.101685 877.549377,206.788818 881.456848,206.304993 
	C874.799744,213.491486 868.601624,219.507431 863.190796,226.163376 
	C851.781738,240.197845 844.856018,256.121796 844.398926,274.514893 
	C843.985229,291.161011 851.957947,303.311768 867.553162,308.404205 
	C872.197998,309.920990 877.447693,310.744873 882.280273,310.314514 
	C898.002319,308.914307 913.840576,307.713959 929.294678,304.697357 
	C947.372620,301.168549 965.153442,296.028625 982.936829,291.129150 
	C988.948364,289.472900 994.772949,286.793152 1000.305420,283.867310 
	C1003.819458,282.008881 1006.655273,278.717194 1005.961121,274.118439 
	C1005.253906,269.433350 1001.764465,266.901917 997.628296,265.746552 
	C993.835266,264.687042 989.771790,263.906769 985.869385,264.061554 
	C975.558228,264.470581 965.227722,265.091949 954.981140,266.283661 
	C934.148071,268.706696 913.369751,271.597168 892.556641,274.197235 
	C889.599731,274.566681 886.508789,274.772491 883.613220,274.276184 
	C882.454712,274.077637 880.604675,271.525574 880.854797,270.466614 
	C884.011292,257.107391 889.625427,244.797989 897.696472,233.710754 
	C897.866028,233.870575 898.205566,234.189774 898.205566,234.189789 
z"/>
<path fill="#111111" opacity="1.000000" stroke="none" 
	d="
M757.130676,116.290558 
	C758.173706,121.028465 759.205017,125.355682 760.074768,129.715134 
	C761.484802,136.782562 755.589478,142.579712 748.504028,141.298569 
	C745.904358,140.828537 743.244507,140.545151 740.604126,140.474472 
	C733.570923,140.286179 729.950562,135.906998 732.149475,129.226151 
	C733.879639,123.969437 735.347229,119.035118 734.109741,113.310585 
	C733.170044,108.963165 735.893860,105.619385 740.001282,103.951714 
	C744.741455,102.027161 750.604187,103.695930 753.795410,108.187599 
	C755.371826,110.406471 755.993042,113.303925 757.130676,116.290558 
z"/>
<path fill="#989898" opacity="1.000000" stroke="none" 
	d="
M431.938049,249.435760 
	C424.960388,259.746429 417.331421,269.687164 411.201080,280.479187 
	C405.829224,289.936005 401.379211,300.091278 397.892181,310.401428 
	C393.113831,324.529694 400.053131,337.929199 413.232941,341.476501 
	C421.701447,343.755737 430.114746,341.813965 438.266632,339.273254 
	C443.011749,337.794312 447.577942,335.741425 452.631134,334.231079 
	C453.054474,334.731873 453.071320,334.948395 453.088165,335.164948 
	C440.897034,341.600128 428.369934,347.086090 414.149994,344.061462 
	C398.555023,340.744446 391.945801,327.524017 394.725677,312.747589 
	C397.303314,299.046173 403.727997,286.832855 411.307159,275.297729 
	C417.120544,266.450073 423.450226,257.941650 430.312561,249.255112 
	C431.362610,249.297150 431.650330,249.366455 431.938049,249.435760 
z"/>
<path fill="#9E9E9E" opacity="1.000000" stroke="none" 
	d="
M508.067780,252.821716 
	C507.469666,247.745224 506.594543,242.425690 507.068787,237.229324 
	C508.438873,222.217667 497.047974,215.797867 485.476501,217.456894 
	C467.592743,220.020920 451.057495,226.045883 439.348022,241.084747 
	C438.340820,242.378387 437.070801,243.467422 435.616302,244.627197 
	C435.751740,243.244843 435.857605,241.622147 436.686829,240.569077 
	C446.388245,228.248856 459.083710,220.578308 474.335022,217.341064 
	C479.882965,216.163467 485.681824,215.194183 491.293091,215.494858 
	C502.437775,216.092026 508.421875,222.879761 508.957001,234.168304 
	C509.184998,238.977280 509.463043,243.787445 509.510529,248.599121 
	C509.523804,249.940628 508.795349,251.289459 508.067780,252.821716 
z"/>
<path fill="#A2A2A2" opacity="1.000000" stroke="none" 
	d="
M923.389893,185.612000 
	C927.717407,189.341217 928.747375,195.942596 925.584106,201.221680 
	C923.913635,204.009476 921.553284,206.386963 919.480103,208.929886 
	C913.899292,215.775131 908.319092,222.620941 902.706238,229.439865 
	C901.460938,230.952805 900.082153,232.355927 898.485229,233.999695 
	C898.205566,234.189774 897.866028,233.870575 897.791016,233.378555 
	C898.814575,231.245102 899.790405,229.503708 901.031982,227.978714 
	C908.218140,219.152252 915.634277,210.507156 922.627441,201.531723 
	C926.385254,196.708710 927.039246,191.314331 922.912781,186.090759 
	C922.912781,186.090759 923.223267,185.763824 923.389893,185.612000 
z"/>
<path fill="#A9A9A9" opacity="1.000000" stroke="none" 
	d="
M460.987671,329.801392 
	C462.716522,327.658813 464.947052,325.787750 466.861694,323.635681 
	C474.326355,315.245300 481.697510,306.771606 489.086487,298.314117 
	C490.390472,296.821564 491.613678,295.258453 493.196350,293.635620 
	C493.173553,294.872375 493.214569,296.519012 492.423218,297.480927 
	C485.324188,306.110352 478.258667,314.781677 470.776794,323.073914 
	C468.226868,325.900085 464.521606,327.683777 460.987671,329.801392 
z"/>
<path fill="#ABABAB" opacity="1.000000" stroke="none" 
	d="
M372.576263,142.285187 
	C372.384125,140.087784 372.191986,137.890366 372.337463,135.058777 
	C372.383728,132.928253 372.092285,131.431900 371.800842,129.935547 
	C371.672028,129.387192 371.543213,128.838821 371.597351,127.584412 
	C371.500763,125.172615 371.221161,123.466858 370.941589,121.761093 
	C371.352020,121.380333 371.762421,120.999573 372.453125,120.697159 
	C373.390045,128.236328 374.113342,135.692368 374.649139,143.161850 
	C374.760895,144.720123 374.179840,146.328094 373.520569,147.670135 
	C372.940826,145.713120 372.758545,143.999161 372.576263,142.285187 
z"/>
<path fill="#9C9C9C" opacity="1.000000" stroke="none" 
	d="
M369.844269,194.063187 
	C370.254486,184.047104 370.664703,174.031021 371.551025,164.247543 
	C372.158325,164.827026 372.289490,165.173904 372.420654,165.520782 
	C372.455048,166.013657 372.489410,166.506531 372.337708,167.735352 
	C372.125092,173.026215 372.098572,177.581161 372.072083,182.136093 
	C372.085815,183.167221 372.099548,184.198334 371.780243,185.886536 
	C370.912903,189.050140 370.378601,191.556671 369.844269,194.063187 
z"/>
<path fill="#9E9E9E" opacity="1.000000" stroke="none" 
	d="
M501.758026,276.932251 
	C503.465668,270.602600 505.173340,264.272919 507.228699,257.790405 
	C509.403107,264.275665 506.221680,269.714752 503.075653,275.799194 
	C502.444092,276.555420 502.101044,276.743835 501.758026,276.932251 
z"/>
<path fill="#ABABAB" opacity="1.000000" stroke="none" 
	d="
M362.129486,235.041138 
	C362.167633,234.275940 362.205780,233.510742 362.683228,232.396194 
	C363.459778,232.020172 363.797089,231.993500 364.134369,231.966827 
	C362.982697,237.552490 361.831055,243.138168 360.311768,248.844818 
	C359.944153,248.965790 359.855560,248.907242 359.895081,248.495544 
	C360.160217,246.152359 360.385834,244.220901 360.611450,242.289429 
	C360.590454,241.721771 360.569458,241.154099 360.962616,240.151978 
	C361.627686,238.158722 361.878601,236.599930 362.129486,235.041138 
z"/>
<path fill="#ABABAB" opacity="1.000000" stroke="none" 
	d="
M338.716644,326.381989 
	C338.536652,326.088165 338.505554,325.779327 339.021423,325.081604 
	C339.944275,323.806000 340.469086,322.904327 340.993896,322.002655 
	C340.257965,326.568268 339.522034,331.133850 338.223450,335.847900 
	C337.660767,335.996368 337.168579,335.984863 337.168579,335.984863 
	C337.171783,334.259857 337.174988,332.534851 337.696960,330.285126 
	C338.382721,328.634277 338.549683,327.508118 338.716644,326.381989 
z"/>
<path fill="#ABABAB" opacity="1.000000" stroke="none" 
	d="
M372.391846,181.928223 
	C372.098572,177.581161 372.125092,173.026215 372.253784,167.970200 
	C372.474457,172.219528 372.593018,176.969925 372.391846,181.928223 
z"/>
<path fill="#ABABAB" opacity="1.000000" stroke="none" 
	d="
M357.129517,255.041260 
	C357.198730,254.263702 357.267914,253.486130 357.807007,252.266846 
	C358.803101,250.852493 359.329315,249.879868 359.855560,248.907242 
	C359.855560,248.907242 359.944153,248.965790 359.988251,248.995621 
	C358.843079,253.625366 357.653809,258.225250 356.096497,262.785828 
	C355.644196,262.075989 355.559875,261.405548 355.905334,260.237244 
	C356.599915,258.173370 356.864746,256.607300 357.129517,255.041260 
z"/>
<path fill="#ABABAB" opacity="1.000000" stroke="none" 
	d="
M372.688507,165.240692 
	C372.289490,165.173904 372.158325,164.827026 371.820679,163.961853 
	C371.595856,160.267410 371.577545,157.091263 372.044586,153.454239 
	C372.780426,152.971588 373.030853,152.949829 373.281311,152.928070 
	C373.173004,156.938904 373.064667,160.949753 372.688507,165.240692 
z"/>
<path fill="#ABABAB" opacity="1.000000" stroke="none" 
	d="
M344.056885,304.754944 
	C343.640747,304.023712 343.586426,303.352203 343.966370,302.217773 
	C344.679016,300.527802 344.957428,299.300781 345.235840,298.073761 
	C345.261810,297.600189 345.287781,297.126617 345.773071,296.243073 
	C346.832733,294.893219 347.433075,293.953339 348.033386,293.013489 
	C346.828522,296.947235 345.623627,300.880951 344.056885,304.754944 
z"/>
<path fill="#ABABAB" opacity="1.000000" stroke="none" 
	d="
M349.215027,287.907104 
	C348.744507,287.472504 348.639008,287.069183 348.953552,286.193115 
	C349.673187,284.175598 349.972809,282.630890 350.272400,281.086151 
	C350.329071,280.310852 350.385742,279.535553 350.852600,278.409302 
	C351.680298,278.018677 352.097809,277.979034 352.515320,277.939392 
	C351.536896,281.272400 350.558502,284.605408 349.215027,287.907104 
z"/>
<path fill="#9C9C9C" opacity="1.000000" stroke="none" 
	d="
M373.301453,152.550934 
	C373.030853,152.949829 372.780426,152.971588 372.153503,153.016968 
	C371.867340,149.648544 371.957642,146.256516 372.312103,142.574829 
	C372.758545,143.999161 372.940826,145.713120 373.233368,147.938934 
	C373.336304,149.691772 373.328918,150.932770 373.301453,152.550934 
z"/>
<path fill="#ABABAB" opacity="1.000000" stroke="none" 
	d="
M369.725342,194.400299 
	C370.378601,191.556671 370.912903,189.050140 371.728210,186.270203 
	C371.591156,189.318436 371.173126,192.640121 370.394318,195.992340 
	C369.891144,195.594406 369.748779,195.165909 369.725342,194.400299 
z"/>
<path fill="#9C9C9C" opacity="1.000000" stroke="none" 
	d="
M352.522156,272.035828 
	C353.342102,268.997864 354.162048,265.959869 355.320496,262.838806 
	C355.825287,263.240051 355.991608,263.724304 355.807739,264.828033 
	C355.068512,267.129761 354.679474,268.812042 354.290466,270.494324 
	C354.266754,270.832397 354.243042,271.170502 353.882996,271.755188 
	C353.205139,272.013123 352.863647,272.024445 352.522156,272.035828 
z"/>
<path fill="#9C9C9C" opacity="1.000000" stroke="none" 
	d="
M365.752869,218.030151 
	C366.094025,215.576050 366.435181,213.121933 367.230103,210.602936 
	C367.800598,211.380661 367.917267,212.223267 368.033936,213.065887 
	C367.803802,214.471390 367.573700,215.876907 367.026489,217.637756 
	C366.391632,218.033127 366.072784,218.045471 365.752869,218.030151 
z"/>
<path fill="#9C9C9C" opacity="1.000000" stroke="none" 
	d="
M348.020172,293.016968 
	C347.433075,293.953339 346.832733,294.893219 345.968201,295.940002 
	C346.500671,293.340088 347.297333,290.633301 348.442566,287.878387 
	C348.932800,288.298096 349.074402,288.765961 348.861816,289.808624 
	C348.347137,291.267456 348.186615,292.151428 348.026093,293.035431 
	C348.026093,293.035431 348.006958,293.020416 348.020172,293.016968 
z"/>
<path fill="#ABABAB" opacity="1.000000" stroke="none" 
	d="
M340.174011,319.044495 
	C340.200012,317.963348 340.225983,316.882202 340.689453,315.423401 
	C341.473175,315.016602 341.819366,314.987518 342.165558,314.958435 
	C342.011719,316.586029 341.857880,318.213593 341.303009,319.779358 
	C340.659302,319.493164 340.416656,319.268829 340.174011,319.044495 
z"/>
<path fill="#9C9C9C" opacity="1.000000" stroke="none" 
	d="
M385.065247,104.228081 
	C382.904755,103.949615 380.744263,103.671150 378.284973,102.971748 
	C377.990021,102.375374 377.993866,102.199928 377.997742,102.024483 
	C380.075531,102.214790 382.153351,102.405106 384.624634,103.057800 
	C385.033844,103.756149 385.049530,103.992111 385.065247,104.228081 
z"/>
<path fill="#9C9C9C" opacity="1.000000" stroke="none" 
	d="
M363.889526,227.043243 
	C364.194214,225.205322 364.498871,223.367416 365.257996,221.461472 
	C365.872894,221.691544 366.033264,221.989655 366.193665,222.287750 
	C366.178497,222.671219 366.163300,223.054703 365.819580,223.909637 
	C364.957184,225.268478 364.423340,226.155853 363.889526,227.043243 
z"/>
<path fill="#9E9E9E" opacity="1.000000" stroke="none" 
	d="
M432.211914,249.337082 
	C431.650330,249.366455 431.362610,249.297150 430.637817,249.156128 
	C431.462799,247.790955 432.724823,246.497498 434.256683,245.482910 
	C433.846222,246.920654 433.165985,248.079529 432.211914,249.337082 
z"/>
<path fill="#ABABAB" opacity="1.000000" stroke="none" 
	d="
M368.331482,212.921143 
	C367.917267,212.223267 367.800598,211.380661 367.454773,210.317902 
	C367.213837,209.627319 367.201996,209.156860 367.617157,208.368530 
	C368.383240,208.028809 368.722321,208.006989 369.061401,207.985168 
	C368.917297,209.582245 368.773163,211.179321 368.331482,212.921143 
z"/>
<path fill="#9C9C9C" opacity="1.000000" stroke="none" 
	d="
M339.950745,319.282593 
	C340.416656,319.268829 340.659302,319.493164 341.014832,319.945435 
	C341.123718,320.582153 341.119720,320.990967 341.054810,321.701202 
	C340.469086,322.904327 339.944275,323.806000 339.143860,324.876099 
	C339.154663,323.203247 339.441071,321.361938 339.950745,319.282593 
z"/>
<path fill="#ABABAB" opacity="1.000000" stroke="none" 
	d="
M377.708862,101.804504 
	C377.993866,102.199928 377.990021,102.375374 377.982178,102.814011 
	C376.304535,103.236916 374.630890,103.396622 372.564758,103.399422 
	C373.921539,102.689857 375.670776,102.137192 377.708862,101.804504 
z"/>
<path fill="#ABABAB" opacity="1.000000" stroke="none" 
	d="
M366.455322,222.106781 
	C366.033264,221.989655 365.872894,221.691544 365.504364,221.249680 
	C365.329987,220.318024 365.363739,219.530121 365.575165,218.386200 
	C366.072784,218.045471 366.391632,218.033127 366.950531,217.987946 
	C367.033417,219.297150 366.875183,220.611481 366.455322,222.106781 
z"/>
<path fill="#ABABAB" opacity="1.000000" stroke="none" 
	d="
M367.919128,105.269478 
	C366.940216,105.675262 365.961273,106.081047 364.591064,106.378540 
	C365.256592,105.307472 366.313385,104.344711 367.700378,103.682251 
	C367.993408,104.411522 367.956268,104.840500 367.919128,105.269478 
z"/>
<path fill="#9C9C9C" opacity="1.000000" stroke="none" 
	d="
M352.665985,277.603516 
	C352.097809,277.979034 351.680298,278.018677 351.050476,278.070831 
	C351.116486,276.886932 351.394836,275.690552 352.115356,274.383026 
	C352.782288,274.504974 352.947296,274.774597 353.052551,275.080780 
	C352.973938,275.809723 352.895325,276.538666 352.665985,277.603516 
z"/>
<path fill="#9C9C9C" opacity="1.000000" stroke="none" 
	d="
M341.772949,310.086426 
	C342.178619,308.339172 342.584259,306.591919 343.304016,304.788635 
	C343.777832,305.229614 343.937500,305.726593 343.766541,306.823608 
	C342.881592,308.311218 342.327271,309.198822 341.772949,310.086426 
z"/>
<path fill="#9C9C9C" opacity="1.000000" stroke="none" 
	d="
M337.005310,336.300995 
	C337.168579,335.984863 337.660767,335.996368 337.906006,336.019226 
	C338.131012,336.790375 338.110779,337.538696 337.774536,338.830231 
	C337.311584,339.936615 337.164642,340.499756 337.017700,341.062897 
	C336.863495,341.267059 336.704315,341.467285 336.071228,341.828369 
	C335.367920,341.989227 335.133545,341.985260 334.899139,341.981293 
	C335.546783,340.193237 336.194427,338.405182 337.005310,336.300995 
z"/>
<path fill="#9C9C9C" opacity="1.000000" stroke="none" 
	d="
M327.853943,344.391174 
	C329.425690,343.656555 331.327087,343.279053 333.510559,343.125763 
	C333.196899,343.879211 332.601166,344.408386 332.005432,344.937592 
	C330.731476,344.874481 329.457550,344.811371 327.853943,344.391174 
z"/>
<path fill="#ABABAB" opacity="1.000000" stroke="none" 
	d="
M369.118286,204.834641 
	C368.688965,203.471298 368.606262,202.145004 369.009399,200.409119 
	C369.735107,199.981415 369.974976,199.963287 370.214844,199.945175 
	C369.964874,201.587341 369.714905,203.229507 369.118286,204.834641 
z"/>
<path fill="#ABABAB" opacity="1.000000" stroke="none" 
	d="
M363.763123,227.372803 
	C364.423340,226.155853 364.957184,225.268478 365.749207,224.189362 
	C365.559174,225.670364 365.110992,227.343109 364.328918,229.006134 
	C363.875580,228.565063 363.756165,228.133713 363.763123,227.372803 
z"/>
<path fill="#ABABAB" opacity="1.000000" stroke="none" 
	d="
M354.547424,270.288818 
	C354.679474,268.812042 355.068512,267.129761 355.739746,265.220001 
	C355.616119,266.689453 355.210266,268.386353 354.547424,270.288818 
z"/>
<path fill="#ABABAB" opacity="1.000000" stroke="none" 
	d="
M341.646667,310.398254 
	C342.327271,309.198822 342.881592,308.311218 343.690002,307.221191 
	C343.483398,308.673431 343.022736,310.328064 342.231201,311.952881 
	C341.773712,311.518768 341.647064,311.114410 341.646667,310.398254 
z"/>
<path fill="#ABABAB" opacity="1.000000" stroke="none" 
	d="
M332.355286,344.968750 
	C332.601166,344.408386 333.196899,343.879211 333.899048,343.064148 
	C334.090546,342.498169 334.260559,342.286011 334.707336,342.061584 
	C335.133545,341.985260 335.367920,341.989227 335.954651,341.980591 
	C335.106354,342.978638 333.905762,343.989288 332.355286,344.968750 
z"/>
<path fill="#9C9C9C" opacity="1.000000" stroke="none" 
	d="
M386.937683,113.651123 
	C388.226837,113.300438 389.869263,113.197510 391.191223,113.482666 
	C390.535370,113.940086 390.200043,114.009415 389.864685,114.078743 
	C389.006775,114.018791 388.148895,113.958832 386.937683,113.651123 
z"/>
<path fill="#9C9C9C" opacity="1.000000" stroke="none" 
	d="
M370.270874,199.541138 
	C369.974976,199.963287 369.735107,199.981415 369.134888,200.020798 
	C368.960571,198.680511 369.146606,197.318970 369.651184,195.963928 
	C370.088776,197.025986 370.207855,198.081558 370.270874,199.541138 
z"/>
<path fill="#ABABAB" opacity="1.000000" stroke="none" 
	d="
M353.323486,274.962341 
	C352.947296,274.774597 352.782288,274.504974 352.347412,274.160034 
	C352.147797,273.581848 352.158264,273.115479 352.345459,272.342468 
	C352.863647,272.024445 353.205139,272.013123 353.803711,271.998108 
	C353.905334,272.944244 353.749908,273.894104 353.323486,274.962341 
z"/>
<path fill="#A9A9A9" opacity="1.000000" stroke="none" 
	d="
M501.511597,277.140656 
	C502.101044,276.743835 502.444092,276.555420 502.945068,276.110657 
	C502.703339,276.957031 502.303650,278.059753 501.588867,279.148010 
	C501.270966,278.538727 501.268097,277.943909 501.511597,277.140656 
z"/>
<path fill="#ABABAB" opacity="1.000000" stroke="none" 
	d="
M382.998657,113.868172 
	C383.684143,113.682701 384.369598,113.497231 385.379974,113.469543 
	C384.722504,114.391830 383.740143,115.156334 382.497528,115.652870 
	C382.491058,114.879326 382.744873,114.373749 382.998657,113.868172 
z"/>
<path fill="#9C9C9C" opacity="1.000000" stroke="none" 
	d="
M375.967468,118.653076 
	C376.361511,117.765221 377.054749,117.049179 378.026062,116.499283 
	C377.624939,117.385254 376.945801,118.105072 375.967468,118.653076 
z"/>
<path fill="#9C9C9C" opacity="1.000000" stroke="none" 
	d="
M342.225098,314.559937 
	C341.819366,314.987518 341.473175,315.016602 340.867737,315.056305 
	C340.793701,314.022919 340.978973,312.978943 341.502533,311.899170 
	C341.988770,312.629364 342.136719,313.395386 342.225098,314.559937 
z"/>
<path fill="#A9A9A9" opacity="1.000000" stroke="none" 
	d="
M453.466370,335.115601 
	C453.071320,334.948395 453.054474,334.731873 453.004150,334.191040 
	C453.900848,333.347382 454.830994,332.828033 456.075623,332.394043 
	C455.541565,333.341675 454.693085,334.203949 453.466370,335.115601 
z"/>
<path fill="#ABABAB" opacity="1.000000" stroke="none" 
	d="
M348.303101,292.933716 
	C348.186615,292.151428 348.347137,291.267456 348.785339,290.181396 
	C348.902100,290.930237 348.741089,291.881104 348.303101,292.933716 
z"/>
<path fill="#9C9C9C" opacity="1.000000" stroke="none" 
	d="
M368.213379,105.356766 
	C367.956268,104.840500 367.993408,104.411522 368.046692,103.772675 
	C368.616608,103.472588 369.170471,103.382385 369.849243,103.554932 
	C369.485352,104.359810 368.996490,104.901932 368.213379,105.356766 
z"/>
<path fill="#ABABAB" opacity="1.000000" stroke="none" 
	d="
M373.138977,120.874588 
	C373.475403,119.976631 374.177826,119.205765 375.213257,118.525513 
	C374.865875,119.411308 374.185455,120.206497 373.138977,120.874588 
z"/>
<path fill="#9C9C9C" opacity="1.000000" stroke="none" 
	d="
M369.127563,207.571777 
	C368.722321,208.006989 368.383240,208.028809 367.790100,208.055634 
	C367.710571,207.020844 367.885101,205.981049 368.383820,204.860947 
	C368.869934,205.573212 369.031830,206.365799 369.127563,207.571777 
z"/>
<path fill="#9C9C9C" opacity="1.000000" stroke="none" 
	d="
M364.211243,231.581635 
	C363.797089,231.993500 363.459778,232.020172 362.869812,232.057465 
	C362.835358,231.046570 363.053528,230.025040 363.604858,228.972534 
	C364.054749,229.693176 364.171448,230.444809 364.211243,231.581635 
z"/>
<path fill="#9C9C9C" opacity="1.000000" stroke="none" 
	d="
M382.652222,113.842339 
	C382.744873,114.373749 382.491058,114.879326 382.119415,115.642738 
	C381.526794,116.000587 381.052002,116.100609 380.240631,116.055939 
	C380.704620,115.213005 381.505188,114.514755 382.652222,113.842339 
z"/>
<path fill="#ABABAB" opacity="1.000000" stroke="none" 
	d="
M362.339874,106.964729 
	C362.045135,107.785698 361.531250,108.237610 360.765411,108.559807 
	C361.049194,107.818619 361.584961,107.207146 362.339874,106.964729 
z"/>
<path fill="#ABABAB" opacity="1.000000" stroke="none" 
	d="
M394.840332,112.029190 
	C394.677460,111.648537 394.514557,111.267883 394.485107,110.599083 
	C395.274994,110.726753 395.931488,111.142578 396.106934,111.797729 
	C395.364044,112.034439 395.102203,112.031815 394.840332,112.029190 
z"/>
<path fill="#A9A9A9" opacity="1.000000" stroke="none" 
	d="
M457.719482,332.096008 
	C457.882568,331.300964 458.333710,330.787994 459.056244,330.347626 
	C458.887604,331.072845 458.447601,331.725494 457.719482,332.096008 
z"/>
<path fill="#ABABAB" opacity="1.000000" stroke="none" 
	d="
M391.720032,106.100830 
	C391.100555,106.323105 390.582520,106.226593 390.016815,105.850876 
	C390.199585,105.244865 390.430023,104.918045 390.660461,104.591232 
	C391.047485,104.988167 391.434479,105.385101 391.720032,106.100830 
z"/>
<path fill="#A9A9A9" opacity="1.000000" stroke="none" 
	d="
M495.820984,290.624268 
	C495.649567,289.985046 495.786285,289.470612 496.214478,288.959564 
	C496.812927,289.211212 497.119995,289.459442 497.427063,289.707703 
	C496.994385,290.054779 496.561737,290.401886 495.820984,290.624268 
z"/>
<path fill="#ABABAB" opacity="1.000000" stroke="none" 
	d="
M337.271881,341.005859 
	C337.164642,340.499756 337.311584,339.936615 337.696289,339.196716 
	C337.798065,339.662933 337.662079,340.305878 337.271881,341.005859 
z"/>
<path fill="#ABABAB" opacity="1.000000" stroke="none" 
	d="
M389.976685,114.321213 
	C390.200043,114.009415 390.535370,113.940086 391.377777,113.770035 
	C391.884827,113.669312 392.123474,113.893227 392.099609,114.055115 
	C391.413391,114.332558 390.751007,114.448128 389.976685,114.321213 
z"/>
<path fill="#ABABAB" opacity="1.000000" stroke="none" 
	d="
M385.354370,104.368286 
	C385.049530,103.992111 385.033844,103.756149 384.998718,103.165176 
	C385.633545,103.095512 386.287781,103.380859 386.888336,103.946259 
	C386.437592,104.320374 386.040558,104.414436 385.354370,104.368286 
z"/>
<path fill="#9C9C9C" opacity="1.000000" stroke="none" 
	d="
M394.906158,112.426483 
	C395.102203,112.031815 395.364044,112.034439 396.019653,112.063751 
	C396.420654,112.690445 396.427948,113.290459 396.153412,114.025253 
	C395.571716,113.714630 395.271851,113.269203 394.906158,112.426483 
z"/>
<path fill="#9C9C9C" opacity="1.000000" stroke="none" 
	d="
M359.895081,248.495544 
	C359.329315,249.879868 358.803101,250.852493 358.021667,251.935944 
	C358.532959,248.959106 359.299438,245.871445 360.338684,242.536591 
	C360.385834,244.220901 360.160217,246.152359 359.895081,248.495544 
z"/>
<path fill="#9C9C9C" opacity="1.000000" stroke="none" 
	d="
M370.635315,121.880829 
	C371.221161,123.466858 371.500763,125.172615 371.673096,127.308563 
	C371.153534,125.826035 370.741302,123.913292 370.635315,121.880829 
z"/>
<path fill="#9C9C9C" opacity="1.000000" stroke="none" 
	d="
M350.024719,281.278198 
	C349.972809,282.630890 349.673187,284.175598 349.091492,285.892639 
	C349.131958,284.533356 349.454468,283.001831 350.024719,281.278198 
z"/>
<path fill="#9C9C9C" opacity="1.000000" stroke="none" 
	d="
M356.899841,255.251801 
	C356.864746,256.607300 356.599915,258.173370 356.042969,259.911255 
	C356.057251,258.542847 356.363678,257.002594 356.899841,255.251801 
z"/>
<path fill="#9C9C9C" opacity="1.000000" stroke="none" 
	d="
M371.658173,130.230927 
	C372.092285,131.431900 372.383728,132.928253 372.432617,134.678391 
	C371.965240,133.463547 371.740387,131.994934 371.658173,130.230927 
z"/>
<path fill="#9C9C9C" opacity="1.000000" stroke="none" 
	d="
M361.905945,235.257324 
	C361.878601,236.599930 361.627686,238.158722 361.090210,239.892151 
	C361.096588,238.535675 361.389496,237.004593 361.905945,235.257324 
z"/>
<path fill="#9C9C9C" opacity="1.000000" stroke="none" 
	d="
M345.014954,298.262878 
	C344.957428,299.300781 344.679016,300.527802 344.124878,301.902588 
	C344.164093,300.850922 344.479065,299.651459 345.014954,298.262878 
z"/>
<path fill="#9C9C9C" opacity="1.000000" stroke="none" 
	d="
M338.451935,326.607391 
	C338.549683,327.508118 338.382721,328.634277 337.894470,329.899139 
	C337.777863,328.969513 337.982544,327.901154 338.451935,326.607391 
z"/>
<path fill="#F5F5F5" opacity="1.000000" stroke="none" 
	d="
M429.728882,296.713226 
	C436.462158,284.635193 442.222992,272.341064 449.802063,261.294434 
	C459.254974,247.516724 473.816345,240.105042 489.352386,234.994064 
	C494.067627,233.442871 495.112671,237.675049 495.519379,241.319748 
	C497.593231,259.903137 492.861816,276.598846 481.070099,291.107269 
	C469.656189,305.150940 455.059387,314.609009 437.829956,320.048340 
	C437.513458,320.148285 437.175476,320.300690 436.862061,320.271606 
	C432.501282,319.867218 428.143066,319.435364 423.784210,319.010223 
	C424.197693,315.198273 424.181519,311.273376 425.145691,307.606232 
	C426.106232,303.953125 428.050415,300.558624 429.728882,296.713226 
z"/>
<path fill="#060606" opacity="1.000000" stroke="none" 
	d="
M922.473511,186.043304 
	C927.039246,191.314331 926.385254,196.708710 922.627441,201.531723 
	C915.634277,210.507156 908.218140,219.152252 901.031982,227.978714 
	C899.790405,229.503708 898.814575,231.245102 897.621460,233.218735 
	C889.625427,244.797989 884.011292,257.107391 880.854797,270.466614 
	C880.604675,271.525574 882.454712,274.077637 883.613220,274.276184 
	C886.508789,274.772491 889.599731,274.566681 892.556641,274.197235 
	C913.369751,271.597168 934.148071,268.706696 954.981140,266.283661 
	C965.227722,265.091949 975.558228,264.470581 985.869385,264.061554 
	C989.771790,263.906769 993.835266,264.687042 997.628296,265.746552 
	C1001.764465,266.901917 1005.253906,269.433350 1005.961121,274.118439 
	C1006.655273,278.717194 1003.819458,282.008881 1000.305420,283.867310 
	C994.772949,286.793152 988.948364,289.472900 982.936829,291.129150 
	C965.153442,296.028625 947.372620,301.168549 929.294678,304.697357 
	C913.840576,307.713959 898.002319,308.914307 882.280273,310.314514 
	C877.447693,310.744873 872.197998,309.920990 867.553162,308.404205 
	C851.957947,303.311768 843.985229,291.161011 844.398926,274.514893 
	C844.856018,256.121796 851.781738,240.197845 863.190796,226.163376 
	C868.601624,219.507431 874.799744,213.491486 881.456848,206.304993 
	C877.549377,206.788818 874.361511,207.101685 871.202026,207.595856 
	C867.425964,208.186478 863.632446,208.758148 859.920288,209.646439 
	C851.885315,211.569183 843.843872,213.510330 835.936035,215.880753 
	C834.392090,216.343567 832.695312,218.626785 832.333374,220.337845 
	C829.137756,235.443710 825.761780,250.538666 823.427917,265.788177 
	C822.239319,273.554718 822.618042,281.661804 823.145569,289.557648 
	C823.547913,295.582001 823.666748,301.274963 819.679260,306.128815 
	C815.676025,311.001831 810.305542,313.195312 804.094299,311.933350 
	C797.212036,310.535095 792.731567,306.113159 790.359741,299.475128 
	C786.461060,288.563690 787.994995,277.258636 788.971252,266.303741 
	C790.174194,252.804337 792.770874,239.339218 795.926819,226.136948 
	C797.875427,217.985718 801.542908,210.135132 805.238708,202.538834 
	C810.219849,192.300781 821.027832,190.950912 829.130432,198.860931 
	C830.370483,200.071533 832.496399,201.297302 834.052856,201.119293 
	C850.565735,199.230743 867.125244,197.530258 883.505371,194.784653 
	C892.923889,193.205948 902.000610,189.662827 911.307434,187.304916 
	C914.771240,186.427322 918.452209,186.407059 922.473511,186.043304 
z"/>
</svg>