<?xml version="1.0" encoding="UTF-8"?>
<!DOCTYPE svg PUBLIC "-//W3C//DTD SVG 1.1//EN" "http://www.w3.org/Graphics/SVG/1.1/DTD/svg11.dtd">
<svg xmlns="http://www.w3.org/2000/svg" version="1.1" width="801px" height="312px" style="shape-rendering:geometricPrecision; text-rendering:geometricPrecision; image-rendering:optimizeQuality; fill-rule:evenodd; clip-rule:evenodd" xmlns:xlink="http://www.w3.org/1999/xlink">
<g><path style="opacity:0.962" fill="#383838" d="M 277.5,74.5 C 272.13,74.3921 266.797,74.7255 261.5,75.5C 261.5,75.1667 261.5,74.8333 261.5,74.5C 266.943,71.884 272.277,71.884 277.5,74.5 Z"/></g>
<g><path style="opacity:0.849" fill="#393939" d="M 530.5,73.5 C 532.735,73.2053 534.735,73.5386 536.5,74.5C 534.097,74.448 531.764,74.7814 529.5,75.5C 529.833,74.8333 530.167,74.1667 530.5,73.5 Z"/></g>
<g><path style="opacity:1" fill="#040404" d="M 277.5,74.5 C 278.671,75.3446 280.005,76.0113 281.5,76.5C 281.5,77.5 281.5,78.5 281.5,79.5C 279.265,79.2053 277.265,79.5386 275.5,80.5C 275.167,80.5 274.833,80.5 274.5,80.5C 272.152,80.5923 270.486,81.5923 269.5,83.5C 267.245,84.0868 265.579,85.4202 264.5,87.5C 265.454,98.134 265.788,108.801 265.5,119.5C 265.271,128.205 264.604,136.872 263.5,145.5C 262.566,146.568 262.232,147.901 262.5,149.5C 261.883,149.611 261.383,149.944 261,150.5C 260.056,156.494 259.223,162.494 258.5,168.5C 257.34,172.681 256.34,177.015 255.5,181.5C 255.5,182.167 255.5,182.833 255.5,183.5C 254.232,185.905 253.565,188.572 253.5,191.5C 251.528,194.084 250.528,197.084 250.5,200.5C 249.469,202.961 248.802,205.627 248.5,208.5C 246.345,210.617 245.345,213.284 245.5,216.5C 245.5,216.833 245.5,217.167 245.5,217.5C 243.862,222.248 242.862,227.248 242.5,232.5C 242.5,233.167 242.167,233.5 241.5,233.5C 240.847,237.093 240.014,240.759 239,244.5C 236.959,245.423 234.792,245.756 232.5,245.5C 232.167,244.5 231.5,243.833 230.5,243.5C 229.92,241.251 228.587,239.585 226.5,238.5C 226.5,237.833 226.5,237.167 226.5,236.5C 226.573,234.973 225.906,233.973 224.5,233.5C 224.5,232.833 224.5,232.167 224.5,231.5C 224.269,222.092 224.936,212.759 226.5,203.5C 229.114,200.069 230.114,196.069 229.5,191.5C 229.5,190.833 229.5,190.167 229.5,189.5C 231.28,188.01 231.946,186.01 231.5,183.5C 232.434,182.432 232.768,181.099 232.5,179.5C 233.612,177.401 234.279,175.067 234.5,172.5C 234.232,170.901 234.566,169.568 235.5,168.5C 237.118,165.829 237.785,162.829 237.5,159.5C 238.461,157.735 238.795,155.735 238.5,153.5C 239.458,151.698 240.125,149.698 240.5,147.5C 242.217,144.155 242.884,140.489 242.5,136.5C 242.5,136.167 242.5,135.833 242.5,135.5C 244.365,129.787 245.365,123.787 245.5,117.5C 246.638,114.696 246.805,111.696 246,108.5C 244.519,109.471 243.685,110.804 243.5,112.5C 240.067,115.601 237.4,119.268 235.5,123.5C 233.738,124.262 232.738,125.596 232.5,127.5C 230.178,128.802 228.845,130.802 228.5,133.5C 226.738,134.262 225.738,135.596 225.5,137.5C 223.738,138.262 222.738,139.596 222.5,141.5C 222.672,142.492 222.338,143.158 221.5,143.5C 219.75,144.659 218.75,146.326 218.5,148.5C 217.662,148.842 217.328,149.508 217.5,150.5C 211.261,157.977 205.261,165.643 199.5,173.5C 197.738,174.262 196.738,175.596 196.5,177.5C 194.086,178.911 192.419,180.911 191.5,183.5C 189.118,185.215 187.118,187.215 185.5,189.5C 182.167,189.5 178.833,189.5 175.5,189.5C 173.833,187.167 171.833,185.167 169.5,183.5C 169.34,181.847 168.674,180.514 167.5,179.5C 166.633,175.671 164.967,172.337 162.5,169.5C 162.672,168.508 162.338,167.842 161.5,167.5C 160.296,163.873 158.629,160.54 156.5,157.5C 156.5,156.833 156.5,156.167 156.5,155.5C 156.245,153.033 155.245,151.033 153.5,149.5C 153.245,147.033 152.245,145.033 150.5,143.5C 150.5,143.167 150.5,142.833 150.5,142.5C 150.573,140.973 149.906,139.973 148.5,139.5C 148.443,138.391 148.11,137.391 147.5,136.5C 147.913,133.68 146.913,131.68 144.5,130.5C 143.662,130.158 143.328,129.492 143.5,128.5C 143.573,126.973 142.906,125.973 141.5,125.5C 141.008,123.181 140.008,121.181 138.5,119.5C 138.703,117.61 138.037,116.11 136.5,115C 135.184,114.472 134.517,114.972 134.5,116.5C 134.5,116.833 134.5,117.167 134.5,117.5C 133.5,121.5 132.5,125.5 131.5,129.5C 130.028,133.919 129.362,138.586 129.5,143.5C 128.232,145.905 127.565,148.572 127.5,151.5C 127.5,152.167 127.5,152.833 127.5,153.5C 125.678,160.282 124.345,167.282 123.5,174.5C 123.5,174.833 123.5,175.167 123.5,175.5C 122.351,175.791 121.684,176.624 121.5,178C 120.784,180.792 120.451,183.626 120.5,186.5C 119.549,187.919 119.216,189.585 119.5,191.5C 117.926,193.102 117.259,195.102 117.5,197.5C 115.59,200.452 114.59,203.786 114.5,207.5C 113.883,207.611 113.383,207.944 113,208.5C 111.513,213.779 110.347,219.112 109.5,224.5C 108.699,226.042 108.366,227.708 108.5,229.5C 106.896,230.287 106.229,231.62 106.5,233.5C 106.5,234.5 106.5,235.5 106.5,236.5C 104.592,237.486 103.592,239.152 103.5,241.5C 102.094,241.973 101.427,242.973 101.5,244.5C 100.167,244.833 98.8333,245.167 97.5,245.5C 93.8849,245.845 90.5516,245.178 87.5,243.5C 87.2014,241.545 86.2014,240.211 84.5,239.5C 84.5,238.167 84.5,236.833 84.5,235.5C 84.6123,228.82 84.9457,222.153 85.5,215.5C 85.5,214.167 85.5,212.833 85.5,211.5C 85.8333,211.5 86.1667,211.5 86.5,211.5C 88.4725,208.916 89.4725,205.916 89.5,202.5C 89.3253,200.379 89.6586,198.379 90.5,196.5C 91.9238,194.485 92.5905,192.152 92.5,189.5C 93.3092,187.972 93.9759,186.306 94.5,184.5C 95.2216,184.082 95.7216,183.416 96,182.5C 96.5482,178.83 97.0482,175.163 97.5,171.5C 98.1495,169.565 98.4828,167.565 98.5,165.5C 98.5651,162.572 99.2318,159.905 100.5,157.5C 102.498,153.874 103.498,149.874 103.5,145.5C 104.768,143.095 105.435,140.428 105.5,137.5C 106.167,133.5 106.833,129.5 107.5,125.5C 109.074,123.898 109.741,121.898 109.5,119.5C 111.074,117.898 111.741,115.898 111.5,113.5C 114.048,110.004 115.381,106.004 115.5,101.5C 116.537,100.07 117.204,98.403 117.5,96.5C 120.167,94.5 122.5,92.1667 124.5,89.5C 124.5,88.8333 124.833,88.5 125.5,88.5C 125.833,88.5 126.167,88.5 126.5,88.5C 130.308,87.1268 133.974,87.4602 137.5,89.5C 139.5,90.8333 141.167,92.5 142.5,94.5C 142.427,96.0269 143.094,97.0269 144.5,97.5C 144.738,99.4044 145.738,100.738 147.5,101.5C 147.75,103.674 148.75,105.341 150.5,106.5C 150.427,108.027 151.094,109.027 152.5,109.5C 152.5,110.167 152.5,110.833 152.5,111.5C 152.427,113.027 153.094,114.027 154.5,114.5C 154.427,116.027 155.094,117.027 156.5,117.5C 156.845,120.198 158.178,122.198 160.5,123.5C 160.427,125.027 161.094,126.027 162.5,126.5C 163.11,127.391 163.443,128.391 163.5,129.5C 163.427,131.027 164.094,132.027 165.5,132.5C 165.5,132.833 165.5,133.167 165.5,133.5C 165.427,135.027 166.094,136.027 167.5,136.5C 167.5,136.833 167.5,137.167 167.5,137.5C 167.755,139.967 168.755,141.967 170.5,143.5C 171.674,144.514 172.34,145.847 172.5,147.5C 172.427,149.027 173.094,150.027 174.5,150.5C 175.167,152.5 175.833,154.5 176.5,156.5C 176.427,158.027 177.094,159.027 178.5,159.5C 178.511,161.686 179.511,162.519 181.5,162C 184.2,160.143 185.866,157.643 186.5,154.5C 188.262,153.738 189.262,152.404 189.5,150.5C 192.323,149.008 193.99,146.674 194.5,143.5C 196.587,142.415 197.92,140.749 198.5,138.5C 201.243,136.761 203.243,134.427 204.5,131.5C 205.5,131.167 206.167,130.5 206.5,129.5C 208.446,128.965 209.446,127.632 209.5,125.5C 211.914,124.089 213.581,122.089 214.5,119.5C 216.878,117.122 218.878,114.455 220.5,111.5C 221.906,111.027 222.573,110.027 222.5,108.5C 223.167,108.167 223.833,107.833 224.5,107.5C 229.139,102.526 233.805,97.5261 238.5,92.5C 242.1,90.5698 245.1,87.9031 247.5,84.5C 250.891,83.4707 253.557,81.4707 255.5,78.5C 257.027,78.573 258.027,77.9063 258.5,76.5C 259.609,76.4431 260.609,76.1098 261.5,75.5C 266.797,74.7255 272.13,74.3921 277.5,74.5 Z"/></g>
<g><path style="opacity:0.192" fill="#949494" d="M 277.5,74.5 C 278.833,74.5 280.167,74.5 281.5,74.5C 281.5,75.1667 281.5,75.8333 281.5,76.5C 280.005,76.0113 278.671,75.3446 277.5,74.5 Z"/></g>
<g><path style="opacity:0.102" fill="#bcbcbc" d="M 530.5,73.5 C 532.948,72.5269 535.615,72.1936 538.5,72.5C 541.112,73.2775 542.945,74.9441 544,77.5C 545.108,81.0863 545.608,84.753 545.5,88.5C 545.802,91.0593 545.468,93.3926 544.5,95.5C 544.272,90.0694 543.439,84.7361 542,79.5C 540.945,76.9441 539.112,75.2775 536.5,74.5C 534.735,73.5386 532.735,73.2053 530.5,73.5 Z"/></g>
<g><path style="opacity:0.588" fill="#898989" d="M 261.5,74.5 C 261.5,74.8333 261.5,75.1667 261.5,75.5C 260.609,76.1098 259.609,76.4431 258.5,76.5C 258.973,75.0937 259.973,74.427 261.5,74.5 Z"/></g>
<g><path style="opacity:1" fill="#0a0a0a" d="M 536.5,74.5 C 539.112,75.2775 540.945,76.9441 542,79.5C 543.439,84.7361 544.272,90.0694 544.5,95.5C 544.5,95.8333 544.5,96.1667 544.5,96.5C 542.878,98.6088 540.712,99.6088 538,99.5C 533.538,99.2773 529.371,98.2773 525.5,96.5C 525.368,93.4299 525.701,90.4299 526.5,87.5C 527.294,83.6423 527.96,79.6423 528.5,75.5C 528.833,75.5 529.167,75.5 529.5,75.5C 531.764,74.7814 534.097,74.448 536.5,74.5 Z"/></g>
<g><path style="opacity:0.655" fill="#767676" d="M 258.5,76.5 C 258.027,77.9063 257.027,78.573 255.5,78.5C 255.973,77.0937 256.973,76.427 258.5,76.5 Z"/></g>
<g><path style="opacity:0.576" fill="#797979" d="M 528.5,75.5 C 527.96,79.6423 527.294,83.6423 526.5,87.5C 526.335,83.8183 526.501,80.1516 527,76.5C 527.383,75.944 527.883,75.6107 528.5,75.5 Z"/></g>
<g><path style="opacity:0.898" fill="#4f4f4f" d="M 281.5,76.5 C 282.339,77.6412 283.006,78.9745 283.5,80.5C 280.956,80.9491 278.29,80.9491 275.5,80.5C 277.265,79.5386 279.265,79.2053 281.5,79.5C 281.5,78.5 281.5,77.5 281.5,76.5 Z"/></g>
<g><path style="opacity:0.663" fill="#5e5e5e" d="M 255.5,78.5 C 253.557,81.4707 250.891,83.4707 247.5,84.5C 249.8,82.016 252.467,80.016 255.5,78.5 Z"/></g>
<g><path style="opacity:0.314" fill="#7f7f7f" d="M 274.5,80.5 C 273.232,82.047 271.565,83.047 269.5,83.5C 270.486,81.5923 272.152,80.5923 274.5,80.5 Z"/></g>
<g><path style="opacity:0.094" fill="#e2e2e2" d="M 281.5,74.5 C 287.688,80.7924 286.521,83.1257 278,81.5C 274.402,83.0498 270.902,84.7164 267.5,86.5C 268.167,85.5 268.833,84.5 269.5,83.5C 271.565,83.047 273.232,82.047 274.5,80.5C 274.833,80.5 275.167,80.5 275.5,80.5C 278.29,80.9491 280.956,80.9491 283.5,80.5C 283.006,78.9745 282.339,77.6412 281.5,76.5C 281.5,75.8333 281.5,75.1667 281.5,74.5 Z"/></g>
<g><path style="opacity:0.229" fill="#acacac" d="M 127.5,84.5 C 130.082,84.0254 132.082,84.6921 133.5,86.5C 131.473,86.3379 129.473,86.5045 127.5,87C 126.944,87.3826 126.611,87.8826 126.5,88.5C 126.167,88.5 125.833,88.5 125.5,88.5C 125.733,86.9382 126.4,85.6049 127.5,84.5 Z"/></g>
<g><path style="opacity:0.259" fill="#7b7b7b" d="M 269.5,83.5 C 268.833,84.5 268.167,85.5 267.5,86.5C 266.505,97.3206 266.172,108.321 266.5,119.5C 266.167,119.5 265.833,119.5 265.5,119.5C 265.788,108.801 265.454,98.134 264.5,87.5C 265.579,85.4202 267.245,84.0868 269.5,83.5 Z"/></g>
<g><path style="opacity:0.082" fill="#d8d8d8" d="M 538.5,72.5 C 535.615,72.1936 532.948,72.5269 530.5,73.5C 530.167,74.1667 529.833,74.8333 529.5,75.5C 529.167,75.5 528.833,75.5 528.5,75.5C 527.883,75.6107 527.383,75.944 527,76.5C 526.501,80.1516 526.335,83.8183 526.5,87.5C 525.701,90.4299 525.368,93.4299 525.5,96.5C 525.557,97.609 525.89,98.609 526.5,99.5C 524.069,98.3932 523.069,96.3932 523.5,93.5C 523.651,90.5475 524.317,87.7141 525.5,85C 522.915,75.2623 526.582,70.5956 536.5,71C 537.416,71.2784 538.082,71.7784 538.5,72.5 Z"/></g>
<g><path style="opacity:0.877" fill="#333333" d="M 133.5,86.5 C 135.404,86.7376 136.738,87.7376 137.5,89.5C 133.974,87.4602 130.308,87.1268 126.5,88.5C 126.611,87.8826 126.944,87.3826 127.5,87C 129.473,86.5045 131.473,86.3379 133.5,86.5 Z"/></g>
<g><path style="opacity:0.824" fill="#4d4d4d" d="M 247.5,84.5 C 245.1,87.9031 242.1,90.5698 238.5,92.5C 240.9,89.0969 243.9,86.4302 247.5,84.5 Z"/></g>
<g><path style="opacity:0.788" fill="#626262" d="M 124.5,89.5 C 122.5,92.1667 120.167,94.5 117.5,96.5C 118.833,93.1667 121.167,90.8333 124.5,89.5 Z"/></g>
<g><path style="opacity:0.098" fill="#d9d9d9" d="M 127.5,84.5 C 131.852,82.8677 135.852,83.7011 139.5,87C 143.86,91.1817 147.193,96.0151 149.5,101.5C 148.833,101.5 148.167,101.5 147.5,101.5C 147.262,99.5956 146.262,98.2623 144.5,97.5C 144.573,95.9731 143.906,94.9731 142.5,94.5C 141.167,92.5 139.5,90.8333 137.5,89.5C 136.738,87.7376 135.404,86.7376 133.5,86.5C 132.082,84.6921 130.082,84.0254 127.5,84.5 Z"/></g>
<g><path style="opacity:0.09" fill="#e0e0e0" d="M 281.5,74.5 C 280.167,74.5 278.833,74.5 277.5,74.5C 272.277,71.884 266.943,71.884 261.5,74.5C 259.973,74.427 258.973,75.0937 258.5,76.5C 256.973,76.427 255.973,77.0937 255.5,78.5C 252.467,80.016 249.8,82.016 247.5,84.5C 243.9,86.4302 240.9,89.0969 238.5,92.5C 233.895,95.4357 229.895,99.1024 226.5,103.5C 225.833,103.5 225.167,103.5 224.5,103.5C 227.563,98.9281 231.23,94.7615 235.5,91C 241.652,85.7591 247.985,80.7591 254.5,76C 259.198,73.2682 264.198,71.4349 269.5,70.5C 274.014,70.6205 278.014,71.9538 281.5,74.5 Z"/></g>
<g><path style="opacity:0.749" fill="#515151" d="M 142.5,94.5 C 143.906,94.9731 144.573,95.9731 144.5,97.5C 143.094,97.0269 142.427,96.0269 142.5,94.5 Z"/></g>
<g><path style="opacity:0.035" fill="#e3e3e3" d="M 545.5,88.5 C 549.136,96.2226 546.636,100.889 538,102.5C 534.5,102 531,101.5 527.5,101C 526.944,100.617 526.611,100.117 526.5,99.5C 531.782,100.567 537.115,100.733 542.5,100C 543.823,99.1841 544.489,98.0174 544.5,96.5C 544.5,96.1667 544.5,95.8333 544.5,95.5C 545.468,93.3926 545.802,91.0593 545.5,88.5 Z"/></g>
<g><path style="opacity:0.706" fill="#5e5e5e" d="M 144.5,97.5 C 146.262,98.2623 147.262,99.5956 147.5,101.5C 145.738,100.738 144.738,99.4044 144.5,97.5 Z"/></g>
<g><path style="opacity:0.576" fill="#7c7c7c" d="M 525.5,96.5 C 529.371,98.2773 533.538,99.2773 538,99.5C 540.712,99.6088 542.878,98.6088 544.5,96.5C 544.489,98.0174 543.823,99.1841 542.5,100C 537.115,100.733 531.782,100.567 526.5,99.5C 525.89,98.609 525.557,97.609 525.5,96.5 Z"/></g>
<g><path style="opacity:0.765" fill="#525252" d="M 238.5,92.5 C 233.805,97.5261 229.139,102.526 224.5,107.5C 224.733,105.938 225.4,104.605 226.5,103.5C 229.895,99.1024 233.895,95.4357 238.5,92.5 Z"/></g>
<g><path style="opacity:0.804" fill="#565656" d="M 115.5,101.5 C 115.381,106.004 114.048,110.004 111.5,113.5C 112.232,109.213 113.565,105.213 115.5,101.5 Z"/></g>
<g><path style="opacity:0.161" fill="#acacac" d="M 224.5,103.5 C 225.167,103.5 225.833,103.5 226.5,103.5C 225.4,104.605 224.733,105.938 224.5,107.5C 223.833,107.833 223.167,108.167 222.5,108.5C 222.833,107.167 223.167,105.833 223.5,104.5C 223.5,103.833 223.833,103.5 224.5,103.5 Z"/></g>
<g><path style="opacity:0.039" fill="#dedede" d="M 127.5,84.5 C 126.4,85.6049 125.733,86.9382 125.5,88.5C 124.833,88.5 124.5,88.8333 124.5,89.5C 121.167,90.8333 118.833,93.1667 117.5,96.5C 117.204,98.403 116.537,100.07 115.5,101.5C 113.565,105.213 112.232,109.213 111.5,113.5C 109.926,115.102 109.259,117.102 109.5,119.5C 108.326,120.514 107.66,121.847 107.5,123.5C 105.676,128.936 104.342,134.603 103.5,140.5C 103.5,140.833 103.5,141.167 103.5,141.5C 102.833,142.167 102.167,142.833 101.5,143.5C 104.143,125.736 109.31,108.736 117,92.5C 119.931,88.9658 123.431,86.2992 127.5,84.5 Z"/></g>
<g><path style="opacity:0.525" fill="#898989" d="M 147.5,101.5 C 148.167,101.5 148.833,101.5 149.5,101.5C 149.629,103.216 149.962,104.883 150.5,106.5C 148.75,105.341 147.75,103.674 147.5,101.5 Z"/></g>
<g><path style="opacity:0.404" fill="#969696" d="M 150.5,106.5 C 151.906,106.973 152.573,107.973 152.5,109.5C 151.094,109.027 150.427,108.027 150.5,106.5 Z"/></g>
<g><path style="opacity:0.741" fill="#666666" d="M 222.5,108.5 C 222.573,110.027 221.906,111.027 220.5,111.5C 220.427,109.973 221.094,108.973 222.5,108.5 Z"/></g>
<g><path style="opacity:0.723" fill="#4b4b4b" d="M 245.5,117.5 C 245.662,115.473 245.495,113.473 245,111.5C 244.617,112.056 244.117,112.389 243.5,112.5C 243.685,110.804 244.519,109.471 246,108.5C 246.805,111.696 246.638,114.696 245.5,117.5 Z"/></g>
<g><path style="opacity:0.741" fill="#4e4e4e" d="M 152.5,111.5 C 153.906,111.973 154.573,112.973 154.5,114.5C 153.094,114.027 152.427,113.027 152.5,111.5 Z"/></g>
<g><path style="opacity:0.769" fill="#5e5e5e" d="M 220.5,111.5 C 218.878,114.455 216.878,117.122 214.5,119.5C 215.353,115.98 217.353,113.313 220.5,111.5 Z"/></g>
<g><path style="opacity:0.882" fill="#4a4a4a" d="M 111.5,113.5 C 111.741,115.898 111.074,117.898 109.5,119.5C 109.259,117.102 109.926,115.102 111.5,113.5 Z"/></g>
<g><path style="opacity:0.702" fill="#5b5b5b" d="M 154.5,114.5 C 155.906,114.973 156.573,115.973 156.5,117.5C 155.094,117.027 154.427,116.027 154.5,114.5 Z"/></g>
<g><path style="opacity:0.184" fill="#c2c2c2" d="M 245.5,117.5 C 243.439,123.196 242.439,129.196 242.5,135.5C 242.5,135.833 242.5,136.167 242.5,136.5C 241.833,138.833 241.167,141.167 240.5,143.5C 240.5,141.167 240.5,138.833 240.5,136.5C 240.701,131.093 241.368,125.76 242.5,120.5C 243.833,118.833 243.833,117.167 242.5,115.5C 243.11,114.609 243.443,113.609 243.5,112.5C 244.117,112.389 244.617,112.056 245,111.5C 245.495,113.473 245.662,115.473 245.5,117.5 Z"/></g>
<g><path style="opacity:0.757" fill="#565656" d="M 138.5,119.5 C 137.764,117.771 136.43,116.771 134.5,116.5C 134.517,114.972 135.184,114.472 136.5,115C 138.037,116.11 138.703,117.61 138.5,119.5 Z"/></g>
<g><path style="opacity:0.082" fill="#d5d5d5" d="M 134.5,116.5 C 136.43,116.771 137.764,117.771 138.5,119.5C 138.517,121.565 138.85,123.565 139.5,125.5C 138.115,124.426 136.949,123.093 136,121.5C 135.802,123.382 135.302,125.048 134.5,126.5C 134.5,123.5 134.5,120.5 134.5,117.5C 134.5,117.167 134.5,116.833 134.5,116.5 Z"/></g>
<g><path style="opacity:0.682" fill="#6d6d6d" d="M 156.5,117.5 C 158.369,119.034 159.702,121.034 160.5,123.5C 158.178,122.198 156.845,120.198 156.5,117.5 Z"/></g>
<g><path style="opacity:0.224" fill="#898989" d="M 138.5,119.5 C 140.008,121.181 141.008,123.181 141.5,125.5C 140.833,125.5 140.167,125.5 139.5,125.5C 138.85,123.565 138.517,121.565 138.5,119.5 Z"/></g>
<g><path style="opacity:0.761" fill="#5d5d5d" d="M 214.5,119.5 C 213.581,122.089 211.914,124.089 209.5,125.5C 210.419,122.911 212.086,120.911 214.5,119.5 Z"/></g>
<g><path style="opacity:0.557" fill="#666666" d="M 243.5,112.5 C 243.443,113.609 243.11,114.609 242.5,115.5C 240.167,118.167 237.833,120.833 235.5,123.5C 237.4,119.268 240.067,115.601 243.5,112.5 Z"/></g>
<g><path style="opacity:0.776" fill="#4e4e4e" d="M 109.5,119.5 C 109.741,121.898 109.074,123.898 107.5,125.5C 107.5,124.833 107.5,124.167 107.5,123.5C 107.66,121.847 108.326,120.514 109.5,119.5 Z"/></g>
<g><path style="opacity:0.251" fill="#9e9e9e" d="M 134.5,117.5 C 134.5,120.5 134.5,123.5 134.5,126.5C 134.5,126.833 134.5,127.167 134.5,127.5C 133.272,131.867 131.939,136.2 130.5,140.5C 131.114,136.865 131.448,133.198 131.5,129.5C 132.5,125.5 133.5,121.5 134.5,117.5 Z"/></g>
<g><path style="opacity:0.467" fill="#909090" d="M 160.5,123.5 C 161.906,123.973 162.573,124.973 162.5,126.5C 161.094,126.027 160.427,125.027 160.5,123.5 Z"/></g>
<g><path style="opacity:0.522" fill="#696969" d="M 235.5,123.5 C 235.262,125.404 234.262,126.738 232.5,127.5C 232.738,125.596 233.738,124.262 235.5,123.5 Z"/></g>
<g><path style="opacity:0.812" fill="#4a4a4a" d="M 209.5,125.5 C 209.446,127.632 208.446,128.965 206.5,129.5C 207.026,127.77 208.026,126.436 209.5,125.5 Z"/></g>
<g><path style="opacity:0.378" fill="#8e8e8e" d="M 265.5,119.5 C 265.833,119.5 266.167,119.5 266.5,119.5C 266.913,128.469 265.913,137.135 263.5,145.5C 264.604,136.872 265.271,128.205 265.5,119.5 Z"/></g>
<g><path style="opacity:0.655" fill="#585858" d="M 141.5,125.5 C 142.906,125.973 143.573,126.973 143.5,128.5C 142.094,128.027 141.427,127.027 141.5,125.5 Z"/></g>
<g><path style="opacity:0.573" fill="#676767" d="M 232.5,127.5 C 231.66,129.853 230.326,131.853 228.5,133.5C 228.845,130.802 230.178,128.802 232.5,127.5 Z"/></g>
<g><path style="opacity:0.533" fill="#828282" d="M 107.5,123.5 C 107.5,124.167 107.5,124.833 107.5,125.5C 106.833,129.5 106.167,133.5 105.5,137.5C 104.833,138.5 104.167,139.5 103.5,140.5C 104.342,134.603 105.676,128.936 107.5,123.5 Z"/></g>
<g><path style="opacity:1" fill="#373737" d="M 144.5,130.5 C 146.913,131.68 147.913,133.68 147.5,136.5C 147.167,136.5 146.833,136.5 146.5,136.5C 145.833,134.5 145.167,132.5 144.5,130.5 Z"/></g>
<g><path style="opacity:0.557" fill="#7b7b7b" d="M 163.5,129.5 C 164.906,129.973 165.573,130.973 165.5,132.5C 164.094,132.027 163.427,131.027 163.5,129.5 Z"/></g>
<g><path style="opacity:0.839" fill="#383838" d="M 131.5,129.5 C 131.448,133.198 131.114,136.865 130.5,140.5C 130.737,141.791 130.404,142.791 129.5,143.5C 129.362,138.586 130.028,133.919 131.5,129.5 Z"/></g>
<g><path style="opacity:1" fill="#040404" d="M 661.5,132.5 C 661.833,132.5 662.167,132.5 662.5,132.5C 663.707,135.814 663.707,139.148 662.5,142.5C 658.211,147.961 653.711,153.294 649,158.5C 647.906,160.078 647.072,161.745 646.5,163.5C 644.413,164.585 643.08,166.251 642.5,168.5C 641.326,169.514 640.66,170.847 640.5,172.5C 638.787,173.635 638.12,175.302 638.5,177.5C 637.094,177.973 636.427,178.973 636.5,180.5C 635.89,181.391 635.557,182.391 635.5,183.5C 634.15,184.483 633.15,185.816 632.5,187.5C 631.2,190.309 631.2,192.976 632.5,195.5C 636.5,195.5 640.5,195.5 644.5,195.5C 650.389,195.55 656.056,194.884 661.5,193.5C 665.04,193.247 668.373,192.581 671.5,191.5C 673.948,190.527 676.615,190.194 679.5,190.5C 692.166,189.166 704.833,188.833 717.5,189.5C 718.458,190.962 719.624,192.295 721,193.5C 721.495,195.473 721.662,197.473 721.5,199.5C 720.094,199.973 719.427,200.973 719.5,202.5C 716.455,203.279 713.789,204.613 711.5,206.5C 705.697,207.792 700.03,209.458 694.5,211.5C 689.126,211.835 684.126,213.168 679.5,215.5C 678.833,215.5 678.167,215.5 677.5,215.5C 669.302,216.806 661.302,218.473 653.5,220.5C 652.833,220.5 652.5,220.833 652.5,221.5C 649.167,221.5 645.833,221.5 642.5,221.5C 635.485,221.422 628.485,221.089 621.5,220.5C 620.609,219.89 619.609,219.557 618.5,219.5C 618.027,218.094 617.027,217.427 615.5,217.5C 612.395,214.408 609.729,211.075 607.5,207.5C 606.68,201.203 606.347,194.869 606.5,188.5C 607.924,186.485 608.59,184.152 608.5,181.5C 608.5,181.167 608.5,180.833 608.5,180.5C 610.245,178.967 611.245,176.967 611.5,174.5C 611.5,173.833 611.5,173.167 611.5,172.5C 612.906,172.027 613.573,171.027 613.5,169.5C 614.906,169.027 615.573,168.027 615.5,166.5C 617.262,165.738 618.262,164.404 618.5,162.5C 620.543,161.421 621.876,159.754 622.5,157.5C 625.991,154.51 629.324,151.343 632.5,148C 620.503,147.694 609.17,149.86 598.5,154.5C 597.539,156.265 597.205,158.265 597.5,160.5C 595.59,163.452 594.59,166.786 594.5,170.5C 593.097,175.391 592.43,180.391 592.5,185.5C 591.732,186.263 591.232,187.263 591,188.5C 590.501,193.823 590.334,199.156 590.5,204.5C 591.737,211.166 590.07,216.833 585.5,221.5C 581.167,222.833 576.833,222.833 572.5,221.5C 571.5,219.833 570.167,218.5 568.5,217.5C 567.545,215.254 566.878,212.921 566.5,210.5C 566.469,197.46 567.135,184.46 568.5,171.5C 568.298,169.05 568.631,166.717 569.5,164.5C 571.642,161.2 572.975,157.533 573.5,153.5C 573.833,152.167 574.167,150.833 574.5,149.5C 576.859,145.626 579.859,142.126 583.5,139C 587.31,138.413 590.977,138.913 594.5,140.5C 595.338,140.842 595.672,141.508 595.5,142.5C 603.353,143.543 611.353,143.376 619.5,142C 620.416,141.722 621.082,141.222 621.5,140.5C 622.167,140.5 622.833,140.5 623.5,140.5C 629.105,140.221 634.438,139.221 639.5,137.5C 645.178,138.13 650.178,136.797 654.5,133.5C 656.764,132.781 659.097,132.448 661.5,132.5 Z"/></g>
<g><path style="opacity:0.765" fill="#646464" d="M 204.5,131.5 C 203.243,134.427 201.243,136.761 198.5,138.5C 199.757,135.573 201.757,133.239 204.5,131.5 Z"/></g>
<g><path style="opacity:0.796" fill="#4a4a4a" d="M 245.5,117.5 C 245.365,123.787 244.365,129.787 242.5,135.5C 242.439,129.196 243.439,123.196 245.5,117.5 Z"/></g>
<g><path style="opacity:0.584" fill="#747474" d="M 165.5,133.5 C 166.906,133.973 167.573,134.973 167.5,136.5C 166.094,136.027 165.427,135.027 165.5,133.5 Z"/></g>
<g><path style="opacity:0.494" fill="#727272" d="M 228.5,133.5 C 228.262,135.404 227.262,136.738 225.5,137.5C 225.738,135.596 226.738,134.262 228.5,133.5 Z"/></g>
<g><path style="opacity:0.427" fill="#929292" d="M 146.5,136.5 C 146.833,136.5 147.167,136.5 147.5,136.5C 148.11,137.391 148.443,138.391 148.5,139.5C 147.094,139.027 146.427,138.027 146.5,136.5 Z"/></g>
<g><path style="opacity:0.659" fill="#555555" d="M 225.5,137.5 C 225.262,139.404 224.262,140.738 222.5,141.5C 222.738,139.596 223.738,138.262 225.5,137.5 Z"/></g>
<g><path style="opacity:0.925" fill="#323232" d="M 105.5,137.5 C 105.435,140.428 104.768,143.095 103.5,145.5C 103.5,144.167 103.5,142.833 103.5,141.5C 103.5,141.167 103.5,140.833 103.5,140.5C 104.167,139.5 104.833,138.5 105.5,137.5 Z"/></g>
<g><path style="opacity:0.086" fill="#eeeeee" d="M 240.5,136.5 C 240.5,138.833 240.5,141.167 240.5,143.5C 240.5,143.833 240.5,144.167 240.5,144.5C 239.087,147.219 238.42,150.219 238.5,153.5C 237.935,155.42 236.935,157.087 235.5,158.5C 237.198,151.053 238.864,143.719 240.5,136.5 Z"/></g>
<g><path style="opacity:0.62" fill="#696969" d="M 148.5,139.5 C 149.906,139.973 150.573,140.973 150.5,142.5C 149.094,142.027 148.427,141.027 148.5,139.5 Z"/></g>
<g><path style="opacity:0.624" fill="#757575" d="M 198.5,138.5 C 197.92,140.749 196.587,142.415 194.5,143.5C 195.08,141.251 196.413,139.585 198.5,138.5 Z"/></g>
<g><path style="opacity:0.737" fill="#626262" d="M 167.5,137.5 C 169.975,138.687 170.975,140.687 170.5,143.5C 168.755,141.967 167.755,139.967 167.5,137.5 Z"/></g>
<g><path style="opacity:0.867" fill="#454545" d="M 242.5,136.5 C 242.884,140.489 242.217,144.155 240.5,147.5C 240.5,146.5 240.5,145.5 240.5,144.5C 240.5,144.167 240.5,143.833 240.5,143.5C 241.167,141.167 241.833,138.833 242.5,136.5 Z"/></g>
<g><path style="opacity:1" fill="#050505" d="M 535.5,145.5 C 537.262,146.262 538.262,147.596 538.5,149.5C 538.259,151.898 538.926,153.898 540.5,155.5C 540.354,159.519 540.021,163.519 539.5,167.5C 537.124,171.288 535.791,175.621 535.5,180.5C 534.331,183.341 533.331,186.341 532.5,189.5C 531.094,189.973 530.427,190.973 530.5,192.5C 528.962,197.114 527.628,201.781 526.5,206.5C 525.264,208.649 524.264,210.982 523.5,213.5C 521.112,216.076 518.112,217.076 514.5,216.5C 513.833,216.167 513.167,215.833 512.5,215.5C 509.733,207.81 508.733,199.81 509.5,191.5C 510.482,187.684 511.149,183.684 511.5,179.5C 513.876,174.894 514.876,169.894 514.5,164.5C 514.993,162.194 515.326,159.861 515.5,157.5C 515.216,155.585 515.549,153.919 516.5,152.5C 518.047,151.232 519.047,149.565 519.5,147.5C 520.833,146.833 521.833,145.833 522.5,144.5C 526.973,143.044 531.307,143.377 535.5,145.5 Z"/></g>
<g><path style="opacity:0.71" fill="#4e4e4e" d="M 221.5,143.5 C 221.25,145.674 220.25,147.341 218.5,148.5C 218.75,146.326 219.75,144.659 221.5,143.5 Z"/></g>
<g><path style="opacity:0.753" fill="#595959" d="M 452.5,146.5 C 452.5,146.167 452.5,145.833 452.5,145.5C 456.167,145.5 459.833,145.5 463.5,145.5C 466.346,145.552 468.68,146.552 470.5,148.5C 464.635,146.844 458.635,146.177 452.5,146.5 Z"/></g>
<g><path style="opacity:0.373" fill="#9c9c9c" d="M 103.5,141.5 C 103.5,142.833 103.5,144.167 103.5,145.5C 102.5,148.167 101.5,150.833 100.5,153.5C 100.833,150.167 101.167,146.833 101.5,143.5C 102.167,142.833 102.833,142.167 103.5,141.5 Z"/></g>
<g><path style="opacity:0.337" fill="#8b8b8b" d="M 150.5,143.5 C 152.245,145.033 153.245,147.033 153.5,149.5C 153.5,150.167 153.5,150.833 153.5,151.5C 151.62,149.245 150.62,146.578 150.5,143.5 Z"/></g>
<g><path style="opacity:0.573" fill="#949494" d="M 452.5,145.5 C 452.5,145.833 452.5,146.167 452.5,146.5C 450.597,146.796 448.93,147.463 447.5,148.5C 446.833,148.5 446.167,148.5 445.5,148.5C 447.176,146.166 449.509,145.166 452.5,145.5 Z"/></g>
<g><path style="opacity:1" fill="#040404" d="M 452.5,146.5 C 458.635,146.177 464.635,146.844 470.5,148.5C 471.262,150.262 472.596,151.262 474.5,151.5C 474.975,153.784 475.975,155.784 477.5,157.5C 478.331,164.307 478.997,171.14 479.5,178C 478.32,189.579 476.653,201.079 474.5,212.5C 473.883,212.611 473.383,212.944 473,213.5C 472.56,215.866 472.06,218.199 471.5,220.5C 471.5,220.833 471.5,221.167 471.5,221.5C 469.833,222.5 468.5,223.833 467.5,225.5C 466.167,225.5 465.5,226.167 465.5,227.5C 464.833,227.5 464.167,227.5 463.5,227.5C 460.763,227.599 458.096,227.265 455.5,226.5C 454.167,225.5 452.833,224.5 451.5,223.5C 450.37,221.685 449.704,219.685 449.5,217.5C 449.508,208.777 450.175,200.111 451.5,191.5C 452.404,190.791 452.737,189.791 452.5,188.5C 453.117,188.389 453.617,188.056 454,187.5C 454.497,184.854 454.664,182.187 454.5,179.5C 455.15,177.565 455.483,175.565 455.5,173.5C 455.5,173.167 455.5,172.833 455.5,172.5C 457.074,170.898 457.741,168.898 457.5,166.5C 455.143,166.337 452.81,166.503 450.5,167C 447.499,167.738 444.832,168.904 442.5,170.5C 442.167,170.5 441.833,170.5 441.5,170.5C 439.973,170.427 438.973,171.094 438.5,172.5C 434.879,174.131 431.879,176.465 429.5,179.5C 426.606,180.882 424.106,182.882 422,185.5C 420.913,191.269 419.413,196.936 417.5,202.5C 417.672,203.492 417.338,204.158 416.5,204.5C 415.094,204.973 414.427,205.973 414.5,207.5C 414.5,207.833 414.5,208.167 414.5,208.5C 412.453,210.55 410.786,212.883 409.5,215.5C 406.167,218.167 403.167,221.167 400.5,224.5C 398.973,224.427 397.973,225.094 397.5,226.5C 395.031,227.569 392.698,228.902 390.5,230.5C 387.43,230.632 384.43,230.299 381.5,229.5C 380.735,226.904 380.401,224.237 380.5,221.5C 380.232,219.901 380.566,218.568 381.5,217.5C 383.017,214.965 384.35,212.298 385.5,209.5C 385.833,208.833 386.167,208.167 386.5,207.5C 387.906,207.027 388.573,206.027 388.5,204.5C 391.871,201.129 394.871,197.463 397.5,193.5C 398.974,192.564 399.974,191.23 400.5,189.5C 400.5,188.833 400.833,188.5 401.5,188.5C 407.339,184.788 409.672,179.788 408.5,173.5C 408.5,172.833 408.5,172.167 408.5,171.5C 408.573,169.973 407.906,168.973 406.5,168.5C 406.5,167.833 406.5,167.167 406.5,166.5C 406.573,164.973 405.906,163.973 404.5,163.5C 401.375,162.521 398.042,162.187 394.5,162.5C 394.5,161.5 394.5,160.5 394.5,159.5C 396.167,158.5 397.5,157.167 398.5,155.5C 399.436,154.026 400.77,153.026 402.5,152.5C 405.206,152.575 407.873,152.908 410.5,153.5C 411.795,154.488 413.128,155.488 414.5,156.5C 414.599,159.639 415.932,161.973 418.5,163.5C 418.5,163.833 418.5,164.167 418.5,164.5C 418.62,165.586 419.287,166.253 420.5,166.5C 421.416,166.457 422.083,166.124 422.5,165.5C 423.833,164.833 424.833,163.833 425.5,162.5C 427.749,161.92 429.415,160.587 430.5,158.5C 431.694,157.728 432.694,156.728 433.5,155.5C 434.609,155.443 435.609,155.11 436.5,154.5C 440.335,152.75 444.001,150.75 447.5,148.5C 448.93,147.463 450.597,146.796 452.5,146.5 Z"/></g>
<g><path style="opacity:0.725" fill="#646464" d="M 194.5,143.5 C 193.99,146.674 192.323,149.008 189.5,150.5C 190.786,147.883 192.453,145.55 194.5,143.5 Z"/></g>
<g><path style="opacity:0.376" fill="#808080" d="M 470.5,148.5 C 472.404,148.738 473.738,149.738 474.5,151.5C 472.596,151.262 471.262,150.262 470.5,148.5 Z"/></g>
<g><path style="opacity:0.11" fill="#e0e0e0" d="M 139.5,125.5 C 140.167,125.5 140.833,125.5 141.5,125.5C 141.427,127.027 142.094,128.027 143.5,128.5C 143.328,129.492 143.662,130.158 144.5,130.5C 145.167,132.5 145.833,134.5 146.5,136.5C 146.427,138.027 147.094,139.027 148.5,139.5C 148.427,141.027 149.094,142.027 150.5,142.5C 150.5,142.833 150.5,143.167 150.5,143.5C 150.62,146.578 151.62,149.245 153.5,151.5C 154.143,153.076 155.143,154.41 156.5,155.5C 156.5,156.167 156.5,156.833 156.5,157.5C 156.5,158.833 156.5,160.167 156.5,161.5C 150.454,149.702 144.787,137.702 139.5,125.5 Z"/></g>
<g><path style="opacity:0.529" fill="#7a7a7a" d="M 172.5,147.5 C 173.906,147.973 174.573,148.973 174.5,150.5C 173.094,150.027 172.427,149.027 172.5,147.5 Z"/></g>
<g><path style="opacity:0.929" fill="#3f3f3f" d="M 445.5,148.5 C 446.167,148.5 446.833,148.5 447.5,148.5C 444.001,150.75 440.335,152.75 436.5,154.5C 436.833,153.833 437.167,153.167 437.5,152.5C 439.849,150.659 442.515,149.326 445.5,148.5 Z"/></g>
<g><path style="opacity:0.729" fill="#434343" d="M 129.5,143.5 C 129.5,145.5 129.5,147.5 129.5,149.5C 128.833,150.167 128.167,150.833 127.5,151.5C 127.565,148.572 128.232,145.905 129.5,143.5 Z"/></g>
<g><path style="opacity:0.114" fill="#dcdcdc" d="M 134.5,127.5 C 129.871,160.996 122.205,193.662 111.5,225.5C 111.5,224.167 111.5,222.833 111.5,221.5C 111.898,217.239 112.898,213.239 114.5,209.5C 116.102,205.761 117.102,201.761 117.5,197.5C 119.074,195.898 119.741,193.898 119.5,191.5C 119.216,189.585 119.549,187.919 120.5,186.5C 122.258,183.146 123.258,179.479 123.5,175.5C 123.5,175.167 123.5,174.833 123.5,174.5C 125.89,168.871 127.223,162.871 127.5,156.5C 128.924,154.485 129.59,152.152 129.5,149.5C 129.5,147.5 129.5,145.5 129.5,143.5C 130.404,142.791 130.737,141.791 130.5,140.5C 131.939,136.2 133.272,131.867 134.5,127.5 Z"/></g>
<g><path style="opacity:0.765" fill="#666666" d="M 189.5,150.5 C 189.262,152.404 188.262,153.738 186.5,154.5C 186.738,152.596 187.738,151.262 189.5,150.5 Z"/></g>
<g><path style="opacity:0.373" fill="#a4a4a4" d="M 240.5,144.5 C 240.5,145.5 240.5,146.5 240.5,147.5C 240.125,149.698 239.458,151.698 238.5,153.5C 238.42,150.219 239.087,147.219 240.5,144.5 Z"/></g>
<g><path style="opacity:0.906" fill="#292929" d="M 103.5,145.5 C 103.498,149.874 102.498,153.874 100.5,157.5C 100.5,156.167 100.5,154.833 100.5,153.5C 101.5,150.833 102.5,148.167 103.5,145.5 Z"/></g>
<g><path style="opacity:0.345" fill="#848484" d="M 263.5,145.5 C 263.884,149.489 263.217,153.155 261.5,156.5C 261.674,154.139 262.007,151.806 262.5,149.5C 262.232,147.901 262.566,146.568 263.5,145.5 Z"/></g>
<g><path style="opacity:0.933" fill="#2d2d2d" d="M 262.5,149.5 C 262.007,151.806 261.674,154.139 261.5,156.5C 260.992,160.736 259.992,164.736 258.5,168.5C 259.223,162.494 260.056,156.494 261,150.5C 261.383,149.944 261.883,149.611 262.5,149.5 Z"/></g>
<g><path style="opacity:0.082" fill="#e8e8e8" d="M 354.5,153.5 C 350.958,153.187 347.625,153.521 344.5,154.5C 342.167,155.167 339.833,155.833 337.5,156.5C 336.167,156.5 334.833,156.5 333.5,156.5C 340.139,152.699 347.139,151.699 354.5,153.5 Z"/></g>
<g><path style="opacity:0.251" fill="#c0c0c0" d="M 344.5,154.5 C 347.625,153.521 350.958,153.187 354.5,153.5C 359.755,154.424 363.088,157.424 364.5,162.5C 364.167,162.5 363.833,162.5 363.5,162.5C 361.021,158.42 357.354,156.087 352.5,155.5C 350.052,154.527 347.385,154.194 344.5,154.5 Z"/></g>
<g><path style="opacity:0.576" fill="#7e7e7e" d="M 437.5,152.5 C 437.167,153.167 436.833,153.833 436.5,154.5C 435.609,155.11 434.609,155.443 433.5,155.5C 434.262,153.738 435.596,152.738 437.5,152.5 Z"/></g>
<g><path style="opacity:0.482" fill="#8e8e8e" d="M 129.5,149.5 C 129.59,152.152 128.924,154.485 127.5,156.5C 127.5,155.5 127.5,154.5 127.5,153.5C 127.5,152.833 127.5,152.167 127.5,151.5C 128.167,150.833 128.833,150.167 129.5,149.5 Z"/></g>
<g><path style="opacity:0.655" fill="#575757" d="M 153.5,149.5 C 155.245,151.033 156.245,153.033 156.5,155.5C 155.143,154.41 154.143,153.076 153.5,151.5C 153.5,150.833 153.5,150.167 153.5,149.5 Z"/></g>
<g><path style="opacity:0.059" fill="#dedede" d="M 149.5,101.5 C 161.239,119.295 171.739,137.961 181,157.5C 194.651,139.357 208.818,121.69 223.5,104.5C 223.167,105.833 222.833,107.167 222.5,108.5C 221.094,108.973 220.427,109.973 220.5,111.5C 217.353,113.313 215.353,115.98 214.5,119.5C 212.086,120.911 210.419,122.911 209.5,125.5C 208.026,126.436 207.026,127.77 206.5,129.5C 206.167,130.5 205.5,131.167 204.5,131.5C 201.757,133.239 199.757,135.573 198.5,138.5C 196.413,139.585 195.08,141.251 194.5,143.5C 192.453,145.55 190.786,147.883 189.5,150.5C 187.738,151.262 186.738,152.596 186.5,154.5C 184.967,156.355 183.3,158.188 181.5,160C 180.423,160.47 179.423,160.303 178.5,159.5C 178.573,157.973 177.906,156.973 176.5,156.5C 175.833,154.5 175.167,152.5 174.5,150.5C 174.573,148.973 173.906,147.973 172.5,147.5C 172.34,145.847 171.674,144.514 170.5,143.5C 170.975,140.687 169.975,138.687 167.5,137.5C 167.5,137.167 167.5,136.833 167.5,136.5C 167.573,134.973 166.906,133.973 165.5,133.5C 165.5,133.167 165.5,132.833 165.5,132.5C 165.573,130.973 164.906,129.973 163.5,129.5C 163.443,128.391 163.11,127.391 162.5,126.5C 162.573,124.973 161.906,123.973 160.5,123.5C 159.702,121.034 158.369,119.034 156.5,117.5C 156.573,115.973 155.906,114.973 154.5,114.5C 154.573,112.973 153.906,111.973 152.5,111.5C 152.5,110.833 152.5,110.167 152.5,109.5C 152.573,107.973 151.906,106.973 150.5,106.5C 149.962,104.883 149.629,103.216 149.5,101.5 Z"/></g>
<g><path style="opacity:0.765" fill="#5a5a5a" d="M 344.5,154.5 C 347.385,154.194 350.052,154.527 352.5,155.5C 347.346,155.294 342.346,155.961 337.5,157.5C 337.5,157.167 337.5,156.833 337.5,156.5C 339.833,155.833 342.167,155.167 344.5,154.5 Z"/></g>
<g><path style="opacity:0.216" fill="#b8b8b8" d="M 333.5,156.5 C 334.833,156.5 336.167,156.5 337.5,156.5C 337.5,156.833 337.5,157.167 337.5,157.5C 334.833,158.167 332.167,158.833 329.5,159.5C 329.833,158.833 330.167,158.167 330.5,157.5C 331.209,156.596 332.209,156.263 333.5,156.5 Z"/></g>
<g><path style="opacity:1" fill="#070707" d="M 352.5,155.5 C 357.354,156.087 361.021,158.42 363.5,162.5C 363.642,171.524 363.308,180.524 362.5,189.5C 360.345,191.617 359.345,194.284 359.5,197.5C 358.463,198.93 357.796,200.597 357.5,202.5C 356.094,202.973 355.427,203.973 355.5,205.5C 355.5,205.833 355.5,206.167 355.5,206.5C 354.094,206.973 353.427,207.973 353.5,209.5C 351.122,211.878 349.122,214.545 347.5,217.5C 345.738,218.262 344.738,219.596 344.5,221.5C 342.738,222.262 341.738,223.596 341.5,225.5C 339.5,225.5 338.5,226.5 338.5,228.5C 337.167,228.5 336.5,229.167 336.5,230.5C 334.973,230.427 333.973,231.094 333.5,232.5C 332.167,232.5 331.5,233.167 331.5,234.5C 329.216,234.975 327.216,235.975 325.5,237.5C 323.973,237.427 322.973,238.094 322.5,239.5C 321.29,239.932 320.29,240.599 319.5,241.5C 318.833,241.5 318.167,241.5 317.5,241.5C 314.848,241.41 312.515,242.076 310.5,243.5C 304.285,245.14 298.285,244.807 292.5,242.5C 291.833,242.5 291.167,242.5 290.5,242.5C 289.833,241.167 288.833,240.167 287.5,239.5C 286.662,239.158 286.328,238.492 286.5,237.5C 284.887,232.993 284.221,228.327 284.5,223.5C 285.603,218.628 287.27,213.962 289.5,209.5C 290.167,207.5 290.833,205.5 291.5,203.5C 292.906,203.027 293.573,202.027 293.5,200.5C 293.833,199.833 294.167,199.167 294.5,198.5C 295.906,198.027 296.573,197.027 296.5,195.5C 298.121,193.736 299.454,191.736 300.5,189.5C 302.587,188.415 303.92,186.749 304.5,184.5C 306.587,183.415 307.92,181.749 308.5,179.5C 310.914,178.089 312.581,176.089 313.5,173.5C 316.5,171.167 319.167,168.5 321.5,165.5C 324.089,164.581 326.089,162.914 327.5,160.5C 328.167,160.167 328.833,159.833 329.5,159.5C 332.167,158.833 334.833,158.167 337.5,157.5C 342.346,155.961 347.346,155.294 352.5,155.5 Z M 350.5,169.5 C 351.497,169.47 352.164,169.97 352.5,171C 354.694,193.277 346.028,209.943 326.5,221C 320.066,225.09 313.066,227.256 305.5,227.5C 309.875,209.246 318.541,193.412 331.5,180C 337.606,175.95 343.939,172.45 350.5,169.5 Z"/></g>
<g><path style="opacity:0.19" fill="#dfdfdf" d="M 534.5,189.5 C 535.01,186.461 535.677,183.461 536.5,180.5C 536.721,177.933 537.388,175.599 538.5,173.5C 541.331,167.355 541.998,161.022 540.5,154.5C 540.598,152.447 539.931,150.78 538.5,149.5C 538.262,147.596 537.262,146.262 535.5,145.5C 533.668,143.106 531.168,142.106 528,142.5C 526.5,142.667 525,142.833 523.5,143C 522.944,143.383 522.611,143.883 522.5,144.5C 520.5,144.5 519.5,145.5 519.5,147.5C 516.916,148.048 515.916,149.715 516.5,152.5C 515.549,153.919 515.216,155.585 515.5,157.5C 514.833,157.833 514.167,158.167 513.5,158.5C 513.38,145.448 519.713,139.615 532.5,141C 541.49,145.818 544.99,153.318 543,163.5C 541.237,172.622 538.403,181.289 534.5,189.5 Z"/></g>
<g><path style="opacity:0.847" fill="#353535" d="M 538.5,149.5 C 539.931,150.78 540.598,152.447 540.5,154.5C 540.5,154.833 540.5,155.167 540.5,155.5C 538.926,153.898 538.259,151.898 538.5,149.5 Z"/></g>
<g><path style="opacity:0.667" fill="#6e6e6e" d="M 519.5,147.5 C 519.047,149.565 518.047,151.232 516.5,152.5C 515.916,149.715 516.916,148.048 519.5,147.5 Z"/></g>
<g><path style="opacity:0.686" fill="#666666" d="M 522.5,144.5 C 521.833,145.833 520.833,146.833 519.5,147.5C 519.5,145.5 520.5,144.5 522.5,144.5 Z"/></g>
<g><path style="opacity:0.643" fill="#6d6d6d" d="M 535.5,145.5 C 531.307,143.377 526.973,143.044 522.5,144.5C 522.611,143.883 522.944,143.383 523.5,143C 525,142.833 526.5,142.667 528,142.5C 531.168,142.106 533.668,143.106 535.5,145.5 Z"/></g>
<g><path style="opacity:0.067" fill="#dddddd" d="M 101.5,143.5 C 101.167,146.833 100.833,150.167 100.5,153.5C 100.5,154.833 100.5,156.167 100.5,157.5C 99.2318,159.905 98.5651,162.572 98.5,165.5C 96.9261,167.102 96.2594,169.102 96.5,171.5C 96.0074,173.806 95.6741,176.139 95.5,178.5C 94.3509,178.791 93.6842,179.624 93.5,181C 92.7844,183.792 92.4511,186.626 92.5,189.5C 91.4625,190.93 90.7959,192.597 90.5,194.5C 89.8333,194.833 89.1667,195.167 88.5,195.5C 92.8499,178.057 97.1832,160.724 101.5,143.5 Z"/></g>
<g><path style="opacity:0.8" fill="#454545" d="M 176.5,156.5 C 177.906,156.973 178.573,157.973 178.5,159.5C 177.094,159.027 176.427,158.027 176.5,156.5 Z"/></g>
<g><path style="opacity:0.549" fill="#7d7d7d" d="M 540.5,154.5 C 541.998,161.022 541.331,167.355 538.5,173.5C 538.517,171.435 538.85,169.435 539.5,167.5C 540.021,163.519 540.354,159.519 540.5,155.5C 540.5,155.167 540.5,154.833 540.5,154.5 Z"/></g>
<g><path style="opacity:0.769" fill="#585858" d="M 186.5,154.5 C 185.866,157.643 184.2,160.143 181.5,162C 179.511,162.519 178.511,161.686 178.5,159.5C 179.423,160.303 180.423,160.47 181.5,160C 183.3,158.188 184.967,156.355 186.5,154.5 Z"/></g>
<g><path style="opacity:0.137" fill="#d2d2d2" d="M 452.5,144.5 C 456.371,144.185 460.038,144.518 463.5,145.5C 459.833,145.5 456.167,145.5 452.5,145.5C 449.509,145.166 447.176,146.166 445.5,148.5C 442.515,149.326 439.849,150.659 437.5,152.5C 435.596,152.738 434.262,153.738 433.5,155.5C 432.694,156.728 431.694,157.728 430.5,158.5C 428.251,159.08 426.585,160.413 425.5,162.5C 423.5,162.5 422.5,163.5 422.5,165.5C 421.041,165.567 419.708,165.234 418.5,164.5C 418.5,164.167 418.5,163.833 418.5,163.5C 417.921,160.669 416.588,158.336 414.5,156.5C 413.128,155.488 411.795,154.488 410.5,153.5C 408.007,151.416 405.34,151.083 402.5,152.5C 400.77,153.026 399.436,154.026 398.5,155.5C 396.167,155.833 394.833,157.167 394.5,159.5C 393.655,160.671 392.989,162.005 392.5,163.5C 391.957,163.56 391.624,163.893 391.5,164.5C 392.325,165.386 393.325,165.719 394.5,165.5C 392.58,166.94 390.913,166.607 389.5,164.5C 399.103,145.289 409.77,144.622 421.5,162.5C 429.232,155.266 437.899,149.432 447.5,145C 449.134,144.506 450.801,144.34 452.5,144.5 Z"/></g>
<g><path style="opacity:0.98" fill="#3e3e3e" d="M 414.5,156.5 C 416.588,158.336 417.921,160.669 418.5,163.5C 415.932,161.973 414.599,159.639 414.5,156.5 Z"/></g>
<g><path style="opacity:0.769" fill="#5a5a5a" d="M 398.5,155.5 C 397.5,157.167 396.167,158.5 394.5,159.5C 394.833,157.167 396.167,155.833 398.5,155.5 Z"/></g>
<g><path style="opacity:0.602" fill="#6b6b6b" d="M 402.5,152.5 C 405.34,151.083 408.007,151.416 410.5,153.5C 407.873,152.908 405.206,152.575 402.5,152.5 Z"/></g>
<g><path style="opacity:0.157" fill="#a0a0a0" d="M 156.5,157.5 C 158.629,160.54 160.296,163.873 161.5,167.5C 159.833,165.5 158.167,163.5 156.5,161.5C 156.5,160.167 156.5,158.833 156.5,157.5 Z"/></g>
<g><path style="opacity:0.906" fill="#3c3c3c" d="M 430.5,158.5 C 429.415,160.587 427.749,161.92 425.5,162.5C 426.585,160.413 428.251,159.08 430.5,158.5 Z"/></g>
<g><path style="opacity:0.518" fill="#7d7d7d" d="M 127.5,153.5 C 127.5,154.5 127.5,155.5 127.5,156.5C 127.223,162.871 125.89,168.871 123.5,174.5C 124.345,167.282 125.678,160.282 127.5,153.5 Z"/></g>
<g><path style="opacity:0.871" fill="#414141" d="M 394.5,159.5 C 394.5,160.5 394.5,161.5 394.5,162.5C 398.042,162.187 401.375,162.521 404.5,163.5C 400.958,163.187 397.625,163.521 394.5,164.5C 393.508,164.672 392.842,164.338 392.5,163.5C 392.989,162.005 393.655,160.671 394.5,159.5 Z"/></g>
<g><path style="opacity:0.855" fill="#4c4c4c" d="M 327.5,160.5 C 326.089,162.914 324.089,164.581 321.5,165.5C 322.911,163.086 324.911,161.419 327.5,160.5 Z"/></g>
<g><path style="opacity:0.765" fill="#535353" d="M 425.5,162.5 C 424.833,163.833 423.833,164.833 422.5,165.5C 422.5,163.5 423.5,162.5 425.5,162.5 Z"/></g>
<g><path style="opacity:0.4" fill="#7b7b7b" d="M 217.5,150.5 C 212.704,159.082 206.704,166.748 199.5,173.5C 205.261,165.643 211.261,157.977 217.5,150.5 Z"/></g>
<g><path style="opacity:0.455" fill="#8b8b8b" d="M 392.5,163.5 C 392.842,164.338 393.508,164.672 394.5,164.5C 394.5,164.833 394.5,165.167 394.5,165.5C 393.325,165.719 392.325,165.386 391.5,164.5C 391.624,163.893 391.957,163.56 392.5,163.5 Z"/></g>
<g><path style="opacity:0.525" fill="#757575" d="M 237.5,159.5 C 237.785,162.829 237.118,165.829 235.5,168.5C 235.676,165.273 236.343,162.273 237.5,159.5 Z"/></g>
<g><path style="opacity:0.075" fill="#d7d7d7" d="M 267.5,86.5 C 270.024,117.639 267.191,148.305 259,178.5C 254.941,194.419 250.441,210.086 245.5,225.5C 245.5,222.833 245.5,220.167 245.5,217.5C 245.5,217.167 245.5,216.833 245.5,216.5C 246.871,214.064 247.871,211.397 248.5,208.5C 248.802,205.627 249.469,202.961 250.5,200.5C 252.31,197.855 253.31,194.855 253.5,191.5C 255.04,189.162 255.706,186.495 255.5,183.5C 255.5,182.833 255.5,182.167 255.5,181.5C 258.035,177.645 259.035,173.312 258.5,168.5C 259.992,164.736 260.992,160.736 261.5,156.5C 263.217,153.155 263.884,149.489 263.5,145.5C 265.913,137.135 266.913,128.469 266.5,119.5C 266.172,108.321 266.505,97.3206 267.5,86.5 Z"/></g>
<g><path style="opacity:0.396" fill="#a4a4a4" d="M 515.5,157.5 C 515.326,159.861 514.993,162.194 514.5,164.5C 513.775,168.231 512.775,171.898 511.5,175.5C 511.927,171.176 512.261,166.842 512.5,162.5C 512.232,160.901 512.566,159.568 513.5,158.5C 514.167,158.167 514.833,157.833 515.5,157.5 Z"/></g>
<g><path style="opacity:0.816" fill="#505050" d="M 321.5,165.5 C 319.167,168.5 316.5,171.167 313.5,173.5C 315.167,169.833 317.833,167.167 321.5,165.5 Z"/></g>
<g><path style="opacity:0.125" fill="#e7e7e7" d="M 364.5,162.5 C 365.657,170.99 365.824,179.657 365,188.5C 364.768,189.737 364.268,190.737 363.5,191.5C 364.36,181.861 364.693,172.194 364.5,162.5 Z"/></g>
<g><path style="opacity:0.561" fill="#7b7b7b" d="M 98.5,165.5 C 98.4828,167.565 98.1495,169.565 97.5,171.5C 97.1667,171.5 96.8333,171.5 96.5,171.5C 96.2594,169.102 96.9261,167.102 98.5,165.5 Z"/></g>
<g><path style="opacity:0.557" fill="#585858" d="M 341.5,170.5 C 341.027,171.906 340.027,172.573 338.5,172.5C 338.973,171.094 339.973,170.427 341.5,170.5 Z"/></g>
<g><path style="opacity:0.118" fill="#dbdbdb" d="M 330.5,157.5 C 330.167,158.167 329.833,158.833 329.5,159.5C 328.833,159.833 328.167,160.167 327.5,160.5C 324.911,161.419 322.911,163.086 321.5,165.5C 317.833,167.167 315.167,169.833 313.5,173.5C 311.086,174.911 309.419,176.911 308.5,179.5C 306.413,180.585 305.08,182.251 304.5,184.5C 302.413,185.585 301.08,187.251 300.5,189.5C 299.5,189.5 298.5,189.5 297.5,189.5C 305.267,177.9 314.6,167.733 325.5,159C 327.154,158.392 328.821,157.892 330.5,157.5 Z"/></g>
<g><path style="opacity:0.875" fill="#2c2c2c" d="M 539.5,167.5 C 538.85,169.435 538.517,171.435 538.5,173.5C 537.388,175.599 536.721,177.933 536.5,180.5C 536.167,180.5 535.833,180.5 535.5,180.5C 535.791,175.621 537.124,171.288 539.5,167.5 Z"/></g>
<g><path style="opacity:0.282" fill="#969696" d="M 234.5,172.5 C 234.279,175.067 233.612,177.401 232.5,179.5C 232.338,177.473 232.505,175.473 233,173.5C 233.383,172.944 233.883,172.611 234.5,172.5 Z"/></g>
<g><path style="opacity:0.935" fill="#242424" d="M 514.5,164.5 C 514.876,169.894 513.876,174.894 511.5,179.5C 511.5,178.167 511.5,176.833 511.5,175.5C 512.775,171.898 513.775,168.231 514.5,164.5 Z"/></g>
<g><path style="opacity:0.067" fill="#e5e5e5" d="M 512.5,162.5 C 512.261,166.842 511.927,171.176 511.5,175.5C 509.864,179.21 509.198,183.21 509.5,187.5C 508.344,195.323 508.177,203.323 509,211.5C 509.498,213.544 510.665,214.878 512.5,215.5C 512.557,216.609 512.89,217.609 513.5,218.5C 510.548,217.641 508.715,215.641 508,212.5C 505.877,195.406 507.377,178.739 512.5,162.5 Z"/></g>
<g><path style="opacity:0.808" fill="#545454" d="M 313.5,173.5 C 312.581,176.089 310.914,178.089 308.5,179.5C 309.419,176.911 311.086,174.911 313.5,173.5 Z"/></g>
<g><path style="opacity:0.371" fill="#979797" d="M 363.5,162.5 C 363.833,162.5 364.167,162.5 364.5,162.5C 364.693,172.194 364.36,181.861 363.5,191.5C 363.167,191.5 362.833,191.5 362.5,191.5C 362.5,190.833 362.5,190.167 362.5,189.5C 363.308,180.524 363.642,171.524 363.5,162.5 Z"/></g>
<g><path style="opacity:0.451" fill="#747474" d="M 258.5,168.5 C 259.035,173.312 258.035,177.645 255.5,181.5C 256.34,177.015 257.34,172.681 258.5,168.5 Z"/></g>
<g><path style="opacity:0.373" fill="#979797" d="M 95.5,178.5 C 94.8505,180.435 94.5172,182.435 94.5,184.5C 93.9759,186.306 93.3092,187.972 92.5,189.5C 92.4511,186.626 92.7844,183.792 93.5,181C 93.6842,179.624 94.3509,178.791 95.5,178.5 Z"/></g>
<g><path style="opacity:0.063" fill="#d9d9d9" d="M 238.5,153.5 C 238.795,155.735 238.461,157.735 237.5,159.5C 236.343,162.273 235.676,165.273 235.5,168.5C 234.566,169.568 234.232,170.901 234.5,172.5C 233.883,172.611 233.383,172.944 233,173.5C 232.505,175.473 232.338,177.473 232.5,179.5C 232.768,181.099 232.434,182.432 231.5,183.5C 229.926,185.102 229.259,187.102 229.5,189.5C 228.833,189.833 228.167,190.167 227.5,190.5C 230.168,179.829 232.834,169.163 235.5,158.5C 236.935,157.087 237.935,155.42 238.5,153.5 Z"/></g>
<g><path style="opacity:0.725" fill="#5c5c5c" d="M 308.5,179.5 C 307.92,181.749 306.587,183.415 304.5,184.5C 305.08,182.251 306.413,180.585 308.5,179.5 Z"/></g>
<g><path style="opacity:0.439" fill="#707070" d="M 338.5,172.5 C 332.177,177.491 326.177,182.824 320.5,188.5C 321.134,185.357 322.8,182.857 325.5,181C 329.207,177.15 333.54,174.317 338.5,172.5 Z"/></g>
<g><path style="opacity:0.902" fill="#323232" d="M 96.5,171.5 C 96.8333,171.5 97.1667,171.5 97.5,171.5C 97.0482,175.163 96.5482,178.83 96,182.5C 95.7216,183.416 95.2216,184.082 94.5,184.5C 94.5172,182.435 94.8505,180.435 95.5,178.5C 95.6741,176.139 96.0074,173.806 96.5,171.5 Z"/></g>
<g><path style="opacity:0.659" fill="#626262" d="M 123.5,175.5 C 123.258,179.479 122.258,183.146 120.5,186.5C 120.451,183.626 120.784,180.792 121.5,178C 121.684,176.624 122.351,175.791 123.5,175.5 Z"/></g>
<g><path style="opacity:0.11" fill="#dfdfdf" d="M 242.5,115.5 C 243.833,117.167 243.833,118.833 242.5,120.5C 242.565,120.062 242.399,119.728 242,119.5C 232.828,130.343 224.828,142.009 218,154.5C 208.619,165.545 199.619,176.879 191,188.5C 181.774,194.762 173.774,193.429 167,184.5C 162.934,177.039 159.434,169.373 156.5,161.5C 158.167,163.5 159.833,165.5 161.5,167.5C 162.338,167.842 162.672,168.508 162.5,169.5C 163.367,173.329 165.033,176.663 167.5,179.5C 168.674,180.514 169.34,181.847 169.5,183.5C 170.5,186.5 172.5,188.5 175.5,189.5C 178.833,189.5 182.167,189.5 185.5,189.5C 188.5,188.5 190.5,186.5 191.5,183.5C 193.914,182.089 195.581,180.089 196.5,177.5C 198.262,176.738 199.262,175.404 199.5,173.5C 206.704,166.748 212.704,159.082 217.5,150.5C 217.328,149.508 217.662,148.842 218.5,148.5C 220.25,147.341 221.25,145.674 221.5,143.5C 222.338,143.158 222.672,142.492 222.5,141.5C 224.262,140.738 225.262,139.404 225.5,137.5C 227.262,136.738 228.262,135.404 228.5,133.5C 230.326,131.853 231.66,129.853 232.5,127.5C 234.262,126.738 235.262,125.404 235.5,123.5C 237.833,120.833 240.167,118.167 242.5,115.5 Z"/></g>
<g><path style="opacity:0.439" fill="#757575" d="M 196.5,177.5 C 195.581,180.089 193.914,182.089 191.5,183.5C 192.419,180.911 194.086,178.911 196.5,177.5 Z"/></g>
<g><path style="opacity:0.4" fill="#757575" d="M 199.5,173.5 C 199.262,175.404 198.262,176.738 196.5,177.5C 196.738,175.596 197.738,174.262 199.5,173.5 Z"/></g>
<g><path style="opacity:0.486" fill="#727272" d="M 162.5,169.5 C 164.967,172.337 166.633,175.671 167.5,179.5C 165.033,176.663 163.367,173.329 162.5,169.5 Z"/></g>
<g><path style="opacity:0.333" fill="#8b8b8b" d="M 169.5,183.5 C 171.833,185.167 173.833,187.167 175.5,189.5C 172.5,188.5 170.5,186.5 169.5,183.5 Z"/></g>
<g><path style="opacity:0.388" fill="#858585" d="M 191.5,183.5 C 190.5,186.5 188.5,188.5 185.5,189.5C 187.118,187.215 189.118,185.215 191.5,183.5 Z"/></g>
<g><path style="opacity:0.298" fill="#9a9a9a" d="M 255.5,183.5 C 255.706,186.495 255.04,189.162 253.5,191.5C 253.565,188.572 254.232,185.905 255.5,183.5 Z"/></g>
<g><path style="opacity:0.741" fill="#656565" d="M 304.5,184.5 C 303.92,186.749 302.587,188.415 300.5,189.5C 301.08,187.251 302.413,185.585 304.5,184.5 Z"/></g>
<g><path style="opacity:0.682" fill="#616161" d="M 511.5,175.5 C 511.5,176.833 511.5,178.167 511.5,179.5C 511.149,183.684 510.482,187.684 509.5,191.5C 509.5,190.167 509.5,188.833 509.5,187.5C 509.198,183.21 509.864,179.21 511.5,175.5 Z"/></g>
<g><path style="opacity:0.163" fill="#e3e3e3" d="M 701.5,211.5 C 705.5,209.833 709.5,208.167 713.5,206.5C 715.966,205.702 717.966,204.369 719.5,202.5C 720.906,202.027 721.573,201.027 721.5,199.5C 723.68,194.764 722.347,191.431 717.5,189.5C 714.644,187.994 711.477,187.328 708,187.5C 699.183,188.283 690.35,188.616 681.5,188.5C 690.306,187.08 699.306,186.08 708.5,185.5C 714.734,185.535 719.901,187.868 724,192.5C 725.374,201.481 721.541,206.981 712.5,209C 708.93,210.31 705.263,211.143 701.5,211.5 Z"/></g>
<g><path style="opacity:0.271" fill="#9b9b9b" d="M 535.5,180.5 C 535.833,180.5 536.167,180.5 536.5,180.5C 535.677,183.461 535.01,186.461 534.5,189.5C 533.833,190.167 533.167,190.833 532.5,191.5C 532.5,190.833 532.5,190.167 532.5,189.5C 533.331,186.341 534.331,183.341 535.5,180.5 Z"/></g>
<g><path style="opacity:0.473" fill="#8c8c8c" d="M 717.5,189.5 C 704.833,188.833 692.166,189.166 679.5,190.5C 680.167,189.833 680.833,189.167 681.5,188.5C 690.35,188.616 699.183,188.283 708,187.5C 711.477,187.328 714.644,187.994 717.5,189.5 Z"/></g>
<g><path style="opacity:0.62" fill="#737373" d="M 231.5,183.5 C 231.946,186.01 231.28,188.01 229.5,189.5C 229.259,187.102 229.926,185.102 231.5,183.5 Z"/></g>
<g><path style="opacity:0.784" fill="#5a5a5a" d="M 352.5,194.5 C 355.228,186.261 355.728,177.927 354,169.5C 350.394,168.237 346.894,168.57 343.5,170.5C 345.511,168.249 348.178,166.915 351.5,166.5C 353.029,166.529 354.196,167.196 355,168.5C 356.942,176.885 356.609,185.218 354,193.5C 353.617,194.056 353.117,194.389 352.5,194.5 Z"/></g>
<g><path style="opacity:0.957" fill="#343434" d="M 635.5,183.5 C 635.204,185.403 634.537,187.07 633.5,188.5C 632.532,190.607 632.198,192.941 632.5,195.5C 631.2,192.976 631.2,190.309 632.5,187.5C 633.15,185.816 634.15,184.483 635.5,183.5 Z"/></g>
<g><path style="opacity:0.216" fill="#c4c4c4" d="M 623.5,153.5 C 623.833,153.5 624.167,153.5 624.5,153.5C 623.4,154.605 622.733,155.938 622.5,157.5C 620.469,158.539 619.136,160.205 618.5,162.5C 616.738,163.262 615.738,164.596 615.5,166.5C 614.094,166.973 613.427,167.973 613.5,169.5C 612.094,169.973 611.427,170.973 611.5,172.5C 611.5,173.167 611.5,173.833 611.5,174.5C 609.755,176.033 608.755,178.033 608.5,180.5C 608.5,180.833 608.5,181.167 608.5,181.5C 606.837,183.438 606.171,185.772 606.5,188.5C 605.515,192.634 605.182,196.968 605.5,201.5C 604.515,197.366 604.182,193.032 604.5,188.5C 606.931,174.632 613.265,162.965 623.5,153.5 Z"/></g>
<g><path style="opacity:0.11" fill="#a5a5a5" d="M 297.5,189.5 C 298.5,189.5 299.5,189.5 300.5,189.5C 299.454,191.736 298.121,193.736 296.5,195.5C 297.038,193.883 297.371,192.216 297.5,190.5C 297.5,190.167 297.5,189.833 297.5,189.5 Z"/></g>
<g><path style="opacity:0.451" fill="#707070" d="M 717.5,189.5 C 722.347,191.431 723.68,194.764 721.5,199.5C 721.662,197.473 721.495,195.473 721,193.5C 719.624,192.295 718.458,190.962 717.5,189.5 Z"/></g>
<g><path style="opacity:0.455" fill="#8a8a8a" d="M 477.5,157.5 C 479.117,161.54 479.95,165.873 480,170.5C 480.667,176.833 480.667,183.167 480,189.5C 478.794,197.466 476.96,205.133 474.5,212.5C 476.653,201.079 478.32,189.579 479.5,178C 478.997,171.14 478.331,164.307 477.5,157.5 Z"/></g>
<g><path style="opacity:0.769" fill="#424242" d="M 532.5,189.5 C 532.5,190.167 532.5,190.833 532.5,191.5C 531.833,191.833 531.167,192.167 530.5,192.5C 530.427,190.973 531.094,189.973 532.5,189.5 Z"/></g>
<g><path style="opacity:0.71" fill="#686868" d="M 92.5,189.5 C 92.5905,192.152 91.9238,194.485 90.5,196.5C 90.5,195.833 90.5,195.167 90.5,194.5C 90.7959,192.597 91.4625,190.93 92.5,189.5 Z"/></g>
<g><path style="opacity:0.224" fill="#8b8b8b" d="M 320.5,188.5 C 320.408,190.848 319.408,192.514 317.5,193.5C 317.75,191.326 318.75,189.659 320.5,188.5 Z"/></g>
<g><path style="opacity:0.745" fill="#6d6d6d" d="M 671.5,191.5 C 668.373,192.581 665.04,193.247 661.5,193.5C 660.167,193.5 658.833,193.5 657.5,193.5C 661.919,192.028 666.586,191.362 671.5,191.5 Z"/></g>
<g><path style="opacity:0.057" fill="#eaeaea" d="M 534.5,189.5 C 533.737,193.137 532.403,196.47 530.5,199.5C 530.963,196.779 531.629,194.112 532.5,191.5C 533.167,190.833 533.833,190.167 534.5,189.5 Z"/></g>
<g><path style="opacity:0.229" fill="#a4a4a4" d="M 633.5,188.5 C 633.5,190.5 633.5,192.5 633.5,194.5C 637.167,194.5 640.833,194.5 644.5,194.5C 644.5,194.833 644.5,195.167 644.5,195.5C 640.5,195.5 636.5,195.5 632.5,195.5C 632.198,192.941 632.532,190.607 633.5,188.5 Z"/></g>
<g><path style="opacity:0.906" fill="#3f3f3f" d="M 657.5,193.5 C 658.833,193.5 660.167,193.5 661.5,193.5C 656.056,194.884 650.389,195.55 644.5,195.5C 644.5,195.167 644.5,194.833 644.5,194.5C 648.857,194.414 653.19,194.08 657.5,193.5 Z"/></g>
<g><path style="opacity:0.141" fill="#b8b8b8" d="M 90.5,194.5 C 90.5,195.167 90.5,195.833 90.5,196.5C 89.6586,198.379 89.3253,200.379 89.5,202.5C 88.8333,203.5 88.1667,204.5 87.5,205.5C 87.9629,202.518 88.2962,199.518 88.5,196.5C 88.5,196.167 88.5,195.833 88.5,195.5C 89.1667,195.167 89.8333,194.833 90.5,194.5 Z"/></g>
<g><path style="opacity:0.561" fill="#646464" d="M 119.5,191.5 C 119.741,193.898 119.074,195.898 117.5,197.5C 117.259,195.102 117.926,193.102 119.5,191.5 Z"/></g>
<g><path style="opacity:0.306" fill="#adadad" d="M 229.5,189.5 C 229.5,190.167 229.5,190.833 229.5,191.5C 228.749,194.246 227.749,196.913 226.5,199.5C 226.963,196.518 227.296,193.518 227.5,190.5C 228.167,190.167 228.833,189.833 229.5,189.5 Z"/></g>
<g><path style="opacity:0.467" fill="#7b7b7b" d="M 253.5,191.5 C 253.31,194.855 252.31,197.855 250.5,200.5C 250.528,197.084 251.528,194.084 253.5,191.5 Z"/></g>
<g><path style="opacity:0.565" fill="#575757" d="M 362.5,189.5 C 362.5,190.167 362.5,190.833 362.5,191.5C 361.542,193.302 360.875,195.302 360.5,197.5C 360.167,197.5 359.833,197.5 359.5,197.5C 359.345,194.284 360.345,191.617 362.5,189.5 Z"/></g>
<g><path style="opacity:0.161" fill="#dcdcdc" d="M 681.5,188.5 C 680.833,189.167 680.167,189.833 679.5,190.5C 676.615,190.194 673.948,190.527 671.5,191.5C 666.586,191.362 661.919,192.028 657.5,193.5C 653.19,194.08 648.857,194.414 644.5,194.5C 640.833,194.5 637.167,194.5 633.5,194.5C 633.5,192.5 633.5,190.5 633.5,188.5C 634.537,187.07 635.204,185.403 635.5,183.5C 635.557,182.391 635.89,181.391 636.5,180.5C 637.906,180.027 638.573,179.027 638.5,177.5C 639.167,176.5 639.833,175.5 640.5,174.5C 642.008,172.819 643.008,170.819 643.5,168.5C 644.925,167.078 645.925,165.411 646.5,163.5C 651.183,157.528 656.35,151.861 662,146.5C 662.791,145.255 663.291,143.922 663.5,142.5C 663.971,140.712 664.304,138.878 664.5,137C 664.693,134.992 664.026,133.492 662.5,132.5C 662.167,132.5 661.833,132.5 661.5,132.5C 660.726,131.853 659.726,131.52 658.5,131.5C 656.645,131.34 655.312,132.007 654.5,133.5C 649.323,134.615 644.323,135.948 639.5,137.5C 633.895,137.779 628.562,138.779 623.5,140.5C 622.833,140.5 622.167,140.5 621.5,140.5C 612.845,141.249 604.178,141.916 595.5,142.5C 595.672,141.508 595.338,140.842 594.5,140.5C 594.047,139.542 593.381,138.708 592.5,138C 583.053,136.26 577.053,140.093 574.5,149.5C 574.167,150.833 573.833,152.167 573.5,153.5C 571,156.66 569.667,160.327 569.5,164.5C 568.631,166.717 568.298,169.05 568.5,171.5C 566.223,177.159 565.223,183.159 565.5,189.5C 564.345,196.655 564.178,203.988 565,211.5C 565.353,214.152 566.52,216.152 568.5,217.5C 568.833,219.833 570.167,221.167 572.5,221.5C 572.611,222.117 572.944,222.617 573.5,223C 577.167,223.667 580.833,223.667 584.5,223C 585.056,222.617 585.389,222.117 585.5,221.5C 588.091,220.746 589.924,219.079 591,216.5C 591.499,212.514 591.666,208.514 591.5,204.5C 591.347,198.131 591.68,191.797 592.5,185.5C 594.103,179.675 595.436,173.675 596.5,167.5C 596.993,165.194 597.326,162.861 597.5,160.5C 597.205,158.265 597.539,156.265 598.5,154.5C 606.874,151.769 615.541,150.102 624.5,149.5C 628.122,150.364 628.122,151.697 624.5,153.5C 624.167,153.5 623.833,153.5 623.5,153.5C 622.848,152.275 621.681,151.608 620,151.5C 613.093,152.393 606.427,154.06 600,156.5C 598.18,168.269 595.846,179.935 593,191.5C 592.368,198.016 592.534,204.516 593.5,211C 590.904,225.571 582.904,229.571 569.5,223C 566.485,220.137 564.651,216.637 564,212.5C 561.03,187.615 565.03,163.949 576,141.5C 582.658,134.094 589.824,133.594 597.5,140C 617.44,140.121 636.773,136.788 655.5,130C 666.044,129.587 669.211,134.42 665,144.5C 658.093,152.651 651.426,160.984 645,169.5C 640.947,176.938 637.447,184.605 634.5,192.5C 636.333,192.833 638.167,193.167 640,193.5C 653.86,191.942 667.694,190.275 681.5,188.5 Z"/></g>
<g><path style="opacity:0.85" fill="#393939" d="M 568.5,171.5 C 567.135,184.46 566.469,197.46 566.5,210.5C 565.509,203.687 565.175,196.687 565.5,189.5C 565.223,183.159 566.223,177.159 568.5,171.5 Z"/></g>
<g><path style="opacity:0.714" fill="#4f4f4f" d="M 608.5,181.5 C 608.59,184.152 607.924,186.485 606.5,188.5C 606.171,185.772 606.837,183.438 608.5,181.5 Z"/></g>
<g><path style="opacity:0.561" fill="#6c6c6c" d="M 638.5,177.5 C 638.573,179.027 637.906,180.027 636.5,180.5C 636.427,178.973 637.094,177.973 638.5,177.5 Z"/></g>
<g><path style="opacity:0.761" fill="#414141" d="M 611.5,174.5 C 611.245,176.967 610.245,178.967 608.5,180.5C 608.755,178.033 609.755,176.033 611.5,174.5 Z"/></g>
<g><path style="opacity:0.741" fill="#565656" d="M 640.5,172.5 C 640.5,173.167 640.5,173.833 640.5,174.5C 639.833,175.5 639.167,176.5 638.5,177.5C 638.12,175.302 638.787,173.635 640.5,172.5 Z"/></g>
<g><path style="opacity:0.392" fill="#8a8a8a" d="M 596.5,167.5 C 595.436,173.675 594.103,179.675 592.5,185.5C 592.43,180.391 593.097,175.391 594.5,170.5C 595.167,169.5 595.833,168.5 596.5,167.5 Z"/></g>
<g><path style="opacity:0.243" fill="#9a9a9a" d="M 642.5,168.5 C 642.833,168.5 643.167,168.5 643.5,168.5C 643.008,170.819 642.008,172.819 640.5,174.5C 640.5,173.833 640.5,173.167 640.5,172.5C 640.66,170.847 641.326,169.514 642.5,168.5 Z"/></g>
<g><path style="opacity:0.58" fill="#6b6b6b" d="M 613.5,169.5 C 613.573,171.027 612.906,172.027 611.5,172.5C 611.427,170.973 612.094,169.973 613.5,169.5 Z"/></g>
<g><path style="opacity:0.71" fill="#555555" d="M 615.5,166.5 C 615.573,168.027 614.906,169.027 613.5,169.5C 613.427,167.973 614.094,166.973 615.5,166.5 Z"/></g>
<g><path style="opacity:0.682" fill="#606060" d="M 646.5,163.5 C 645.925,165.411 644.925,167.078 643.5,168.5C 643.167,168.5 642.833,168.5 642.5,168.5C 643.08,166.251 644.413,164.585 646.5,163.5 Z"/></g>
<g><path style="opacity:0.588" fill="#5c5c5c" d="M 597.5,160.5 C 597.326,162.861 596.993,165.194 596.5,167.5C 595.833,168.5 595.167,169.5 594.5,170.5C 594.59,166.786 595.59,163.452 597.5,160.5 Z"/></g>
<g><path style="opacity:0.816" fill="#4e4e4e" d="M 618.5,162.5 C 618.262,164.404 617.262,165.738 615.5,166.5C 615.738,164.596 616.738,163.262 618.5,162.5 Z"/></g>
<g><path style="opacity:0.812" fill="#545454" d="M 622.5,157.5 C 621.876,159.754 620.543,161.421 618.5,162.5C 619.136,160.205 620.469,158.539 622.5,157.5 Z"/></g>
<g><path style="opacity:0.796" fill="#626262" d="M 573.5,153.5 C 572.975,157.533 571.642,161.2 569.5,164.5C 569.667,160.327 571,156.66 573.5,153.5 Z"/></g>
<g><path style="opacity:0.29" fill="#838383" d="M 622.5,157.5 C 622.733,155.938 623.4,154.605 624.5,153.5C 628.122,151.697 628.122,150.364 624.5,149.5C 615.541,150.102 606.874,151.769 598.5,154.5C 609.17,149.86 620.503,147.694 632.5,148C 629.324,151.343 625.991,154.51 622.5,157.5 Z"/></g>
<g><path style="opacity:0.4" fill="#787878" d="M 662.5,142.5 C 662.833,142.5 663.167,142.5 663.5,142.5C 663.291,143.922 662.791,145.255 662,146.5C 656.35,151.861 651.183,157.528 646.5,163.5C 647.072,161.745 647.906,160.078 649,158.5C 653.711,153.294 658.211,147.961 662.5,142.5 Z"/></g>
<g><path style="opacity:0.902" fill="#545454" d="M 621.5,140.5 C 621.082,141.222 620.416,141.722 619.5,142C 611.353,143.376 603.353,143.543 595.5,142.5C 604.178,141.916 612.845,141.249 621.5,140.5 Z"/></g>
<g><path style="opacity:0.702" fill="#6a6a6a" d="M 639.5,137.5 C 634.438,139.221 629.105,140.221 623.5,140.5C 628.562,138.779 633.895,137.779 639.5,137.5 Z"/></g>
<g><path style="opacity:0.824" fill="#383838" d="M 662.5,132.5 C 664.026,133.492 664.693,134.992 664.5,137C 664.304,138.878 663.971,140.712 663.5,142.5C 663.167,142.5 662.833,142.5 662.5,142.5C 663.707,139.148 663.707,135.814 662.5,132.5 Z"/></g>
<g><path style="opacity:0.684" fill="#666666" d="M 594.5,140.5 C 590.977,138.913 587.31,138.413 583.5,139C 579.859,142.126 576.859,145.626 574.5,149.5C 577.053,140.093 583.053,136.26 592.5,138C 593.381,138.708 594.047,139.542 594.5,140.5 Z"/></g>
<g><path style="opacity:0.961" fill="#363636" d="M 654.5,133.5 C 650.178,136.797 645.178,138.13 639.5,137.5C 644.323,135.948 649.323,134.615 654.5,133.5 Z"/></g>
<g><path style="opacity:0.686" fill="#616161" d="M 661.5,132.5 C 659.097,132.448 656.764,132.781 654.5,133.5C 655.312,132.007 656.645,131.34 658.5,131.5C 659.726,131.52 660.726,131.853 661.5,132.5 Z"/></g>
<g><path style="opacity:0.283" fill="#a6a6a6" d="M 592.5,185.5 C 591.68,191.797 591.347,198.131 591.5,204.5C 591.167,204.5 590.833,204.5 590.5,204.5C 590.334,199.156 590.501,193.823 591,188.5C 591.232,187.263 591.732,186.263 592.5,185.5 Z"/></g>
<g><path style="opacity:0.502" fill="#888888" d="M 296.5,195.5 C 296.573,197.027 295.906,198.027 294.5,198.5C 294.427,196.973 295.094,195.973 296.5,195.5 Z"/></g>
<g><path style="opacity:0.988" fill="#2d2d2d" d="M 229.5,191.5 C 230.114,196.069 229.114,200.069 226.5,203.5C 226.5,202.167 226.5,200.833 226.5,199.5C 227.749,196.913 228.749,194.246 229.5,191.5 Z"/></g>
<g><path style="opacity:0.718" fill="#535353" d="M 351.5,198.5 C 351.573,200.027 350.906,201.027 349.5,201.5C 349.427,199.973 350.094,198.973 351.5,198.5 Z"/></g>
<g><path style="opacity:0.314" fill="#8f8f8f" d="M 359.5,197.5 C 359.833,197.5 360.167,197.5 360.5,197.5C 360.25,199.674 359.25,201.341 357.5,202.5C 357.796,200.597 358.463,198.93 359.5,197.5 Z"/></g>
<g><path style="opacity:0.227" fill="#9b9b9b" d="M 532.5,191.5 C 531.629,194.112 530.963,196.779 530.5,199.5C 529.167,201.833 527.833,204.167 526.5,206.5C 527.628,201.781 528.962,197.114 530.5,192.5C 531.167,192.167 531.833,191.833 532.5,191.5 Z"/></g>
<g><path style="opacity:0.494" fill="#6c6c6c" d="M 721.5,199.5 C 721.573,201.027 720.906,202.027 719.5,202.5C 719.427,200.973 720.094,199.973 721.5,199.5 Z"/></g>
<g><path style="opacity:0.108" fill="#e3e3e3" d="M 88.5,196.5 C 88.2962,199.518 87.9629,202.518 87.5,205.5C 86.8505,207.435 86.5172,209.435 86.5,211.5C 86.1667,211.5 85.8333,211.5 85.5,211.5C 84.8333,212.167 84.1667,212.833 83.5,213.5C 84.5945,207.561 86.2611,201.894 88.5,196.5 Z"/></g>
<g><path style="opacity:0.478" fill="#8f8f8f" d="M 293.5,200.5 C 293.573,202.027 292.906,203.027 291.5,203.5C 291.427,201.973 292.094,200.973 293.5,200.5 Z"/></g>
<g><path style="opacity:0.267" fill="#868686" d="M 317.5,193.5 C 315.674,198.484 313.341,203.151 310.5,207.5C 310.5,206.833 310.5,206.167 310.5,205.5C 311.828,200.835 314.161,196.835 317.5,193.5 Z"/></g>
<g><path style="opacity:0.051" fill="#e1e1e1" d="M 362.5,191.5 C 362.833,191.5 363.167,191.5 363.5,191.5C 361.928,199.978 358.261,207.311 352.5,213.5C 352.833,212.167 353.167,210.833 353.5,209.5C 354.906,209.027 355.573,208.027 355.5,206.5C 355.5,206.167 355.5,205.833 355.5,205.5C 356.906,205.027 357.573,204.027 357.5,202.5C 359.25,201.341 360.25,199.674 360.5,197.5C 360.875,195.302 361.542,193.302 362.5,191.5 Z"/></g>
<g><path style="opacity:0.616" fill="#5f5f5f" d="M 349.5,201.5 C 349.25,203.674 348.25,205.341 346.5,206.5C 346.75,204.326 347.75,202.659 349.5,201.5 Z"/></g>
<g><path style="opacity:0.675" fill="#555555" d="M 357.5,202.5 C 357.573,204.027 356.906,205.027 355.5,205.5C 355.427,203.973 356.094,202.973 357.5,202.5 Z"/></g>
<g><path style="opacity:0.463" fill="#7b7b7b" d="M 719.5,202.5 C 717.966,204.369 715.966,205.702 713.5,206.5C 712.833,206.5 712.167,206.5 711.5,206.5C 713.789,204.613 716.455,203.279 719.5,202.5 Z"/></g>
<g><path style="opacity:0.941" fill="#353535" d="M 89.5,202.5 C 89.4725,205.916 88.4725,208.916 86.5,211.5C 86.5172,209.435 86.8505,207.435 87.5,205.5C 88.1667,204.5 88.8333,203.5 89.5,202.5 Z"/></g>
<g><path style="opacity:0.569" fill="#626262" d="M 117.5,197.5 C 117.102,201.761 116.102,205.761 114.5,209.5C 114.5,208.833 114.5,208.167 114.5,207.5C 114.59,203.786 115.59,200.452 117.5,197.5 Z"/></g>
<g><path style="opacity:0.682" fill="#757575" d="M 226.5,199.5 C 226.5,200.833 226.5,202.167 226.5,203.5C 224.936,212.759 224.269,222.092 224.5,231.5C 223.514,227.03 223.181,222.363 223.5,217.5C 223.872,211.268 224.872,205.268 226.5,199.5 Z"/></g>
<g><path style="opacity:0.451" fill="#6a6a6a" d="M 606.5,188.5 C 606.347,194.869 606.68,201.203 607.5,207.5C 605.926,205.898 605.259,203.898 605.5,201.5C 605.182,196.968 605.515,192.634 606.5,188.5 Z"/></g>
<g><path style="opacity:0.067" fill="#e2e2e2" d="M 297.5,190.5 C 297.371,192.216 297.038,193.883 296.5,195.5C 295.094,195.973 294.427,196.973 294.5,198.5C 294.167,199.167 293.833,199.833 293.5,200.5C 292.094,200.973 291.427,201.973 291.5,203.5C 290.833,205.5 290.167,207.5 289.5,209.5C 285.411,213.089 283.411,217.756 283.5,223.5C 283.335,226.85 283.502,230.183 284,233.5C 284.2,235.32 285.034,236.653 286.5,237.5C 286.328,238.492 286.662,239.158 287.5,239.5C 287.5,241.5 288.5,242.5 290.5,242.5C 291.167,242.5 291.833,242.5 292.5,242.5C 292.953,243.458 293.619,244.292 294.5,245C 296.667,245.167 298.833,245.333 301,245.5C 304.477,245.672 307.644,245.006 310.5,243.5C 313.152,243.59 315.485,242.924 317.5,241.5C 318.167,241.5 318.833,241.5 319.5,241.5C 321.565,241.483 323.565,241.15 325.5,240.5C 316.104,246.414 305.77,248.581 294.5,247C 285.151,243.821 280.817,237.321 281.5,227.5C 283.279,213.611 288.612,201.278 297.5,190.5 Z"/></g>
<g><path style="opacity:0.502" fill="#747474" d="M 355.5,206.5 C 355.573,208.027 354.906,209.027 353.5,209.5C 353.427,207.973 354.094,206.973 355.5,206.5 Z"/></g>
<g><path style="opacity:0.267" fill="#a3a3a3" d="M 711.5,206.5 C 712.167,206.5 712.833,206.5 713.5,206.5C 709.5,208.167 705.5,209.833 701.5,211.5C 698.99,211.054 696.99,211.72 695.5,213.5C 695.167,213.5 694.833,213.5 694.5,213.5C 693.5,213.5 692.5,213.5 691.5,213.5C 692.5,212.833 693.5,212.167 694.5,211.5C 700.03,209.458 705.697,207.792 711.5,206.5 Z"/></g>
<g><path style="opacity:0.941" fill="#333333" d="M 114.5,207.5 C 114.5,208.167 114.5,208.833 114.5,209.5C 112.898,213.239 111.898,217.239 111.5,221.5C 110.833,222.5 110.167,223.5 109.5,224.5C 110.347,219.112 111.513,213.779 113,208.5C 113.383,207.944 113.883,207.611 114.5,207.5 Z"/></g>
<g><path style="opacity:0.737" fill="#4a4a4a" d="M 310.5,205.5 C 310.5,206.167 310.5,206.833 310.5,207.5C 309.326,208.514 308.66,209.847 308.5,211.5C 308.167,211.5 307.833,211.5 307.5,211.5C 307.461,208.911 308.461,206.911 310.5,205.5 Z"/></g>
<g><path style="opacity:0.773" fill="#4b4b4b" d="M 248.5,208.5 C 247.871,211.397 246.871,214.064 245.5,216.5C 245.345,213.284 246.345,210.617 248.5,208.5 Z"/></g>
<g><path style="opacity:0.282" fill="#8d8d8d" d="M 307.5,211.5 C 307.833,211.5 308.167,211.5 308.5,211.5C 308.25,213.674 307.25,215.341 305.5,216.5C 305.796,214.597 306.463,212.93 307.5,211.5 Z"/></g>
<g><path style="opacity:0.71" fill="#575757" d="M 346.5,206.5 C 345.243,209.427 343.243,211.761 340.5,213.5C 341.757,210.573 343.757,208.239 346.5,206.5 Z"/></g>
<g><path style="opacity:0.239" fill="#909090" d="M 509.5,187.5 C 509.5,188.833 509.5,190.167 509.5,191.5C 508.733,199.81 509.733,207.81 512.5,215.5C 510.665,214.878 509.498,213.544 509,211.5C 508.177,203.323 508.344,195.323 509.5,187.5 Z"/></g>
<g><path style="opacity:0.137" fill="#d8d8d8" d="M 530.5,199.5 C 529.369,205.06 527.536,210.393 525,215.5C 521.721,220.003 517.887,221.003 513.5,218.5C 515.735,218.795 517.735,218.461 519.5,217.5C 521.833,217.167 523.167,215.833 523.5,213.5C 524.264,210.982 525.264,208.649 526.5,206.5C 527.833,204.167 529.167,201.833 530.5,199.5 Z"/></g>
<g><path style="opacity:0.022" fill="#f6f6f6" d="M 701.5,211.5 C 699.786,212.738 697.786,213.405 695.5,213.5C 696.99,211.72 698.99,211.054 701.5,211.5 Z"/></g>
<g><path style="opacity:0.094" fill="#eeeeee" d="M 227.5,190.5 C 227.296,193.518 226.963,196.518 226.5,199.5C 224.872,205.268 223.872,211.268 223.5,217.5C 222.513,222.305 222.179,227.305 222.5,232.5C 220.876,218.155 222.543,204.155 227.5,190.5 Z"/></g>
<g><path style="opacity:0.267" fill="#909090" d="M 353.5,209.5 C 353.167,210.833 352.833,212.167 352.5,213.5C 352.5,214.167 352.167,214.5 351.5,214.5C 350.167,215.5 348.833,216.5 347.5,217.5C 349.122,214.545 351.122,211.878 353.5,209.5 Z"/></g>
<g><path style="opacity:0.341" fill="#8a8a8a" d="M 565.5,189.5 C 565.175,196.687 565.509,203.687 566.5,210.5C 566.878,212.921 567.545,215.254 568.5,217.5C 566.52,216.152 565.353,214.152 565,211.5C 564.178,203.988 564.345,196.655 565.5,189.5 Z"/></g>
<g><path style="opacity:0.043" fill="#dedede" d="M 604.5,188.5 C 604.182,193.032 604.515,197.366 605.5,201.5C 605.259,203.898 605.926,205.898 607.5,207.5C 608.331,212.328 610.998,215.662 615.5,217.5C 615.973,218.906 616.973,219.573 618.5,219.5C 619.609,219.557 620.609,219.89 621.5,220.5C 621.842,221.338 622.508,221.672 623.5,221.5C 624.167,222.167 624.833,222.833 625.5,223.5C 613.588,221.422 606.422,214.422 604,202.5C 603.185,197.648 603.352,192.981 604.5,188.5 Z"/></g>
<g><path style="opacity:0.424" fill="#797979" d="M 607.5,207.5 C 609.729,211.075 612.395,214.408 615.5,217.5C 610.998,215.662 608.331,212.328 607.5,207.5 Z"/></g>
<g><path style="opacity:0.447" fill="#686868" d="M 694.5,211.5 C 693.5,212.167 692.5,212.833 691.5,213.5C 687.462,213.958 683.462,214.624 679.5,215.5C 684.126,213.168 689.126,211.835 694.5,211.5 Z"/></g>
<g><path style="opacity:0.082" fill="#dadada" d="M 352.5,194.5 C 352.167,195.833 351.833,197.167 351.5,198.5C 350.094,198.973 349.427,199.973 349.5,201.5C 347.75,202.659 346.75,204.326 346.5,206.5C 343.757,208.239 341.757,210.573 340.5,213.5C 338.52,214.484 336.853,215.817 335.5,217.5C 332.474,219.538 329.474,221.538 326.5,223.5C 323.706,225.213 320.706,226.546 317.5,227.5C 312.87,228.229 308.203,228.563 303.5,228.5C 303.87,224.767 304.537,221.101 305.5,217.5C 305.5,217.167 305.5,216.833 305.5,216.5C 307.25,215.341 308.25,213.674 308.5,211.5C 308.66,209.847 309.326,208.514 310.5,207.5C 313.341,203.151 315.674,198.484 317.5,193.5C 319.408,192.514 320.408,190.848 320.5,188.5C 326.177,182.824 332.177,177.491 338.5,172.5C 340.027,172.573 341.027,171.906 341.5,170.5C 342.167,170.5 342.833,170.5 343.5,170.5C 346.894,168.57 350.394,168.237 354,169.5C 355.728,177.927 355.228,186.261 352.5,194.5 Z M 350.5,169.5 C 343.939,172.45 337.606,175.95 331.5,180C 318.541,193.412 309.875,209.246 305.5,227.5C 313.066,227.256 320.066,225.09 326.5,221C 346.028,209.943 354.694,193.277 352.5,171C 352.164,169.97 351.497,169.47 350.5,169.5 Z"/></g>
<g><path style="opacity:0.302" fill="#a6a6a6" d="M 85.5,211.5 C 85.5,212.833 85.5,214.167 85.5,215.5C 84.71,216.609 84.21,217.942 84,219.5C 83.5006,224.823 83.334,230.156 83.5,235.5C 81.9827,233.538 81.3161,231.205 81.5,228.5C 82.1688,223.492 82.8355,218.492 83.5,213.5C 84.1667,212.833 84.8333,212.167 85.5,211.5 Z"/></g>
<g><path style="opacity:0.794" fill="#575757" d="M 523.5,213.5 C 523.167,215.833 521.833,217.167 519.5,217.5C 517.585,217.784 515.919,217.451 514.5,216.5C 518.112,217.076 521.112,216.076 523.5,213.5 Z"/></g>
<g><path style="opacity:0.018" fill="#e1e1e1" d="M 691.5,213.5 C 692.5,213.5 693.5,213.5 694.5,213.5C 678.745,219.118 662.411,222.452 645.5,223.5C 647.833,222.833 650.167,222.167 652.5,221.5C 652.5,220.833 652.833,220.5 653.5,220.5C 661.884,220.107 669.884,218.441 677.5,215.5C 678.167,215.5 678.833,215.5 679.5,215.5C 683.462,214.624 687.462,213.958 691.5,213.5 Z"/></g>
<g><path style="opacity:0.055" fill="#e6e6e6" d="M 351.5,214.5 C 345.543,225.824 336.877,234.491 325.5,240.5C 327.194,238.139 329.194,236.139 331.5,234.5C 332.5,234.167 333.167,233.5 333.5,232.5C 335.027,232.573 336.027,231.906 336.5,230.5C 336.5,229.167 337.167,228.5 338.5,228.5C 339.833,227.833 340.833,226.833 341.5,225.5C 343.262,224.738 344.262,223.404 344.5,221.5C 346.262,220.738 347.262,219.404 347.5,217.5C 348.833,216.5 350.167,215.5 351.5,214.5 Z"/></g>
<g><path style="opacity:0.467" fill="#9b9b9b" d="M 512.5,215.5 C 513.167,215.833 513.833,216.167 514.5,216.5C 515.919,217.451 517.585,217.784 519.5,217.5C 517.735,218.461 515.735,218.795 513.5,218.5C 512.89,217.609 512.557,216.609 512.5,215.5 Z"/></g>
<g><path style="opacity:0.49" fill="#808080" d="M 289.5,209.5 C 287.27,213.962 285.603,218.628 284.5,223.5C 284.167,223.5 283.833,223.5 283.5,223.5C 283.411,217.756 285.411,213.089 289.5,209.5 Z"/></g>
<g><path style="opacity:0.337" fill="#838383" d="M 347.5,217.5 C 347.262,219.404 346.262,220.738 344.5,221.5C 344.738,219.596 345.738,218.262 347.5,217.5 Z"/></g>
<g><path style="opacity:0.471" fill="#6a6a6a" d="M 568.5,217.5 C 570.167,218.5 571.5,219.833 572.5,221.5C 570.167,221.167 568.833,219.833 568.5,217.5 Z"/></g>
<g><path style="opacity:0.592" fill="#6b6b6b" d="M 615.5,217.5 C 617.027,217.427 618.027,218.094 618.5,219.5C 616.973,219.573 615.973,218.906 615.5,217.5 Z"/></g>
<g><path style="opacity:0.463" fill="#666666" d="M 677.5,215.5 C 669.884,218.441 661.884,220.107 653.5,220.5C 661.302,218.473 669.302,216.806 677.5,215.5 Z"/></g>
<g><path style="opacity:0.069" fill="#e0e0e0" d="M 452.5,144.5 C 466.006,140.509 475.173,145.175 480,158.5C 482.464,169.794 482.798,181.127 481,192.5C 479.156,201.54 477.156,210.54 475,219.5C 468.972,231.257 460.639,233.257 450,225.5C 446.691,218.919 445.691,211.919 447,204.5C 449.022,192.859 451.522,181.359 454.5,170C 443.131,172.442 433.298,177.942 425,186.5C 420.808,208.054 408.974,223.888 389.5,234C 382.299,234.897 378.299,231.731 377.5,224.5C 379.177,215.149 383.01,206.815 389,199.5C 394.292,192.54 399.958,185.873 406,179.5C 406.883,174.852 406.05,170.519 403.5,166.5C 400.572,165.516 397.572,165.183 394.5,165.5C 394.5,165.167 394.5,164.833 394.5,164.5C 397.625,163.521 400.958,163.187 404.5,163.5C 404.427,165.027 405.094,166.027 406.5,166.5C 406.5,167.167 406.5,167.833 406.5,168.5C 406.427,170.027 407.094,171.027 408.5,171.5C 408.5,172.167 408.5,172.833 408.5,173.5C 408.662,175.527 408.495,177.527 408,179.5C 405.59,182.397 403.423,185.397 401.5,188.5C 400.833,188.5 400.5,188.833 400.5,189.5C 398.554,190.035 397.554,191.368 397.5,193.5C 393.372,196.29 390.372,199.957 388.5,204.5C 387.094,204.973 386.427,205.973 386.5,207.5C 386.167,208.167 385.833,208.833 385.5,209.5C 382.593,211.315 381.259,213.981 381.5,217.5C 380.566,218.568 380.232,219.901 380.5,221.5C 379.848,222.449 379.514,223.615 379.5,225C 379.307,227.008 379.974,228.508 381.5,229.5C 381.611,230.117 381.944,230.617 382.5,231C 385.146,231.497 387.813,231.664 390.5,231.5C 393.37,230.567 395.704,228.9 397.5,226.5C 399.027,226.573 400.027,225.906 400.5,224.5C 404.5,222.5 407.5,219.5 409.5,215.5C 412.323,214.008 413.99,211.674 414.5,208.5C 414.5,208.167 414.5,207.833 414.5,207.5C 415.906,207.027 416.573,206.027 416.5,204.5C 417.338,204.158 417.672,203.492 417.5,202.5C 418.79,201.942 419.623,200.942 420,199.5C 421.737,195.339 422.737,191.005 423,186.5C 425.372,184.297 427.539,181.963 429.5,179.5C 433.082,177.88 436.082,175.547 438.5,172.5C 440.027,172.573 441.027,171.906 441.5,170.5C 441.833,170.5 442.167,170.5 442.5,170.5C 446.863,169.627 451.196,168.627 455.5,167.5C 455.5,169.167 455.5,170.833 455.5,172.5C 455.5,172.833 455.5,173.167 455.5,173.5C 453.926,175.102 453.259,177.102 453.5,179.5C 453.296,182.518 452.963,185.518 452.5,188.5C 452.737,189.791 452.404,190.791 451.5,191.5C 448.631,199.92 447.631,208.587 448.5,217.5C 448.025,220.313 449.025,222.313 451.5,223.5C 452.833,224.5 454.167,225.5 455.5,226.5C 456.492,228.026 457.992,228.693 460,228.5C 461.385,228.486 462.551,228.152 463.5,227.5C 464.167,227.5 464.833,227.5 465.5,227.5C 466.833,227.5 467.5,226.833 467.5,225.5C 469.833,225.167 471.167,223.833 471.5,221.5C 471.5,221.167 471.5,220.833 471.5,220.5C 473.397,218.302 474.397,215.636 474.5,212.5C 476.96,205.133 478.794,197.466 480,189.5C 480.667,183.167 480.667,176.833 480,170.5C 479.95,165.873 479.117,161.54 477.5,157.5C 475.975,155.784 474.975,153.784 474.5,151.5C 473.738,149.738 472.404,148.738 470.5,148.5C 468.68,146.552 466.346,145.552 463.5,145.5C 460.038,144.518 456.371,144.185 452.5,144.5 Z"/></g>
<g><path style="opacity:0.718" fill="#656565" d="M 385.5,209.5 C 384.35,212.298 383.017,214.965 381.5,217.5C 381.259,213.981 382.593,211.315 385.5,209.5 Z"/></g>
<g><path style="opacity:0.459" fill="#727272" d="M 414.5,208.5 C 413.99,211.674 412.323,214.008 409.5,215.5C 410.786,212.883 412.453,210.55 414.5,208.5 Z"/></g>
<g><path style="opacity:0.722" fill="#464646" d="M 416.5,204.5 C 416.573,206.027 415.906,207.027 414.5,207.5C 414.427,205.973 415.094,204.973 416.5,204.5 Z"/></g>
<g><path style="opacity:0.675" fill="#636363" d="M 388.5,204.5 C 388.573,206.027 387.906,207.027 386.5,207.5C 386.427,205.973 387.094,204.973 388.5,204.5 Z"/></g>
<g><path style="opacity:0.635" fill="#676767" d="M 397.5,193.5 C 394.871,197.463 391.871,201.129 388.5,204.5C 390.372,199.957 393.372,196.29 397.5,193.5 Z"/></g>
<g><path style="opacity:0.478" fill="#6c6c6c" d="M 429.5,179.5 C 427.539,181.963 425.372,184.297 423,186.5C 422.737,191.005 421.737,195.339 420,199.5C 419.623,200.942 418.79,201.942 417.5,202.5C 419.413,196.936 420.913,191.269 422,185.5C 424.106,182.882 426.606,180.882 429.5,179.5 Z"/></g>
<g><path style="opacity:0.549" fill="#727272" d="M 451.5,191.5 C 450.175,200.111 449.508,208.777 449.5,217.5C 449.167,217.5 448.833,217.5 448.5,217.5C 447.631,208.587 448.631,199.92 451.5,191.5 Z"/></g>
<g><path style="opacity:0.71" fill="#686868" d="M 400.5,189.5 C 399.974,191.23 398.974,192.564 397.5,193.5C 397.554,191.368 398.554,190.035 400.5,189.5 Z"/></g>
<g><path style="opacity:0.931" fill="#303030" d="M 453.5,179.5 C 453.833,179.5 454.167,179.5 454.5,179.5C 454.664,182.187 454.497,184.854 454,187.5C 453.617,188.056 453.117,188.389 452.5,188.5C 452.963,185.518 453.296,182.518 453.5,179.5 Z"/></g>
<g><path style="opacity:0.729" fill="#5e5e5e" d="M 408.5,173.5 C 409.672,179.788 407.339,184.788 401.5,188.5C 403.423,185.397 405.59,182.397 408,179.5C 408.495,177.527 408.662,175.527 408.5,173.5 Z"/></g>
<g><path style="opacity:0.506" fill="#808080" d="M 455.5,173.5 C 455.483,175.565 455.15,177.565 454.5,179.5C 454.167,179.5 453.833,179.5 453.5,179.5C 453.259,177.102 453.926,175.102 455.5,173.5 Z"/></g>
<g><path style="opacity:0.569" fill="#6a6a6a" d="M 438.5,172.5 C 436.082,175.547 433.082,177.88 429.5,179.5C 431.879,176.465 434.879,174.131 438.5,172.5 Z"/></g>
<g><path style="opacity:0.592" fill="#515151" d="M 441.5,170.5 C 441.027,171.906 440.027,172.573 438.5,172.5C 438.973,171.094 439.973,170.427 441.5,170.5 Z"/></g>
<g><path style="opacity:0.608" fill="#6a6a6a" d="M 406.5,168.5 C 407.906,168.973 408.573,169.973 408.5,171.5C 407.094,171.027 406.427,170.027 406.5,168.5 Z"/></g>
<g><path style="opacity:0.58" fill="#686868" d="M 455.5,172.5 C 455.5,170.833 455.5,169.167 455.5,167.5C 451.196,168.627 446.863,169.627 442.5,170.5C 444.832,168.904 447.499,167.738 450.5,167C 452.81,166.503 455.143,166.337 457.5,166.5C 457.741,168.898 457.074,170.898 455.5,172.5 Z"/></g>
<g><path style="opacity:0.631" fill="#525252" d="M 418.5,164.5 C 419.708,165.234 421.041,165.567 422.5,165.5C 422.083,166.124 421.416,166.457 420.5,166.5C 419.287,166.253 418.62,165.586 418.5,164.5 Z"/></g>
<g><path style="opacity:0.545" fill="#727272" d="M 404.5,163.5 C 405.906,163.973 406.573,164.973 406.5,166.5C 405.094,166.027 404.427,165.027 404.5,163.5 Z"/></g>
<g><path style="opacity:0.643" fill="#515151" d="M 474.5,212.5 C 474.397,215.636 473.397,218.302 471.5,220.5C 472.06,218.199 472.56,215.866 473,213.5C 473.383,212.944 473.883,212.611 474.5,212.5 Z"/></g>
<g><path style="opacity:0.467" fill="#696969" d="M 590.5,204.5 C 590.833,204.5 591.167,204.5 591.5,204.5C 591.666,208.514 591.499,212.514 591,216.5C 589.924,219.079 588.091,220.746 585.5,221.5C 590.07,216.833 591.737,211.166 590.5,204.5 Z"/></g>
<g><path style="opacity:0.31" fill="#999999" d="M 409.5,215.5 C 407.5,219.5 404.5,222.5 400.5,224.5C 403.167,221.167 406.167,218.167 409.5,215.5 Z"/></g>
<g><path style="opacity:0.157" fill="#a7a7a7" d="M 448.5,217.5 C 448.833,217.5 449.167,217.5 449.5,217.5C 449.704,219.685 450.37,221.685 451.5,223.5C 449.025,222.313 448.025,220.313 448.5,217.5 Z"/></g>
<g><path style="opacity:0.945" fill="#3f3f3f" d="M 335.5,217.5 C 333.573,221.092 330.573,223.092 326.5,223.5C 329.474,221.538 332.474,219.538 335.5,217.5 Z"/></g>
<g><path style="opacity:0.71" fill="#4e4e4e" d="M 621.5,220.5 C 628.485,221.089 635.485,221.422 642.5,221.5C 636.317,222.676 629.983,222.676 623.5,221.5C 622.508,221.672 621.842,221.338 621.5,220.5 Z"/></g>
<g><path style="opacity:0.259" fill="#8e8e8e" d="M 344.5,221.5 C 344.262,223.404 343.262,224.738 341.5,225.5C 341.738,223.596 342.738,222.262 344.5,221.5 Z"/></g>
<g><path style="opacity:0.396" fill="#767676" d="M 471.5,221.5 C 471.167,223.833 469.833,225.167 467.5,225.5C 468.5,223.833 469.833,222.5 471.5,221.5 Z"/></g>
<g><path style="opacity:0.782" fill="#585858" d="M 572.5,221.5 C 576.833,222.833 581.167,222.833 585.5,221.5C 585.389,222.117 585.056,222.617 584.5,223C 580.833,223.667 577.167,223.667 573.5,223C 572.944,222.617 572.611,222.117 572.5,221.5 Z"/></g>
<g><path style="opacity:0.278" fill="#c5c5c5" d="M 623.5,221.5 C 629.983,222.676 636.317,222.676 642.5,221.5C 645.833,221.5 649.167,221.5 652.5,221.5C 650.167,222.167 647.833,222.833 645.5,223.5C 638.833,224.833 632.167,224.833 625.5,223.5C 624.833,222.833 624.167,222.167 623.5,221.5 Z"/></g>
<g><path style="opacity:0.196" fill="#9a9a9a" d="M 245.5,217.5 C 245.5,220.167 245.5,222.833 245.5,225.5C 244.651,227.888 243.651,230.221 242.5,232.5C 242.862,227.248 243.862,222.248 245.5,217.5 Z"/></g>
<g><path style="opacity:0.906" fill="#2b2b2b" d="M 85.5,215.5 C 84.9457,222.153 84.6123,228.82 84.5,235.5C 84.1667,235.5 83.8333,235.5 83.5,235.5C 83.334,230.156 83.5006,224.823 84,219.5C 84.21,217.942 84.71,216.609 85.5,215.5 Z"/></g>
<g><path style="opacity:0.431" fill="#838383" d="M 305.5,217.5 C 304.537,221.101 303.87,224.767 303.5,228.5C 308.203,228.563 312.87,228.229 317.5,227.5C 316.737,228.268 315.737,228.768 314.5,229C 310.514,229.499 306.514,229.666 302.5,229.5C 301.768,224.886 302.768,220.886 305.5,217.5 Z"/></g>
<g><path style="opacity:0.349" fill="#8f8f8f" d="M 400.5,224.5 C 400.027,225.906 399.027,226.573 397.5,226.5C 397.973,225.094 398.973,224.427 400.5,224.5 Z"/></g>
<g><path style="opacity:0.702" fill="#5d5d5d" d="M 283.5,223.5 C 283.833,223.5 284.167,223.5 284.5,223.5C 284.221,228.327 284.887,232.993 286.5,237.5C 285.034,236.653 284.2,235.32 284,233.5C 283.502,230.183 283.335,226.85 283.5,223.5 Z"/></g>
<g><path style="opacity:0.51" fill="#6c6c6c" d="M 341.5,225.5 C 340.833,226.833 339.833,227.833 338.5,228.5C 338.5,226.5 339.5,225.5 341.5,225.5 Z"/></g>
<g><path style="opacity:0.31" fill="#888888" d="M 467.5,225.5 C 467.5,226.833 466.833,227.5 465.5,227.5C 465.5,226.167 466.167,225.5 467.5,225.5 Z"/></g>
<g><path style="opacity:0.216" fill="#9f9f9f" d="M 111.5,221.5 C 111.5,222.833 111.5,224.167 111.5,225.5C 110.857,227.076 109.857,228.41 108.5,229.5C 108.366,227.708 108.699,226.042 109.5,224.5C 110.167,223.5 110.833,222.5 111.5,221.5 Z"/></g>
<g><path style="opacity:0.486" fill="#8c8c8c" d="M 455.5,226.5 C 458.096,227.265 460.763,227.599 463.5,227.5C 462.551,228.152 461.385,228.486 460,228.5C 457.992,228.693 456.492,228.026 455.5,226.5 Z"/></g>
<g><path style="opacity:0.451" fill="#7d7d7d" d="M 380.5,221.5 C 380.401,224.237 380.735,226.904 381.5,229.5C 379.974,228.508 379.307,227.008 379.5,225C 379.514,223.615 379.848,222.449 380.5,221.5 Z"/></g>
<g><path style="opacity:0.388" fill="#888888" d="M 397.5,226.5 C 395.704,228.9 393.37,230.567 390.5,231.5C 390.5,231.167 390.5,230.833 390.5,230.5C 392.698,228.902 395.031,227.569 397.5,226.5 Z"/></g>
<g><path style="opacity:0.894" fill="#393939" d="M 381.5,229.5 C 384.43,230.299 387.43,230.632 390.5,230.5C 390.5,230.833 390.5,231.167 390.5,231.5C 387.813,231.664 385.146,231.497 382.5,231C 381.944,230.617 381.611,230.117 381.5,229.5 Z"/></g>
<g><path style="opacity:0.353" fill="#888888" d="M 336.5,230.5 C 336.027,231.906 335.027,232.573 333.5,232.5C 333.973,231.094 334.973,230.427 336.5,230.5 Z"/></g>
<g><path style="opacity:0.525" fill="#6b6b6b" d="M 333.5,232.5 C 333.167,233.5 332.5,234.167 331.5,234.5C 331.5,233.167 332.167,232.5 333.5,232.5 Z"/></g>
<g><path style="opacity:0.137" fill="#c5c5c5" d="M 223.5,217.5 C 223.181,222.363 223.514,227.03 224.5,231.5C 224.5,232.167 224.5,232.833 224.5,233.5C 224.427,235.027 225.094,236.027 226.5,236.5C 226.5,237.167 226.5,237.833 226.5,238.5C 225.5,237.833 224.5,237.167 223.5,236.5C 222.566,235.432 222.232,234.099 222.5,232.5C 222.179,227.305 222.513,222.305 223.5,217.5 Z"/></g>
<g><path style="opacity:0.627" fill="#696969" d="M 224.5,233.5 C 225.906,233.973 226.573,234.973 226.5,236.5C 225.094,236.027 224.427,235.027 224.5,233.5 Z"/></g>
<g><path style="opacity:0.631" fill="#4e4e4e" d="M 325.5,237.5 C 325.027,238.906 324.027,239.573 322.5,239.5C 322.973,238.094 323.973,237.427 325.5,237.5 Z"/></g>
<g><path style="opacity:0.29" fill="#979797" d="M 287.5,239.5 C 288.833,240.167 289.833,241.167 290.5,242.5C 288.5,242.5 287.5,241.5 287.5,239.5 Z"/></g>
<g><path style="opacity:0.129" fill="#acacac" d="M 331.5,234.5 C 329.194,236.139 327.194,238.139 325.5,240.5C 323.565,241.15 321.565,241.483 319.5,241.5C 320.29,240.599 321.29,239.932 322.5,239.5C 324.027,239.573 325.027,238.906 325.5,237.5C 327.216,235.975 329.216,234.975 331.5,234.5 Z"/></g>
<g><path style="opacity:0.604" fill="#4f4f4f" d="M 317.5,241.5 C 315.485,242.924 313.152,243.59 310.5,243.5C 312.515,242.076 314.848,241.41 317.5,241.5 Z"/></g>
<g><path style="opacity:0.713" fill="#5f5f5f" d="M 292.5,242.5 C 298.285,244.807 304.285,245.14 310.5,243.5C 307.644,245.006 304.477,245.672 301,245.5C 298.833,245.333 296.667,245.167 294.5,245C 293.619,244.292 292.953,243.458 292.5,242.5 Z"/></g>
<g><path style="opacity:0.643" fill="#717171" d="M 241.5,233.5 C 241.665,237.182 241.499,240.848 241,244.5C 238.302,246.673 235.469,247.006 232.5,245.5C 234.792,245.756 236.959,245.423 239,244.5C 240.014,240.759 240.847,237.093 241.5,233.5 Z"/></g>
<g><path style="opacity:0.141" fill="#e3e3e3" d="M 245.5,225.5 C 245.153,231.227 244.319,236.894 243,242.5C 240.928,248.281 237.094,249.781 231.5,247C 227.857,244.197 225.19,240.697 223.5,236.5C 224.5,237.167 225.5,237.833 226.5,238.5C 227.08,240.749 228.413,242.415 230.5,243.5C 231.5,243.833 232.167,244.5 232.5,245.5C 235.469,247.006 238.302,246.673 241,244.5C 241.499,240.848 241.665,237.182 241.5,233.5C 242.167,233.5 242.5,233.167 242.5,232.5C 243.651,230.221 244.651,227.888 245.5,225.5 Z"/></g>
<g><path style="opacity:0.4" fill="#8b8b8b" d="M 226.5,238.5 C 228.587,239.585 229.92,241.251 230.5,243.5C 228.413,242.415 227.08,240.749 226.5,238.5 Z"/></g>
<g><path style="opacity:0.069" fill="#e4e4e4" d="M 83.5,213.5 C 82.8355,218.492 82.1688,223.492 81.5,228.5C 81.3161,231.205 81.9827,233.538 83.5,235.5C 83.8333,235.5 84.1667,235.5 84.5,235.5C 84.5,236.833 84.5,238.167 84.5,239.5C 84.7497,241.674 85.7497,243.341 87.5,244.5C 88.5,245.167 89.5,245.833 90.5,246.5C 93.3035,247.638 96.3035,247.805 99.5,247C 100.381,246.292 101.047,245.458 101.5,244.5C 102.906,244.027 103.573,243.027 103.5,241.5C 105.25,240.341 106.25,238.674 106.5,236.5C 106.5,235.5 106.5,234.5 106.5,233.5C 107.674,232.486 108.34,231.153 108.5,229.5C 109.857,228.41 110.857,227.076 111.5,225.5C 110.087,232.574 107.587,239.24 104,245.5C 92.0321,252.691 84.3654,249.358 81,235.5C 79.983,227.828 80.8163,220.494 83.5,213.5 Z"/></g>
<g><path style="opacity:0.639" fill="#797979" d="M 101.5,244.5 C 101.047,245.458 100.381,246.292 99.5,247C 96.3035,247.805 93.3035,247.638 90.5,246.5C 93.0593,246.802 95.3926,246.468 97.5,245.5C 98.8333,245.167 100.167,244.833 101.5,244.5 Z"/></g>
<g><path style="opacity:0.925" fill="#373737" d="M 87.5,244.5 C 87.5,244.167 87.5,243.833 87.5,243.5C 90.5516,245.178 93.8849,245.845 97.5,245.5C 95.3926,246.468 93.0593,246.802 90.5,246.5C 89.5,245.833 88.5,245.167 87.5,244.5 Z"/></g>
<g><path style="opacity:0.486" fill="#666666" d="M 103.5,241.5 C 103.573,243.027 102.906,244.027 101.5,244.5C 101.427,242.973 102.094,241.973 103.5,241.5 Z"/></g>
<g><path style="opacity:0.298" fill="#838383" d="M 84.5,239.5 C 86.2014,240.211 87.2014,241.545 87.5,243.5C 87.5,243.833 87.5,244.167 87.5,244.5C 85.7497,243.341 84.7497,241.674 84.5,239.5 Z"/></g>
<g><path style="opacity:0.412" fill="#767676" d="M 106.5,236.5 C 106.25,238.674 105.25,240.341 103.5,241.5C 103.592,239.152 104.592,237.486 106.5,236.5 Z"/></g>
<g><path style="opacity:0.812" fill="#424242" d="M 108.5,229.5 C 108.34,231.153 107.674,232.486 106.5,233.5C 106.229,231.62 106.896,230.287 108.5,229.5 Z"/></g>
</svg>
